LinguisticsPro-Medium.ufo
<glyph name="ampersand" format="2">
	<unicode hex="0026"/>
	<advance width="720"/>
	<outline>
		<contour>
			<point x="45.6667" y="175.333" type="curve" smooth="yes"/>
			<point x="45.6667" y="276.333"/>
			<point x="126.333" y="327.667"/>
			<point x="190" y="363.667" type="curve"/>
			<point x="159" y="404"/>
			<point x="127" y="452.333"/>
			<point x="127" y="514" type="curve" smooth="yes"/>
			<point x="127" y="607"/>
			<point x="197.667" y="680"/>
			<point x="299" y="680" type="curve" smooth="yes"/>
			<point x="385.667" y="680"/>
			<point x="455.333" y="627.333"/>
			<point x="455.333" y="541" type="curve" smooth="yes"/>
			<point x="455.333" y="456.667"/>
			<point x="387.333" y="416.667"/>
			<point x="313.333" y="379" type="curve"/>
			<point x="366" y="315.333"/>
			<point x="429.667" y="246.667"/>
			<point x="512" y="169.667" type="curve"/>
			<point x="553.667" y="219.667"/>
			<point x="566.667" y="288"/>
			<point x="566.667" y="347.333" type="curve" smooth="yes"/>
			<point x="566.667" y="370.667"/>
			<point x="564" y="396.333"/>
			<point x="560" y="416" type="curve"/>
			<point x="583" y="430"/>
			<point x="610.667" y="437.667"/>
			<point x="633" y="437.667" type="curve" smooth="yes"/>
			<point x="638" y="437.667"/>
			<point x="644.333" y="437.333"/>
			<point x="649" y="436" type="curve"/>
			<point x="665.667" y="411"/>
			<point x="672" y="387"/>
			<point x="672" y="366.333" type="curve" smooth="yes"/>
			<point x="672" y="293.667"/>
			<point x="588.333" y="188.667"/>
			<point x="544" y="140.667" type="curve"/>
			<point x="587.333" y="97.6667"/>
			<point x="662" y="34"/>
			<point x="706" y="20" type="curve"/>
			<point x="701.333" y="-6.83333" type="line"/>
			<point x="672" y="-5.5" type="line" smooth="yes"/>
			<point x="582.667" y="-1"/>
			<point x="544.667" y="15.3333"/>
			<point x="477" y="67.6667" type="curve"/>
			<point x="413.333" y="14.3333"/>
			<point x="346" y="-12"/>
			<point x="268.333" y="-12" type="curve" smooth="yes"/>
			<point x="145" y="-12"/>
			<point x="45.6667" y="56"/>
		</contour>
		<contour>
			<point x="160.333" y="203.333" type="curve" smooth="yes"/>
			<point x="160.333" y="109.333"/>
			<point x="226" y="45.3333"/>
			<point x="318" y="45.3333" type="curve" smooth="yes"/>
			<point x="368" y="45.3333"/>
			<point x="409.333" y="64.3333"/>
			<point x="444.667" y="95.6667" type="curve"/>
			<point x="353.667" y="174.667"/>
			<point x="274.333" y="258.333"/>
			<point x="215.667" y="328.667" type="curve"/>
			<point x="195.333" y="311"/>
			<point x="160.333" y="271"/>
		</contour>
		<contour>
			<point x="219.667" y="545.667" type="curve" smooth="yes"/>
			<point x="219.667" y="496.667"/>
			<point x="244" y="452.667"/>
			<point x="284.333" y="408.667" type="curve"/>
			<point x="331.333" y="442"/>
			<point x="364.333" y="488"/>
			<point x="364.333" y="547.667" type="curve" smooth="yes"/>
			<point x="364.333" y="601.333"/>
			<point x="338" y="641.333"/>
			<point x="295.667" y="641.333" type="curve" smooth="yes"/>
			<point x="254.667" y="641.333"/>
			<point x="219.667" y="604"/>
		</contour>
	</outline>
</glyph>
<glyph name="parenleft" format="2">
	<unicode hex="0028"/>
	<advance width="355"/>
	<outline>
		<contour>
			<point x="103" y="282" type="curve" smooth="yes"/>
			<point x="103" y="459"/>
			<point x="144" y="688"/>
			<point x="329.667" y="694.333" type="curve"/>
			<point x="331.333" y="666.333" type="line"/>
			<point x="250.667" y="646"/>
			<point x="183.333" y="513.667"/>
			<point x="183.333" y="282" type="curve" smooth="yes"/>
			<point x="183.333" y="49"/>
			<point x="254" y="-82.6667"/>
			<point x="331.333" y="-102.333" type="curve"/>
			<point x="329.667" y="-130.333" type="line"/>
			<point x="144" y="-124"/>
			<point x="103" y="105"/>
		</contour>
	</outline>
</glyph>
<glyph name="comma" format="2">
	<unicode hex="002C"/>
	<advance width="270"/>
	<outline>
		<contour>
			<point x="47.3333" y="-127.333" type="line"/>
			<point x="80.3333" y="-91"/>
			<point x="106" y="-50"/>
			<point x="106" y="-6.66667" type="curve" smooth="yes"/>
			<point x="106" y="38"/>
			<point x="70.6667" y="57"/>
			<point x="70.6667" y="96.3333" type="curve" smooth="yes"/>
			<point x="70.6667" y="126"/>
			<point x="91" y="154"/>
			<point x="128" y="154" type="curve" smooth="yes"/>
			<point x="170.667" y="154"/>
			<point x="204" y="115"/>
			<point x="204" y="55.6667" type="curve" smooth="yes"/>
			<point x="204" y="-27.6667"/>
			<point x="125.667" y="-100.333"/>
			<point x="70" y="-149.667" type="curve"/>
		</contour>
	</outline>
</glyph>
<glyph name="slash" format="2">
	<unicode hex="002F"/>
	<advance width="433"/>
	<outline>
		<contour>
			<point x="72.6667" y="-15" type="line"/>
			<point x="282.667" y="707" type="line"/>
			<point x="360.667" y="707" type="line"/>
			<point x="150.667" y="-15" type="line"/>
		</contour>
	</outline>
</glyph>
<glyph name="zero" format="2">
	<unicode hex="0030"/>
	<advance width="540"/>
	<outline>
		<contour>
			<point x="37.6667" y="334" type="curve" smooth="yes"/>
			<point x="37.6667" y="528.333"/>
			<point x="97.6667" y="680"/>
			<point x="270" y="680" type="curve" smooth="yes"/>
			<point x="442.333" y="680"/>
			<point x="502.333" y="528.333"/>
			<point x="502.333" y="334" type="curve" smooth="yes"/>
			<point x="502.333" y="139.667"/>
			<point x="442.333" y="-12"/>
			<point x="270" y="-12" type="curve" smooth="yes"/>
			<point x="97.6667" y="-12"/>
			<point x="37.6667" y="139.667"/>
		</contour>
		<contour>
			<point x="158.333" y="334" type="curve" smooth="yes"/>
			<point x="158.333" y="187.333"/>
			<point x="179.333" y="26.6667"/>
			<point x="270" y="26.6667" type="curve" smooth="yes"/>
			<point x="360.667" y="26.6667"/>
			<point x="381.667" y="187.333"/>
			<point x="381.667" y="334" type="curve" smooth="yes"/>
			<point x="381.667" y="480.667"/>
			<point x="360.667" y="641.333"/>
			<point x="270" y="641.333" type="curve" smooth="yes"/>
			<point x="179.333" y="641.333"/>
			<point x="158.333" y="480.667"/>
		</contour>
	</outline>
</glyph>
<glyph name="two" format="2">
	<unicode hex="0032"/>
	<advance width="540"/>
	<outline>
		<contour>
			<point x="28" y="12.6667" type="line"/>
			<point x="40.6667" y="87"/>
			<point x="86.3333" y="160"/>
			<point x="218.014" y="272.822" type="curve" smooth="yes"/>
			<point x="310" y="351.667"/>
			<point x="351.333" y="416.667"/>
			<point x="351.333" y="510.378" type="curve" smooth="yes"/>
			<point x="351.333" y="581.667"/>
			<point x="329" y="641.333"/>
			<point x="264.393" y="641.333" type="curve" smooth="yes"/>
			<point x="203" y="641.333"/>
			<point x="166.667" y="587"/>
			<point x="151.625" y="520.825" type="curve" smooth="yes"/>
			<point x="145.667" y="495"/>
			<point x="135.333" y="484.667"/>
			<point x="117.437" y="484.667" type="curve" smooth="yes"/>
			<point x="93.6667" y="484.667"/>
			<point x="51.3333" y="502.667"/>
			<point x="51.3333" y="541.223" type="curve" smooth="yes"/>
			<point x="51.3333" y="603.333"/>
			<point x="132.667" y="680"/>
			<point x="269.405" y="680" type="curve" smooth="yes"/>
			<point x="380.333" y="680"/>
			<point x="474.333" y="630.667"/>
			<point x="474.333" y="501.659" type="curve" smooth="yes"/>
			<point x="474.333" y="389.333"/>
			<point x="403" y="335"/>
			<point x="300.333" y="267.667" type="curve" smooth="yes"/>
			<point x="201.333" y="203.333"/>
			<point x="151" y="137.333"/>
			<point x="135" y="91" type="curve"/>
			<point x="390.667" y="91" type="line" smooth="yes"/>
			<point x="431.333" y="91"/>
			<point x="449" y="98"/>
			<point x="472.667" y="151.333" type="curve"/>
			<point x="503" y="146.333" type="line"/>
			<point x="467" y="0" type="line"/>
			<point x="39.3333" y="0" type="line"/>
		</contour>
	</outline>
</glyph>
<glyph name="three" format="2">
	<unicode hex="0033"/>
	<advance width="540"/>
	<outline>
		<contour>
			<point x="26.3333" y="111.473" type="curve" smooth="yes"/>
			<point x="26.3333" y="147.236"/>
			<point x="65.6667" y="168.942"/>
			<point x="88.779" y="168.942" type="curve" smooth="yes"/>
			<point x="106.667" y="168.942"/>
			<point x="118.333" y="157.59"/>
			<point x="126.003" y="134.528" type="curve" smooth="yes"/>
			<point x="146.333" y="71.1026"/>
			<point x="187" y="26.6667"/>
			<point x="250.323" y="26.6667" type="curve" smooth="yes"/>
			<point x="313.667" y="26.6667"/>
			<point x="364.333" y="72.0862"/>
			<point x="364.333" y="184.997" type="curve" smooth="yes"/>
			<point x="364.333" y="284.175"/>
			<point x="315" y="343"/>
			<point x="241.667" y="343" type="curve" smooth="yes"/>
			<point x="196.333" y="343"/>
			<point x="167" y="331.646"/>
			<point x="152.283" y="331.646" type="curve" smooth="yes"/>
			<point x="136" y="331.646"/>
			<point x="130" y="344.981"/>
			<point x="130" y="363.667" type="curve" smooth="yes"/>
			<point x="130" y="383.333"/>
			<point x="136" y="395.667"/>
			<point x="152.181" y="395.667" type="curve" smooth="yes"/>
			<point x="167" y="395.667"/>
			<point x="197" y="384.333"/>
			<point x="239.225" y="384.333" type="curve" smooth="yes"/>
			<point x="322.667" y="384.333"/>
			<point x="338.667" y="466.333"/>
			<point x="338.667" y="517.537" type="curve" smooth="yes"/>
			<point x="338.667" y="569.333"/>
			<point x="322.667" y="641.333"/>
			<point x="251.519" y="641.333" type="curve" smooth="yes"/>
			<point x="196.333" y="641.333"/>
			<point x="162.333" y="598.333"/>
			<point x="140.333" y="528.333" type="curve" smooth="yes"/>
			<point x="135.333" y="512.333"/>
			<point x="125.667" y="503.333"/>
			<point x="111.298" y="503.333" type="curve" smooth="yes"/>
			<point x="92.3333" y="503.333"/>
			<point x="51" y="520.667"/>
			<point x="51" y="558.326" type="curve" smooth="yes"/>
			<point x="51" y="610"/>
			<point x="127.333" y="680"/>
			<point x="258.223" y="680" type="curve" smooth="yes"/>
			<point x="360.395" y="680"/>
			<point x="459.667" y="636.667"/>
			<point x="459.667" y="523.824" type="curve" smooth="yes"/>
			<point x="459.667" y="418"/>
			<point x="372.728" y="380.722"/>
			<point x="318.667" y="370.222" type="curve"/>
			<point x="318.667" y="366.296" type="line"/>
			<point x="368.42" y="361.056"/>
			<point x="488.333" y="324.949"/>
			<point x="488.333" y="184.024" type="curve" smooth="yes"/>
			<point x="488.333" y="59.7446"/>
			<point x="395.333" y="-12"/>
			<point x="246.269" y="-12" type="curve" smooth="yes"/>
			<point x="89.3333" y="-12"/>
			<point x="26.3333" y="66.4072"/>
		</contour>
	</outline>
</glyph>
<glyph name="five" format="2">
	<unicode hex="0035"/>
	<advance width="540"/>
	<outline>
		<contour>
			<point x="41" y="109.333" type="curve" smooth="yes"/>
			<point x="41" y="144.333"/>
			<point x="77.6667" y="167.333"/>
			<point x="102.333" y="167.333" type="curve" smooth="yes"/>
			<point x="120.333" y="167.333"/>
			<point x="131" y="156"/>
			<point x="136.667" y="138.667" type="curve" smooth="yes"/>
			<point x="159.667" y="71.3333"/>
			<point x="193.667" y="26.6667"/>
			<point x="255" y="26.6667" type="curve" smooth="yes"/>
			<point x="333.667" y="26.6667"/>
			<point x="370.667" y="100.333"/>
			<point x="370.667" y="199.667" type="curve" smooth="yes"/>
			<point x="370.667" y="329.333"/>
			<point x="307.667" y="377.333"/>
			<point x="237.667" y="377.333" type="curve" smooth="yes"/>
			<point x="190" y="377.333"/>
			<point x="149.333" y="355.333"/>
			<point x="108.333" y="307.333" type="curve"/>
			<point x="78.6667" y="325.333" type="line"/>
			<point x="98.6667" y="659" type="line"/>
			<point x="108" y="668" type="line"/>
			<point x="458.333" y="668" type="line"/>
			<point x="465" y="658" type="line"/>
			<point x="436" y="577" type="line"/>
			<point x="181.333" y="577" type="line" smooth="yes"/>
			<point x="159.667" y="577"/>
			<point x="154" y="572.667"/>
			<point x="150.333" y="544.667" type="curve" smooth="yes"/>
			<point x="128" y="376" type="line"/>
			<point x="130" y="374" type="line"/>
			<point x="164.333" y="402.333"/>
			<point x="221.667" y="428.333"/>
			<point x="287" y="428.333" type="curve" smooth="yes"/>
			<point x="420" y="428.333"/>
			<point x="493" y="338.333"/>
			<point x="493" y="214" type="curve" smooth="yes"/>
			<point x="493" y="89.6667"/>
			<point x="421.333" y="-12"/>
			<point x="251" y="-12" type="curve" smooth="yes"/>
			<point x="103.333" y="-12"/>
			<point x="41" y="65.3333"/>
		</contour>
	</outline>
</glyph>
<glyph name="six" format="2">
	<unicode hex="0036"/>
	<advance width="540"/>
	<outline>
		<contour>
			<point x="39.3333" y="313.907" type="curve" smooth="yes"/>
			<point x="39.3333" y="541.332"/>
			<point x="126.314" y="680"/>
			<point x="303.081" y="680" type="curve" smooth="yes"/>
			<point x="427.527" y="680"/>
			<point x="480.2" y="611.333"/>
			<point x="480.2" y="569.911" type="curve" smooth="yes"/>
			<point x="480.2" y="535.333"/>
			<point x="443.407" y="517.667"/>
			<point x="420.22" y="517.667" type="curve" smooth="yes"/>
			<point x="402.653" y="517.667"/>
			<point x="391.953" y="528.333"/>
			<point x="388.262" y="542" type="curve" smooth="yes"/>
			<point x="372.114" y="602"/>
			<point x="341.483" y="641.333"/>
			<point x="291.224" y="641.333" type="curve" smooth="yes"/>
			<point x="213.061" y="641.333"/>
			<point x="156.664" y="544.984"/>
			<point x="156.667" y="340" type="curve"/>
			<point x="158.67" y="339.807" type="line"/>
			<point x="190.522" y="377.213"/>
			<point x="244.708" y="424.667"/>
			<point x="325.498" y="424.667" type="curve" smooth="yes"/>
			<point x="425.227" y="424.667"/>
			<point x="511.667" y="353"/>
			<point x="511.667" y="215.001" type="curve" smooth="yes"/>
			<point x="511.667" y="85.3333"/>
			<point x="435.527" y="-12"/>
			<point x="281.408" y="-12" type="curve" smooth="yes"/>
			<point x="113.667" y="-12"/>
			<point x="39.3333" y="103.333"/>
		</contour>
		<contour>
			<point x="156.667" y="235.333" type="curve" smooth="yes"/>
			<point x="156.667" y="119.333"/>
			<point x="195.383" y="26.6667"/>
			<point x="282.172" y="26.6667" type="curve" smooth="yes"/>
			<point x="357.967" y="26.6667"/>
			<point x="394.333" y="97.3333"/>
			<point x="394.333" y="192.008" type="curve" smooth="yes"/>
			<point x="394.333" y="311.333"/>
			<point x="337.101" y="363.333"/>
			<point x="271.992" y="363.333" type="curve" smooth="yes"/>
			<point x="198.412" y="363.333"/>
			<point x="156.667" y="295.667"/>
		</contour>
	</outline>
</glyph>
<glyph name="seven" format="2">
	<unicode hex="0037"/>
	<advance width="540"/>
	<outline>
		<contour>
			<point x="38.6667" y="518.333" type="line"/>
			<point x="73.6667" y="668" type="line"/>
			<point x="498.333" y="668" type="line"/>
			<point x="508.667" y="656.667" type="line"/>
			<point x="485.259" y="569.224"/>
			<point x="438.812" y="477.946"/>
			<point x="357.333" y="355.667" type="curve" smooth="yes"/>
			<point x="294.791" y="261.532"/>
			<point x="285" y="157.004"/>
			<point x="285" y="33" type="curve" smooth="yes"/>
			<point x="285" y="-3.33636"/>
			<point x="257.739" y="-12"/>
			<point x="224.266" y="-12" type="curve" smooth="yes"/>
			<point x="191.967" y="-12"/>
			<point x="162.333" y="-4"/>
			<point x="162.333" y="39.7611" type="curve" smooth="yes"/>
			<point x="162.333" y="144"/>
			<point x="220.412" y="253"/>
			<point x="301.796" y="363.409" type="curve" smooth="yes"/>
			<point x="386" y="478"/>
			<point x="406" y="542"/>
			<point x="416" y="577" type="curve"/>
			<point x="148" y="577" type="line" smooth="yes"/>
			<point x="103.667" y="577"/>
			<point x="91" y="561.667"/>
			<point x="78.3333" y="535.333" type="curve" smooth="yes"/>
			<point x="68.3333" y="515" type="line"/>
		</contour>
	</outline>
</glyph>
<glyph name="less" format="2">
	<unicode hex="003C"/>
	<advance width="580"/>
	<outline>
		<contour>
			<point x="51" y="208.667" type="line"/>
			<point x="51" y="289.667" type="line"/>
			<point x="529" y="497" type="line"/>
			<point x="529" y="420.667" type="line"/>
			<point x="122.667" y="249.333" type="line"/>
			<point x="529" y="78.3333" type="line"/>
			<point x="529" y="2.33333" type="line"/>
		</contour>
	</outline>
</glyph>
<glyph name="equal" format="2">
	<unicode hex="003D"/>
	<advance width="580"/>
	<outline>
		<contour>
			<point x="48" y="108.333" type="line"/>
			<point x="48" y="173.667" type="line"/>
			<point x="532" y="173.667" type="line"/>
			<point x="532" y="108.333" type="line"/>
		</contour>
		<contour>
			<point x="48" y="326.333" type="line"/>
			<point x="48" y="391.667" type="line"/>
			<point x="532" y="391.667" type="line"/>
			<point x="532" y="326.333" type="line"/>
		</contour>
	</outline>
</glyph>
<glyph name="question" format="2">
	<unicode hex="003F"/>
	<advance width="411"/>
	<outline>
		<contour>
			<point x="26" y="586.052" type="curve" smooth="yes"/>
			<point x="26" y="626.667"/>
			<point x="75.3333" y="707"/>
			<point x="208.349" y="707" type="curve" smooth="yes"/>
			<point x="309.333" y="707"/>
			<point x="383.667" y="660.999"/>
			<point x="383.667" y="568.784" type="curve" smooth="yes"/>
			<point x="383.667" y="503.485"/>
			<point x="361.402" y="480.747"/>
			<point x="286.169" y="433.468" type="curve" smooth="yes"/>
			<point x="234.439" y="400.797"/>
			<point x="209.333" y="365.667"/>
			<point x="209.333" y="327.516" type="curve" smooth="yes"/>
			<point x="209.333" y="279.667"/>
			<point x="248.667" y="260"/>
			<point x="279.86" y="260" type="curve" smooth="yes"/>
			<point x="290.667" y="260"/>
			<point x="303" y="262.333"/>
			<point x="311.333" y="264.667" type="curve"/>
			<point x="320.333" y="242.333" type="line"/>
			<point x="289" y="218.667"/>
			<point x="245.667" y="207.333"/>
			<point x="209.904" y="207.333" type="curve" smooth="yes"/>
			<point x="146" y="207.333"/>
			<point x="88.6667" y="241.333"/>
			<point x="88.6667" y="308.316" type="curve" smooth="yes"/>
			<point x="88.6667" y="347"/>
			<point x="107.071" y="376.792"/>
			<point x="171.333" y="421" type="curve" smooth="yes"/>
			<point x="240.788" y="468.855"/>
			<point x="261.74" y="509.626"/>
			<point x="261.986" y="572" type="curve" smooth="yes"/>
			<point x="262.21" y="629"/>
			<point x="245" y="668.333"/>
			<point x="205.299" y="668.333" type="curve" smooth="yes"/>
			<point x="170.333" y="668.333"/>
			<point x="145" y="638"/>
			<point x="129" y="560.333" type="curve" smooth="yes"/>
			<point x="125" y="540.667"/>
			<point x="110.333" y="532"/>
			<point x="92.2177" y="532" type="curve" smooth="yes"/>
			<point x="67.3333" y="532"/>
			<point x="26" y="548.333"/>
		</contour>
		<contour>
			<point x="129" y="60.3333" type="curve" smooth="yes"/>
			<point x="129" y="103.333"/>
			<point x="159" y="133.333"/>
			<point x="201.333" y="133.333" type="curve" smooth="yes"/>
			<point x="243.667" y="133.333"/>
			<point x="273.667" y="103.333"/>
			<point x="273.667" y="60.3333" type="curve" smooth="yes"/>
			<point x="273.667" y="18"/>
			<point x="243.667" y="-12"/>
			<point x="201.333" y="-12" type="curve" smooth="yes"/>
			<point x="159" y="-12"/>
			<point x="129" y="18"/>
		</contour>
	</outline>
</glyph>
<glyph name="B" format="2">
	<unicode hex="0042"/>
	<advance width="658"/>
	<outline>
		<contour>
			<point x="34.3333" y="0" type="line"/>
			<point x="34.3333" y="32" type="line"/>
			<point x="116.667" y="37"/>
			<point x="120.667" y="40"/>
			<point x="120.667" y="94.3333" type="curve" smooth="yes"/>
			<point x="120.667" y="597.667" type="line" smooth="yes"/>
			<point x="120.667" y="652"/>
			<point x="116.667" y="655"/>
			<point x="34.3333" y="660" type="curve"/>
			<point x="34.3333" y="692" type="line"/>
			<point x="337" y="692" type="line" smooth="yes"/>
			<point x="463.456" y="692"/>
			<point x="581.333" y="664.073"/>
			<point x="581.333" y="537.422" type="curve" smooth="yes"/>
			<point x="581.333" y="452"/>
			<point x="528" y="396"/>
			<point x="432.667" y="376.333" type="curve"/>
			<point x="432.667" y="374.333" type="line"/>
			<point x="528.333" y="361"/>
			<point x="611.667" y="308"/>
			<point x="611.667" y="186.397" type="curve" smooth="yes"/>
			<point x="611.667" y="44.7987"/>
			<point x="497.151" y="0"/>
			<point x="351" y="0" type="curve" smooth="yes"/>
		</contour>
		<contour>
			<point x="240" y="111.667" type="line" smooth="yes"/>
			<point x="240" y="54"/>
			<point x="258" y="38.6667"/>
			<point x="327.469" y="38.6667" type="curve" smooth="yes"/>
			<point x="408.667" y="38.6667"/>
			<point x="482" y="71.6667"/>
			<point x="482" y="183.75" type="curve" smooth="yes"/>
			<point x="482" y="286"/>
			<point x="421" y="351"/>
			<point x="305" y="351" type="curve" smooth="yes"/>
			<point x="240" y="351" type="line"/>
		</contour>
		<contour>
			<point x="240" y="389.667" type="line"/>
			<point x="301" y="389.667" type="line" smooth="yes"/>
			<point x="402.333" y="389.667"/>
			<point x="457.333" y="434"/>
			<point x="457.333" y="522.334" type="curve" smooth="yes"/>
			<point x="457.333" y="617.667"/>
			<point x="392" y="653.333"/>
			<point x="313.333" y="653.333" type="curve" smooth="yes"/>
			<point x="248" y="653.333"/>
			<point x="240" y="647.667"/>
			<point x="240" y="607.667" type="curve" smooth="yes"/>
		</contour>
	</outline>
</glyph>
<glyph name="D" format="2">
	<unicode hex="0044"/>
	<advance width="778"/>
	<outline>
		<contour>
			<point x="34.3333" y="0" type="line"/>
			<point x="34.3333" y="32" type="line"/>
			<point x="116.667" y="37"/>
			<point x="120.667" y="40"/>
			<point x="120.667" y="94.3333" type="curve" smooth="yes"/>
			<point x="120.667" y="597.667" type="line" smooth="yes"/>
			<point x="120.667" y="652"/>
			<point x="116.667" y="655"/>
			<point x="34.3333" y="660" type="curve"/>
			<point x="34.3333" y="692" type="line"/>
			<point x="370" y="692" type="line" smooth="yes"/>
			<point x="641" y="692"/>
			<point x="732.333" y="545.667"/>
			<point x="732.333" y="353" type="curve" smooth="yes"/>
			<point x="732.333" y="126.333"/>
			<point x="598.667" y="0"/>
			<point x="342" y="0" type="curve" smooth="yes"/>
		</contour>
		<contour>
			<point x="240" y="113.333" type="line" smooth="yes"/>
			<point x="240" y="50"/>
			<point x="257" y="38.6667"/>
			<point x="333.667" y="38.6667" type="curve" smooth="yes"/>
			<point x="480.667" y="38.6667"/>
			<point x="598.667" y="97.6667"/>
			<point x="598.667" y="347" type="curve" smooth="yes"/>
			<point x="598.667" y="530.667"/>
			<point x="531" y="653.333"/>
			<point x="345" y="653.333" type="curve" smooth="yes"/>
			<point x="252.667" y="653.333"/>
			<point x="240" y="648.333"/>
			<point x="240" y="606" type="curve" smooth="yes"/>
		</contour>
	</outline>
</glyph>
<glyph name="E" format="2">
	<unicode hex="0045"/>
	<advance width="614"/>
	<outline>
		<contour>
			<point x="34.3333" y="0" type="line"/>
			<point x="34.3333" y="32" type="line"/>
			<point x="116.667" y="37"/>
			<point x="120.667" y="40"/>
			<point x="120.667" y="94.3333" type="curve" smooth="yes"/>
			<point x="120.667" y="597.667" type="line" smooth="yes"/>
			<point x="120.667" y="652"/>
			<point x="116.667" y="655"/>
			<point x="34.3333" y="660" type="curve"/>
			<point x="34.3333" y="692" type="line"/>
			<point x="550.667" y="692" type="line"/>
			<point x="550.667" y="521" type="line"/>
			<point x="518" y="521" type="line"/>
			<point x="498.333" y="623.333"/>
			<point x="477" y="653.333"/>
			<point x="366.667" y="653.333" type="curve" smooth="yes"/>
			<point x="276.333" y="653.333" type="line" smooth="yes"/>
			<point x="245.667" y="653.333"/>
			<point x="240" y="648.333"/>
			<point x="240" y="617.333" type="curve" smooth="yes"/>
			<point x="240" y="382.333" type="line"/>
			<point x="365" y="382.333" type="line" smooth="yes"/>
			<point x="442.667" y="382.333"/>
			<point x="449.667" y="404"/>
			<point x="461" y="469.667" type="curve"/>
			<point x="493.667" y="469.667" type="line"/>
			<point x="493.667" y="251.667" type="line"/>
			<point x="461" y="251.667" type="line"/>
			<point x="449.667" y="318"/>
			<point x="442.667" y="339.667"/>
			<point x="365" y="339.667" type="curve" smooth="yes"/>
			<point x="240" y="339.667" type="line"/>
			<point x="240" y="119.667" type="line" smooth="yes"/>
			<point x="240" y="49"/>
			<point x="277" y="38.6667"/>
			<point x="372.333" y="38.6667" type="curve" smooth="yes"/>
			<point x="490" y="38.6667"/>
			<point x="526" y="67.6667"/>
			<point x="553.333" y="184.667" type="curve"/>
			<point x="586" y="184.667" type="line"/>
			<point x="574" y="0" type="line"/>
		</contour>
	</outline>
	<anchor name="ogonek" x="479.333" y="10"/>
	<anchor name="tonos" x="-0.666667" y="705.333"/>
</glyph>
<glyph name="K" format="2">
	<unicode hex="004B"/>
	<advance width="674"/>
	<outline>
		<contour>
			<point x="240" y="361.667" type="line"/>
			<point x="313.333" y="440"/>
			<point x="413.642" y="547.736"/>
			<point x="475.667" y="620.667" type="curve" smooth="yes"/>
			<point x="484.98" y="631.409"/>
			<point x="489" y="639.333"/>
			<point x="489" y="645" type="curve" smooth="yes"/>
			<point x="489" y="651.667"/>
			<point x="483.329" y="655.66"/>
			<point x="473" y="656.667" type="curve" smooth="yes"/>
			<point x="433.667" y="660.667" type="line"/>
			<point x="433.667" y="692" type="line"/>
			<point x="686.333" y="692" type="line"/>
			<point x="686.333" y="660.667" type="line"/>
			<point x="609.333" y="655.667"/>
			<point x="589.566" y="645.396"/>
			<point x="544.333" y="606.333" type="curve" smooth="yes"/>
			<point x="480.565" y="551.728"/>
			<point x="410" y="481.333"/>
			<point x="340.333" y="405.667" type="curve"/>
			<point x="390.333" y="328.667"/>
			<point x="586.667" y="47"/>
			<point x="684.333" y="23.3333" type="curve"/>
			<point x="684.333" y="-5" type="line"/>
			<point x="619.667" y="-3" type="line" smooth="yes"/>
			<point x="539.332" y="-1.03167"/>
			<point x="486.476" y="22.4579"/>
			<point x="424" y="96" type="curve" smooth="yes"/>
			<point x="354.143" y="177.125"/>
			<point x="298" y="259.667"/>
			<point x="242" y="351" type="curve"/>
			<point x="240" y="351" type="line"/>
		</contour>
		<contour>
			<point x="34.3333" y="0" type="line"/>
			<point x="34.3333" y="32" type="line"/>
			<point x="116.667" y="37"/>
			<point x="120.667" y="40"/>
			<point x="120.667" y="94.3333" type="curve" smooth="yes"/>
			<point x="120.667" y="597.667" type="line" smooth="yes"/>
			<point x="120.667" y="652"/>
			<point x="116.667" y="655"/>
			<point x="34.3333" y="660" type="curve"/>
			<point x="34.3333" y="692" type="line"/>
			<point x="326.333" y="692" type="line"/>
			<point x="326.333" y="660" type="line"/>
			<point x="244.667" y="655"/>
			<point x="240" y="652"/>
			<point x="240" y="597.667" type="curve" smooth="yes"/>
			<point x="240" y="94.3333" type="line" smooth="yes"/>
			<point x="240" y="40"/>
			<point x="244.667" y="37"/>
			<point x="326.333" y="32" type="curve"/>
			<point x="326.333" y="0" type="line"/>
		</contour>
	</outline>
</glyph>
<glyph name="L" format="2">
	<unicode hex="004C"/>
	<advance width="574"/>
	<outline>
		<contour>
			<point x="34.3333" y="0" type="line"/>
			<point x="34.3333" y="32" type="line"/>
			<point x="116.667" y="37"/>
			<point x="120.667" y="40"/>
			<point x="120.667" y="94.3333" type="curve" smooth="yes"/>
			<point x="120.667" y="597.667" type="line" smooth="yes"/>
			<point x="120.667" y="652"/>
			<point x="116.667" y="655"/>
			<point x="34.3333" y="660" type="curve"/>
			<point x="34.3333" y="692" type="line"/>
			<point x="334.333" y="692" type="line"/>
			<point x="334.333" y="660" type="line"/>
			<point x="244.667" y="655"/>
			<point x="240" y="652"/>
			<point x="240" y="597.667" type="curve" smooth="yes"/>
			<point x="240" y="119.667" type="line" smooth="yes"/>
			<point x="240" y="45"/>
			<point x="276.333" y="38.6667"/>
			<point x="365" y="38.6667" type="curve" smooth="yes"/>
			<point x="471" y="38.6667"/>
			<point x="514" y="65.6667"/>
			<point x="539.333" y="186.333" type="curve"/>
			<point x="572" y="186.333" type="line"/>
			<point x="560" y="0" type="line"/>
		</contour>
	</outline>
	<anchor name="dot" x="379.667" y="383"/>
	<anchor name="quote" x="511" y="742"/>
</glyph>
<glyph name="O" format="2">
	<unicode hex="004F"/>
	<advance width="764"/>
	<outline>
		<contour>
			<point x="46" y="346" type="curve" smooth="yes"/>
			<point x="46" y="564.667"/>
			<point x="156" y="707"/>
			<point x="382" y="707" type="curve" smooth="yes"/>
			<point x="608" y="707"/>
			<point x="718" y="564.667"/>
			<point x="718" y="346" type="curve" smooth="yes"/>
			<point x="718" y="127.333"/>
			<point x="608" y="-15"/>
			<point x="382" y="-15" type="curve" smooth="yes"/>
			<point x="156" y="-15"/>
			<point x="46" y="127.333"/>
		</contour>
		<contour>
			<point x="179.667" y="347" type="curve" smooth="yes"/>
			<point x="179.667" y="207.667"/>
			<point x="215" y="23.6667"/>
			<point x="382" y="23.6667" type="curve" smooth="yes"/>
			<point x="549.667" y="23.6667"/>
			<point x="584.333" y="207.667"/>
			<point x="584.333" y="346" type="curve" smooth="yes"/>
			<point x="584.333" y="484.333"/>
			<point x="549.667" y="668.333"/>
			<point x="382" y="668.333" type="curve" smooth="yes"/>
			<point x="214.333" y="668.333"/>
			<point x="179.667" y="484.333"/>
		</contour>
	</outline>
	<anchor name="tonos" x="56.6667" y="702"/>
</glyph>
<glyph name="P" format="2">
	<unicode hex="0050"/>
	<advance width="617"/>
	<outline>
		<contour>
			<point x="34.3333" y="0" type="line"/>
			<point x="34.3333" y="32" type="line"/>
			<point x="116.667" y="37"/>
			<point x="120.667" y="40"/>
			<point x="120.667" y="94.3333" type="curve" smooth="yes"/>
			<point x="120.667" y="597.667" type="line" smooth="yes"/>
			<point x="120.667" y="652"/>
			<point x="116.667" y="655"/>
			<point x="34.3333" y="660" type="curve"/>
			<point x="34.3333" y="692" type="line"/>
			<point x="323.667" y="692" type="line" smooth="yes"/>
			<point x="459" y="692"/>
			<point x="590.333" y="655.333"/>
			<point x="590.333" y="493.667" type="curve" smooth="yes"/>
			<point x="590.333" y="321"/>
			<point x="439.667" y="281"/>
			<point x="298" y="281" type="curve" smooth="yes"/>
			<point x="240" y="281" type="line"/>
			<point x="240" y="94.3333" type="line" smooth="yes"/>
			<point x="240" y="40"/>
			<point x="244.667" y="37"/>
			<point x="342.667" y="32" type="curve"/>
			<point x="342.667" y="0" type="line"/>
		</contour>
		<contour>
			<point x="240" y="360" type="line" smooth="yes"/>
			<point x="240" y="322.667"/>
			<point x="255.667" y="319.667"/>
			<point x="308" y="319.667" type="curve" smooth="yes"/>
			<point x="399" y="319.667"/>
			<point x="462.333" y="379.333"/>
			<point x="462.333" y="488" type="curve" smooth="yes"/>
			<point x="462.333" y="599"/>
			<point x="401.333" y="653.333"/>
			<point x="310.333" y="653.333" type="curve" smooth="yes"/>
			<point x="250" y="653.333"/>
			<point x="240" y="644.333"/>
			<point x="240" y="616.333" type="curve" smooth="yes"/>
		</contour>
	</outline>
	<anchor name="tonos" x="-4" y="702"/>
</glyph>
<glyph name="S" format="2">
	<unicode hex="0053"/>
	<advance width="548"/>
	<outline>
		<contour>
			<point x="47.3333" y="212" type="line"/>
			<point x="81" y="212" type="line"/>
			<point x="110.333" y="95.6667"/>
			<point x="177" y="23.6667"/>
			<point x="270" y="23.6667" type="curve" smooth="yes"/>
			<point x="344.333" y="23.6667"/>
			<point x="397.333" y="70"/>
			<point x="397.333" y="151.333" type="curve" smooth="yes"/>
			<point x="397.333" y="232.667"/>
			<point x="320.667" y="278.333"/>
			<point x="261.333" y="302.333" type="curve" smooth="yes"/>
			<point x="241.667" y="310.333" type="line" smooth="yes"/>
			<point x="145.333" y="349.333"/>
			<point x="57.6667" y="402.333"/>
			<point x="57.6667" y="516" type="curve" smooth="yes"/>
			<point x="57.6667" y="637.333"/>
			<point x="156.667" y="707"/>
			<point x="294" y="707" type="curve" smooth="yes"/>
			<point x="358" y="707"/>
			<point x="428" y="691.667"/>
			<point x="469" y="663" type="curve"/>
			<point x="469" y="514.333" type="line"/>
			<point x="435.333" y="514.333" type="line"/>
			<point x="415.333" y="620.667"/>
			<point x="363.333" y="668.333"/>
			<point x="287.333" y="668.333" type="curve" smooth="yes"/>
			<point x="210.333" y="668.333"/>
			<point x="166.333" y="619"/>
			<point x="166.333" y="551" type="curve" smooth="yes"/>
			<point x="166.333" y="486.667"/>
			<point x="226.333" y="446"/>
			<point x="290.667" y="420.667" type="curve" smooth="yes"/>
			<point x="318.333" y="410" type="line" smooth="yes"/>
			<point x="426" y="368.667"/>
			<point x="513.667" y="314.333"/>
			<point x="513.667" y="194.333" type="curve" smooth="yes"/>
			<point x="513.667" y="89"/>
			<point x="446.333" y="-15"/>
			<point x="267" y="-15" type="curve" smooth="yes"/>
			<point x="193.667" y="-15"/>
			<point x="105.333" y="2.66667"/>
			<point x="59" y="45.6667" type="curve"/>
		</contour>
	</outline>
	<anchor name="cedilla" x="269.333" y="3.33333"/>
</glyph>
<glyph name="underscore" format="2">
	<unicode hex="005F"/>
	<advance width="500"/>
	<outline>
		<contour>
			<point x="0" y="-68.3333" type="line"/>
			<point x="500" y="-68.3333" type="line"/>
			<point x="500" y="-135" type="line"/>
			<point x="0" y="-135" type="line"/>
		</contour>
	</outline>
</glyph>
<glyph name="f" format="2">
	<unicode hex="0066"/>
	<advance width="327"/>
	<outline>
		<contour>
			<point x="30.3333" y="0" type="line"/>
			<point x="30.3333" y="32" type="line"/>
			<point x="97.3333" y="36.3333"/>
			<point x="102" y="39"/>
			<point x="102" y="87" type="curve" smooth="yes"/>
			<point x="102" y="446.667" type="line"/>
			<point x="29.6667" y="446.667" type="line"/>
			<point x="29.6667" y="490" type="line"/>
			<point x="330.667" y="490" type="line"/>
			<point x="330.667" y="446.667" type="line"/>
			<point x="215" y="446.667" type="line"/>
			<point x="215" y="86.3333" type="line" smooth="yes"/>
			<point x="215" y="38.3333"/>
			<point x="220.333" y="35.6667"/>
			<point x="304.667" y="32" type="curve"/>
			<point x="304.667" y="0" type="line"/>
		</contour>
		<contour>
			<point x="102" y="490" type="line"/>
			<point x="102" y="527.667" type="line" smooth="yes"/>
			<point x="102" y="646"/>
			<point x="144.667" y="742"/>
			<point x="271" y="742" type="curve" smooth="yes"/>
			<point x="359" y="742"/>
			<point x="399.667" y="696.667"/>
			<point x="399.667" y="662.667" type="curve" smooth="yes"/>
			<point x="399.667" y="631.333"/>
			<point x="366.667" y="612"/>
			<point x="341.667" y="612" type="curve" smooth="yes"/>
			<point x="324.667" y="612"/>
			<point x="314.578" y="620.298"/>
			<point x="309.667" y="633.333" type="curve" smooth="yes"/>
			<point x="286.911" y="691.632"/>
			<point x="264.333" y="703.333"/>
			<point x="246" y="703.333" type="curve" smooth="yes"/>
			<point x="215.667" y="703.333"/>
			<point x="199" y="672.333"/>
			<point x="199" y="630" type="curve" smooth="yes"/>
			<point x="199" y="602.667"/>
			<point x="202.192" y="575.025"/>
			<point x="206" y="550.667" type="curve" smooth="yes"/>
			<point x="215" y="490" type="line"/>
		</contour>
	</outline>
</glyph>
<glyph name="cent" format="2">
	<unicode hex="00A2"/>
	<advance width="540"/>
	<outline>
		<contour>
			<point x="37.6667" y="338.333" type="curve" smooth="yes"/>
			<point x="37.6667" y="500.333"/>
			<point x="121.333" y="593.667"/>
			<point x="272" y="599" type="curve"/>
			<point x="272" y="676" type="line"/>
			<point x="317.333" y="676" type="line"/>
			<point x="317.333" y="599" type="line"/>
			<point x="418" y="599"/>
			<point x="499.667" y="553.667"/>
			<point x="499.667" y="500.333" type="curve" smooth="yes"/>
			<point x="499.667" y="469.667"/>
			<point x="473.333" y="447.333"/>
			<point x="442" y="447.333" type="curve" smooth="yes"/>
			<point x="422" y="447.333"/>
			<point x="412" y="456.333"/>
			<point x="401" y="484.667" type="curve" smooth="yes"/>
			<point x="382" y="533"/>
			<point x="353.667" y="557.333"/>
			<point x="317.333" y="560.333" type="curve"/>
			<point x="317.333" y="140" type="line"/>
			<point x="391" y="140"/>
			<point x="440" y="169.333"/>
			<point x="477" y="235" type="curve"/>
			<point x="506.667" y="217" type="line"/>
			<point x="475.333" y="137"/>
			<point x="403" y="87"/>
			<point x="317.333" y="87" type="curve"/>
			<point x="317.333" y="-11.6667" type="line"/>
			<point x="272" y="-11.6667" type="line"/>
			<point x="272" y="87" type="line"/>
			<point x="120.667" y="87"/>
			<point x="37.6667" y="176"/>
		</contour>
		<contour>
			<point x="154" y="357" type="curve" smooth="yes"/>
			<point x="154" y="235.333"/>
			<point x="194.667" y="160.667"/>
			<point x="272" y="143.333" type="curve"/>
			<point x="272" y="560.333" type="line"/>
			<point x="197" y="553.667"/>
			<point x="154" y="482"/>
		</contour>
	</outline>
</glyph>
<glyph name="dieresis" format="2">
	<unicode hex="00A8"/>
	<advance width="410"/>
	<outline>
		<contour>
			<point x="29.3333" y="629.667" type="curve" smooth="yes"/>
			<point x="29.3333" y="661.667"/>
			<point x="52.6667" y="692"/>
			<point x="95.6667" y="692" type="curve" smooth="yes"/>
			<point x="138.667" y="692"/>
			<point x="162" y="661.667"/>
			<point x="162" y="629.667" type="curve" smooth="yes"/>
			<point x="162" y="597.667"/>
			<point x="138.667" y="566.667"/>
			<point x="95.6667" y="566.667" type="curve" smooth="yes"/>
			<point x="52.6667" y="566.667"/>
			<point x="29.3333" y="597.667"/>
		</contour>
		<contour>
			<point x="248" y="629.667" type="curve" smooth="yes"/>
			<point x="248" y="661.667"/>
			<point x="271.333" y="692"/>
			<point x="314.333" y="692" type="curve" smooth="yes"/>
			<point x="357.333" y="692"/>
			<point x="380.667" y="661.667"/>
			<point x="380.667" y="629.667" type="curve" smooth="yes"/>
			<point x="380.667" y="597.667"/>
			<point x="357.333" y="566.667"/>
			<point x="314.333" y="566.667" type="curve" smooth="yes"/>
			<point x="271.333" y="566.667"/>
			<point x="248" y="597.667"/>
		</contour>
	</outline>
	<anchor name="top" x="206" y="726.667"/>
</glyph>
<glyph name="ordfeminine" format="2">
	<unicode hex="00AA"/>
	<advance width="395"/>
	<outline>
		<contour>
			<point x="36" y="355.21" type="curve" smooth="yes"/>
			<point x="36" y="389.588"/>
			<point x="53.5758" y="412.737"/>
			<point x="111.667" y="432.331" type="curve" smooth="yes"/>
			<point x="232.333" y="472.232" type="line"/>
			<point x="232.333" y="509.135" type="line" smooth="yes"/>
			<point x="232.333" y="545.7"/>
			<point x="209.333" y="558.667"/>
			<point x="187.553" y="558.667" type="curve" smooth="yes"/>
			<point x="168.333" y="558.667"/>
			<point x="143.333" y="549.028"/>
			<point x="128.559" y="508.68" type="curve" smooth="yes"/>
			<point x="122" y="490.827"/>
			<point x="113.333" y="478.196"/>
			<point x="96.3948" y="478.196" type="curve" smooth="yes"/>
			<point x="79" y="478.196"/>
			<point x="46.6667" y="491.163"/>
			<point x="46.6667" y="517.085" type="curve" smooth="yes"/>
			<point x="46.6667" y="553.02"/>
			<point x="109.333" y="590"/>
			<point x="200.99" y="590" type="curve" smooth="yes"/>
			<point x="306.333" y="590"/>
			<point x="315.667" y="542.043"/>
			<point x="315.667" y="504.466" type="curve" smooth="yes"/>
			<point x="315.667" y="357.858" type="line" smooth="yes"/>
			<point x="315.667" y="324.082"/>
			<point x="322.588" y="302.732"/>
			<point x="355.438" y="302.714" type="curve" smooth="yes"/>
			<point x="360.828" y="302.711"/>
			<point x="367.013" y="302.807"/>
			<point x="372" y="303.662" type="curve"/>
			<point x="374.333" y="284" type="line"/>
			<point x="349.149" y="274.034"/>
			<point x="316.072" y="265.667"/>
			<point x="289.057" y="265.667" type="curve" smooth="yes"/>
			<point x="253.667" y="265.667"/>
			<point x="241.619" y="280.143"/>
			<point x="233.333" y="302.99" type="curve"/>
			<point x="211.09" y="285.602"/>
			<point x="178" y="265"/>
			<point x="133.729" y="265" type="curve" smooth="yes"/>
			<point x="68.3333" y="265"/>
			<point x="36" y="308.316"/>
		</contour>
		<contour>
			<point x="128.667" y="363.706" type="curve" smooth="yes"/>
			<point x="128.667" y="329.595"/>
			<point x="149.667" y="306.333"/>
			<point x="179.917" y="306.333" type="curve" smooth="yes"/>
			<point x="203.333" y="306.333"/>
			<point x="231.667" y="320.29"/>
			<point x="232.333" y="362.499" type="curve"/>
			<point x="232.333" y="441.967" type="line"/>
			<point x="183.638" y="426.389" type="line" smooth="yes"/>
			<point x="147.571" y="414.814"/>
			<point x="128.667" y="395.285"/>
		</contour>
	</outline>
	<guideline x="0" y="590" angle="0"/>
	<guideline x="0" y="265" angle="0"/>
</glyph>
<glyph name="guillemotleft" format="2">
	<unicode hex="00AB"/>
	<advance width="457"/>
	<outline>
		<contour>
			<point x="43.6667" y="236.333" type="curve"/>
			<point x="41.7101" y="241.949"/>
			<point x="41.457" y="248.152"/>
			<point x="44.1237" y="252.942" type="curve"/>
			<point x="59.5728" y="273.801"/>
			<point x="125.814" y="354.652"/>
			<point x="147" y="380" type="curve"/>
			<point x="218.333" y="433.333" type="line"/>
			<point x="175.333" y="317.667" type="line"/>
			<point x="168.737" y="304.151"/>
			<point x="150.275" y="260.731"/>
			<point x="146.333" y="248.667" type="curve"/>
			<point x="145.462" y="242.751"/>
			<point x="145.622" y="236.834"/>
			<point x="147.622" y="230.775" type="curve"/>
			<point x="155.477" y="212.588"/>
			<point x="190.589" y="138.575"/>
			<point x="201.667" y="115.333" type="curve"/>
			<point x="214.667" y="46.6667" type="line"/>
			<point x="105" y="161" type="line"/>
			<point x="91.4949" y="176.418"/>
			<point x="53.8227" y="221.01"/>
		</contour>
		<contour>
			<point x="233.667" y="236.333" type="curve"/>
			<point x="231.71" y="241.949"/>
			<point x="231.457" y="248.152"/>
			<point x="234.124" y="252.942" type="curve"/>
			<point x="249.573" y="273.801"/>
			<point x="315.814" y="354.652"/>
			<point x="337" y="380" type="curve"/>
			<point x="408.333" y="433.333" type="line"/>
			<point x="365.333" y="317.667" type="line"/>
			<point x="358.737" y="304.151"/>
			<point x="340.275" y="260.731"/>
			<point x="336.333" y="248.667" type="curve"/>
			<point x="335.462" y="242.751"/>
			<point x="335.622" y="236.834"/>
			<point x="337.622" y="230.775" type="curve"/>
			<point x="345.477" y="212.588"/>
			<point x="380.589" y="138.575"/>
			<point x="391.667" y="115.333" type="curve"/>
			<point x="404.667" y="46.6667" type="line"/>
			<point x="295" y="161" type="line"/>
			<point x="281.495" y="176.418"/>
			<point x="243.823" y="221.01"/>
		</contour>
	</outline>
</glyph>
<glyph name="three.sups" format="2">
	<unicode hex="00B3"/>
	<advance width="380"/>
	<outline>
		<contour>
			<point x="32.3333" y="479.037" type="curve" smooth="yes"/>
			<point x="32.3333" y="508"/>
			<point x="60.6667" y="529.333"/>
			<point x="83.9272" y="529.333" type="curve" smooth="yes"/>
			<point x="99" y="529.333"/>
			<point x="107.515" y="519.95"/>
			<point x="113.904" y="500.319" type="curve" smooth="yes"/>
			<point x="129.182" y="453.614"/>
			<point x="155.333" y="432.333"/>
			<point x="186.326" y="432.333" type="curve" smooth="yes"/>
			<point x="219.333" y="432.333"/>
			<point x="247" y="457.333"/>
			<point x="247" y="517.243" type="curve" smooth="yes"/>
			<point x="247" y="594.333"/>
			<point x="202" y="603.333"/>
			<point x="177.88" y="603.333" type="curve" smooth="yes"/>
			<point x="154.667" y="603.333"/>
			<point x="134" y="594.667"/>
			<point x="123.333" y="594.667" type="curve" smooth="yes"/>
			<point x="109.667" y="594.667"/>
			<point x="104.667" y="606"/>
			<point x="104.667" y="620" type="curve" smooth="yes"/>
			<point x="104.667" y="634.667"/>
			<point x="109" y="646.636"/>
			<point x="123.333" y="646.636" type="curve" smooth="yes"/>
			<point x="134" y="646.636"/>
			<point x="155" y="638"/>
			<point x="175.713" y="638" type="curve" smooth="yes"/>
			<point x="223.333" y="638"/>
			<point x="233" y="682.157"/>
			<point x="233" y="713.496" type="curve" smooth="yes"/>
			<point x="233" y="741.221"/>
			<point x="224.333" y="784"/>
			<point x="183.556" y="784" type="curve" smooth="yes"/>
			<point x="153" y="784"/>
			<point x="136.508" y="757.746"/>
			<point x="124.333" y="712.998" type="curve" smooth="yes"/>
			<point x="119.841" y="696.679"/>
			<point x="110" y="690.411"/>
			<point x="95.8151" y="690.411" type="curve" smooth="yes"/>
			<point x="75.3333" y="690.411"/>
			<point x="47" y="704.332"/>
			<point x="47" y="732.812" type="curve" smooth="yes"/>
			<point x="47" y="771.737"/>
			<point x="99.6667" y="816"/>
			<point x="188.048" y="816" type="curve" smooth="yes"/>
			<point x="254" y="816"/>
			<point x="329.333" y="792.119"/>
			<point x="329.333" y="717.763" type="curve" smooth="yes"/>
			<point x="329.333" y="655.925"/>
			<point x="277" y="632.667"/>
			<point x="241.667" y="625.333" type="curve"/>
			<point x="241.667" y="623" type="line"/>
			<point x="281.667" y="619"/>
			<point x="347" y="590.333"/>
			<point x="347" y="515.346" type="curve" smooth="yes"/>
			<point x="347" y="447.333"/>
			<point x="293.333" y="401"/>
			<point x="182.895" y="401" type="curve" smooth="yes"/>
			<point x="99" y="401"/>
			<point x="32.3333" y="434"/>
		</contour>
	</outline>
	<guideline x="0" y="816" angle="0"/>
</glyph>
<glyph name="paragraph" format="2">
	<unicode hex="00B6"/>
	<advance width="554"/>
	<outline>
		<contour>
			<point x="54.3333" y="465.667" type="curve" smooth="yes"/>
			<point x="54.3333" y="596.508"/>
			<point x="137.36" y="691.994"/>
			<point x="276.635" y="691.994" type="curve" smooth="yes"/>
			<point x="286.333" y="691.994" type="line"/>
			<point x="286.333" y="246.004" type="line"/>
			<point x="274.208" y="246.004" type="line" smooth="yes"/>
			<point x="143.067" y="246.004"/>
			<point x="54.3333" y="337.779"/>
		</contour>
		<contour>
			<point x="255.667" y="-73.3333" type="line"/>
			<point x="331.667" y="-62.6667" type="line" smooth="yes"/>
			<point x="351.051" y="-60.0389"/>
			<point x="356.667" y="-48.6667"/>
			<point x="356.667" y="-19.6667" type="curve" smooth="yes"/>
			<point x="356.667" y="692" type="line"/>
			<point x="528.333" y="692" type="line"/>
			<point x="528.333" y="664.333" type="line"/>
			<point x="461.333" y="654.333" type="line" smooth="yes"/>
			<point x="442.667" y="651.333"/>
			<point x="436.333" y="645"/>
			<point x="436.333" y="616" type="curve" smooth="yes"/>
			<point x="436.333" y="-101" type="line"/>
			<point x="255.667" y="-101" type="line"/>
		</contour>
	</outline>
</glyph>
<glyph name="questiondown" format="2">
	<unicode hex="00BF"/>
	<advance width="411"/>
	<outline>
		<contour>
			<point x="27.6667" y="-77" type="curve"/>
			<point x="29" y="0.666667"/>
			<point x="90" y="34.3333"/>
			<point x="126.667" y="57.6667" type="curve" smooth="yes"/>
			<point x="176.667" y="89.6667"/>
			<point x="202" y="124.333"/>
			<point x="202" y="163.667" type="curve" smooth="yes"/>
			<point x="202" y="210.333"/>
			<point x="162.667" y="230"/>
			<point x="135.667" y="230" type="curve" smooth="yes"/>
			<point x="120.667" y="230"/>
			<point x="108.333" y="227.667"/>
			<point x="100" y="225.333" type="curve"/>
			<point x="91" y="247.667" type="line"/>
			<point x="122.333" y="271.333"/>
			<point x="165.667" y="282.667"/>
			<point x="205.333" y="282.667" type="curve" smooth="yes"/>
			<point x="265.333" y="282.667"/>
			<point x="322.667" y="248.667"/>
			<point x="322.667" y="182.667" type="curve" smooth="yes"/>
			<point x="322.667" y="143"/>
			<point x="303.667" y="114"/>
			<point x="240" y="69" type="curve" smooth="yes"/>
			<point x="188.333" y="33"/>
			<point x="149.333" y="-25"/>
			<point x="149.333" y="-85.3333" type="curve" smooth="yes"/>
			<point x="149.333" y="-139"/>
			<point x="166.333" y="-178.333"/>
			<point x="205.667" y="-178.333" type="curve" smooth="yes"/>
			<point x="241" y="-178.333"/>
			<point x="266.333" y="-148"/>
			<point x="282.333" y="-70.3333" type="curve" smooth="yes"/>
			<point x="286.333" y="-50.6667"/>
			<point x="301" y="-42"/>
			<point x="321.667" y="-42" type="curve" smooth="yes"/>
			<point x="344" y="-42"/>
			<point x="385.333" y="-58.3333"/>
			<point x="385.333" y="-98" type="curve" smooth="yes"/>
			<point x="385.333" y="-136.667"/>
			<point x="336" y="-215.667"/>
			<point x="201" y="-217" type="curve"/>
			<point x="102" y="-217"/>
			<point x="29" y="-172.333"/>
		</contour>
		<contour>
			<point x="135" y="429.667" type="curve" smooth="yes"/>
			<point x="135" y="472"/>
			<point x="164.333" y="502"/>
			<point x="207.333" y="502" type="curve" smooth="yes"/>
			<point x="251" y="502"/>
			<point x="279" y="472"/>
			<point x="279.667" y="429.667" type="curve"/>
			<point x="279.667" y="387.333"/>
			<point x="251" y="356.667"/>
			<point x="207.333" y="356.667" type="curve" smooth="yes"/>
			<point x="164.333" y="356.667"/>
			<point x="135" y="387.333"/>
		</contour>
	</outline>
</glyph>
<glyph name="Eth" format="2">
	<unicode hex="00D0"/>
	<advance width="784"/>
	<outline>
		<contour>
			<point x="25" y="341" type="line"/>
			<point x="385.333" y="341" type="line"/>
			<point x="385.333" y="382.333" type="line"/>
			<point x="25" y="382.333" type="line"/>
		</contour>
		<contour>
			<point x="348" y="0" type="line" smooth="yes"/>
			<point x="604.667" y="0"/>
			<point x="738.333" y="126.333"/>
			<point x="738.333" y="353" type="curve" smooth="yes"/>
			<point x="738.333" y="545.667"/>
			<point x="647" y="692"/>
			<point x="376" y="692" type="curve" smooth="yes"/>
			<point x="40.3333" y="692" type="line"/>
			<point x="40.3333" y="660" type="line"/>
			<point x="122.667" y="655"/>
			<point x="126.667" y="652"/>
			<point x="126.667" y="597.667" type="curve" smooth="yes"/>
			<point x="126.667" y="94.3333" type="line" smooth="yes"/>
			<point x="126.667" y="40"/>
			<point x="122.667" y="37"/>
			<point x="40.3333" y="32" type="curve"/>
			<point x="40.3333" y="0" type="line"/>
		</contour>
		<contour>
			<point x="246" y="606" type="line" smooth="yes"/>
			<point x="246" y="648.333"/>
			<point x="258.667" y="653.333"/>
			<point x="351" y="653.333" type="curve" smooth="yes"/>
			<point x="537" y="653.333"/>
			<point x="604.667" y="530.667"/>
			<point x="604.667" y="347" type="curve" smooth="yes"/>
			<point x="604.667" y="97.6667"/>
			<point x="486.667" y="38.6667"/>
			<point x="339.667" y="38.6667" type="curve" smooth="yes"/>
			<point x="263" y="38.6667"/>
			<point x="246" y="50"/>
			<point x="246" y="113.333" type="curve" smooth="yes"/>
		</contour>
	</outline>
</glyph>
<glyph name="Oslash" format="2">
	<unicode hex="00D8"/>
	<advance width="764"/>
	<outline>
		<contour>
			<point x="146.667" y="-29.3333" type="line"/>
			<point x="182.667" y="-55.6667" type="line"/>
			<point x="613.333" y="719" type="line"/>
			<point x="575" y="741.667" type="line"/>
		</contour>
		<contour>
			<point x="46" y="346" type="curve" smooth="yes"/>
			<point x="46" y="127.333"/>
			<point x="156" y="-15"/>
			<point x="382" y="-15" type="curve" smooth="yes"/>
			<point x="608" y="-15"/>
			<point x="718" y="127.333"/>
			<point x="718" y="346" type="curve" smooth="yes"/>
			<point x="718" y="564.667"/>
			<point x="608" y="707"/>
			<point x="382" y="707" type="curve" smooth="yes"/>
			<point x="156" y="707"/>
			<point x="46" y="564.667"/>
		</contour>
		<contour>
			<point x="179.667" y="347" type="curve" smooth="yes"/>
			<point x="179.667" y="484.333"/>
			<point x="214.333" y="668.333"/>
			<point x="382" y="668.333" type="curve" smooth="yes"/>
			<point x="549.667" y="668.333"/>
			<point x="584.333" y="484.333"/>
			<point x="584.333" y="346" type="curve" smooth="yes"/>
			<point x="584.333" y="207.667"/>
			<point x="549.667" y="23.6667"/>
			<point x="382" y="23.6667" type="curve" smooth="yes"/>
			<point x="215" y="23.6667"/>
			<point x="179.667" y="207.667"/>
		</contour>
	</outline>
</glyph>
<glyph name="oslash" format="2">
	<unicode hex="00F8"/>
	<advance width="580"/>
	<outline>
		<contour>
			<point x="97" y="-19.6667" type="line"/>
			<point x="130" y="-44.3333" type="line"/>
			<point x="474.667" y="511" type="line"/>
			<point x="440.333" y="533" type="line"/>
		</contour>
		<contour>
			<point x="44" y="245" type="curve" smooth="yes"/>
			<point x="44" y="83.6667"/>
			<point x="122.333" y="-12"/>
			<point x="290.333" y="-12" type="curve" smooth="yes"/>
			<point x="458.333" y="-12"/>
			<point x="536.667" y="83.6667"/>
			<point x="536.667" y="245" type="curve" smooth="yes"/>
			<point x="536.667" y="406.333"/>
			<point x="458.333" y="502"/>
			<point x="290.333" y="502" type="curve" smooth="yes"/>
			<point x="122.333" y="502"/>
			<point x="44" y="406.333"/>
		</contour>
		<contour>
			<point x="166.333" y="245" type="curve" smooth="yes"/>
			<point x="166.333" y="381.667"/>
			<point x="205.333" y="463.333"/>
			<point x="290.333" y="463.333" type="curve" smooth="yes"/>
			<point x="375.333" y="463.333"/>
			<point x="414.333" y="381.667"/>
			<point x="414.333" y="245" type="curve" smooth="yes"/>
			<point x="414.333" y="108.333"/>
			<point x="375.333" y="26.6667"/>
			<point x="290.333" y="26.6667" type="curve" smooth="yes"/>
			<point x="205.333" y="26.6667"/>
			<point x="166.333" y="108.333"/>
		</contour>
	</outline>
</glyph>
<glyph name="ldot" format="2">
	<unicode hex="0140"/>
	<advance width="468"/>
	<outline>
		<contour>
			<point x="19.6667" y="0" type="line"/>
			<point x="19.6667" y="32" type="line"/>
			<point x="86.6667" y="36.3333"/>
			<point x="91.3333" y="39"/>
			<point x="91.3333" y="87" type="curve" smooth="yes"/>
			<point x="91.3333" y="635" type="line" smooth="yes"/>
			<point x="91.3333" y="673.667"/>
			<point x="84.6667" y="680"/>
			<point x="62" y="683" type="curve" smooth="yes"/>
			<point x="25" y="687.667" type="line"/>
			<point x="25" y="716.333" type="line"/>
			<point x="197.333" y="742" type="line"/>
			<point x="204.333" y="736" type="line"/>
			<point x="204.333" y="87" type="line" smooth="yes"/>
			<point x="204.333" y="39"/>
			<point x="209.667" y="36.3333"/>
			<point x="276" y="32" type="curve"/>
			<point x="276" y="0" type="line"/>
		</contour>
		<contour>
			<point x="286" y="322.333" type="curve" smooth="yes"/>
			<point x="286" y="365.333"/>
			<point x="315.333" y="396.667"/>
			<point x="359" y="396.667" type="curve" smooth="yes"/>
			<point x="403.333" y="396.667"/>
			<point x="432" y="365.333"/>
			<point x="432" y="322.333" type="curve"/>
			<point x="431.333" y="280"/>
			<point x="403.333" y="249.333"/>
			<point x="359" y="249.333" type="curve" smooth="yes"/>
			<point x="315.333" y="249.333"/>
			<point x="286" y="280"/>
		</contour>
	</outline>
</glyph>
<glyph name="oe" format="2">
	<unicode hex="0153"/>
	<advance width="877"/>
	<outline>
		<contour>
			<point x="44" y="245" type="curve" smooth="yes"/>
			<point x="44" y="406.597"/>
			<point x="122.333" y="502"/>
			<point x="287.052" y="502" type="curve" smooth="yes"/>
			<point x="370.123" y="502"/>
			<point x="431.695" y="473.667"/>
			<point x="469.361" y="427.618" type="curve"/>
			<point x="505.611" y="467.357"/>
			<point x="562.333" y="502"/>
			<point x="645.02" y="502" type="curve" smooth="yes"/>
			<point x="834.333" y="502"/>
			<point x="850" y="356.736"/>
			<point x="850" y="299.417" type="curve" smooth="yes"/>
			<point x="850" y="266.037"/>
			<point x="831.333" y="259.333"/>
			<point x="805.333" y="259.333" type="curve" smooth="yes"/>
			<point x="526.667" y="259.333" type="line"/>
			<point x="526.667" y="157"/>
			<point x="555.333" y="47.6667"/>
			<point x="670.637" y="47.6667" type="curve" smooth="yes"/>
			<point x="742.667" y="47.6667"/>
			<point x="782.333" y="90.3333"/>
			<point x="811" y="148" type="curve"/>
			<point x="843" y="130.667" type="line"/>
			<point x="813.667" y="48.6667"/>
			<point x="753.333" y="-12"/>
			<point x="636.485" y="-12" type="curve" smooth="yes"/>
			<point x="556.667" y="-12"/>
			<point x="499.472" y="16.3333"/>
			<point x="465.917" y="61" type="curve"/>
			<point x="426.167" y="15.6667"/>
			<point x="365.471" y="-12"/>
			<point x="286.38" y="-12" type="curve" smooth="yes"/>
			<point x="122.333" y="-12"/>
			<point x="44" y="83.6667"/>
		</contour>
		<contour>
			<point x="166.333" y="245" type="curve" smooth="yes"/>
			<point x="166.333" y="108.333"/>
			<point x="205.225" y="26.6667"/>
			<point x="289.335" y="26.6667" type="curve" smooth="yes"/>
			<point x="374.439" y="26.6667"/>
			<point x="412.667" y="108.333"/>
			<point x="412.667" y="245" type="curve" smooth="yes"/>
			<point x="412.667" y="382.012"/>
			<point x="374.439" y="463.333"/>
			<point x="289.335" y="463.333" type="curve" smooth="yes"/>
			<point x="205.225" y="463.333"/>
			<point x="166.333" y="382.012"/>
		</contour>
		<contour>
			<point x="527.333" y="301.333" type="curve"/>
			<point x="695.333" y="301.333" type="line" smooth="yes"/>
			<point x="721.667" y="301.333"/>
			<point x="728.333" y="311.921"/>
			<point x="728.333" y="339.945" type="curve" smooth="yes"/>
			<point x="728.333" y="375.105"/>
			<point x="717.667" y="463.333"/>
			<point x="635.57" y="463.333" type="curve" smooth="yes"/>
			<point x="543.667" y="463.333"/>
			<point x="527.333" y="353.32"/>
		</contour>
	</outline>
</glyph>
<glyph name="uni0163" format="2">
	<unicode hex="0163"/>
	<advance width="370"/>
	<outline>
		<contour>
			<point x="31.3333" y="446.667" type="line"/>
			<point x="31.3333" y="490" type="line"/>
			<point x="103" y="490" type="line"/>
			<point x="173" y="616" type="line"/>
			<point x="211.667" y="616" type="line"/>
			<point x="211.667" y="490" type="line"/>
			<point x="332.333" y="490" type="line"/>
			<point x="332.333" y="446.667" type="line"/>
			<point x="211.667" y="446.667" type="line"/>
			<point x="211.667" y="145" type="line" smooth="yes"/>
			<point x="211.667" y="73"/>
			<point x="241.667" y="47.6667"/>
			<point x="285.667" y="47.6667" type="curve" smooth="yes"/>
			<point x="301" y="47.6667"/>
			<point x="322.667" y="51"/>
			<point x="343.333" y="59.6667" type="curve"/>
			<point x="352.333" y="35.3333" type="line"/>
			<point x="315.333" y="12.3333"/>
			<point x="262.667" y="-11.3333"/>
			<point x="215" y="-12" type="curve"/>
			<point x="188" y="-56" type="line"/>
			<point x="223" y="-60.6667"/>
			<point x="280.333" y="-78.3333"/>
			<point x="280.333" y="-142" type="curve" smooth="yes"/>
			<point x="280.333" y="-224"/>
			<point x="185" y="-235.333"/>
			<point x="142.667" y="-235.333" type="curve" smooth="yes"/>
			<point x="130.333" y="-235.333"/>
			<point x="118.333" y="-234.333"/>
			<point x="103.333" y="-232.333" type="curve"/>
			<point x="103.333" y="-204.333" type="line"/>
			<point x="154.667" y="-204.333"/>
			<point x="193.333" y="-189.333"/>
			<point x="193.333" y="-146.333" type="curve" smooth="yes"/>
			<point x="193.333" y="-101"/>
			<point x="149.333" y="-95.3333"/>
			<point x="130" y="-94" type="curve"/>
			<point x="126" y="-86.6667" type="line"/>
			<point x="172.333" y="-6" type="line"/>
			<point x="135.667" y="6"/>
			<point x="98.6667" y="37.3333"/>
			<point x="98.6667" y="107" type="curve" smooth="yes"/>
			<point x="98.6667" y="446.667" type="line"/>
		</contour>
	</outline>
</glyph>
<glyph name="uni0184" format="2">
	<unicode hex="0184"/>
	<advance width="642"/>
	<outline>
		<contour>
			<point x="34.3333" y="0" type="line"/>
			<point x="34.3333" y="32" type="line"/>
			<point x="116.667" y="37"/>
			<point x="120.667" y="40"/>
			<point x="120.667" y="94.3333" type="curve" smooth="yes"/>
			<point x="120.667" y="397.794" type="line"/>
			<point x="34.3333" y="459.127" type="line"/>
			<point x="34.3333" y="492.127" type="line"/>
			<point x="219.937" y="692" type="line"/>
			<point x="239.931" y="672.107" type="line"/>
			<point x="240" y="391" type="line"/>
			<point x="266" y="396.333"/>
			<point x="299.667" y="398.333"/>
			<point x="340" y="398.333" type="curve" smooth="yes"/>
			<point x="466.667" y="398.333"/>
			<point x="611.667" y="353"/>
			<point x="611.667" y="198.478" type="curve" smooth="yes"/>
			<point x="611.667" y="51.6667"/>
			<point x="513.333" y="0"/>
			<point x="352.667" y="0" type="curve" smooth="yes"/>
		</contour>
		<contour>
			<point x="240" y="111.667" type="line" smooth="yes"/>
			<point x="240" y="54"/>
			<point x="258" y="38.6667"/>
			<point x="328" y="38.6667" type="curve" smooth="yes"/>
			<point x="408.667" y="38.6667"/>
			<point x="482" y="68.6667"/>
			<point x="482" y="187.666" type="curve" smooth="yes"/>
			<point x="482" y="309"/>
			<point x="407" y="359.667"/>
			<point x="320.329" y="359.667" type="curve" smooth="yes"/>
			<point x="289.667" y="359.667"/>
			<point x="253" y="353.333"/>
			<point x="240" y="349.667" type="curve"/>
		</contour>
	</outline>
</glyph>
<glyph name="uni018F" format="2">
	<unicode hex="018F"/>
	<advance width="719"/>
	<outline>
		<contour>
			<point x="44" y="308.333" type="curve" smooth="yes"/>
			<point x="44" y="330"/>
			<point x="57.9404" y="346.333"/>
			<point x="82.825" y="346.333" type="curve" smooth="yes"/>
			<point x="539.667" y="346.333" type="line"/>
			<point x="539.667" y="489.667"/>
			<point x="503.164" y="668.333"/>
			<point x="347.383" y="668.333" type="curve" smooth="yes"/>
			<point x="250.886" y="668.333"/>
			<point x="154.879" y="609.333"/>
			<point x="127.642" y="488.667" type="curve"/>
			<point x="93.784" y="488.667" type="line"/>
			<point x="93.784" y="655.333" type="line"/>
			<point x="156.182" y="684"/>
			<point x="269.533" y="707"/>
			<point x="346.153" y="707" type="curve" smooth="yes"/>
			<point x="593.333" y="707"/>
			<point x="673.333" y="528.667"/>
			<point x="673.333" y="348.018" type="curve" smooth="yes"/>
			<point x="673.333" y="163.333"/>
			<point x="590.333" y="-15"/>
			<point x="356.777" y="-15" type="curve" smooth="yes"/>
			<point x="128.579" y="-15"/>
			<point x="44" y="143"/>
		</contour>
		<contour>
			<point x="177.667" y="283.333" type="curve" smooth="yes"/>
			<point x="177.667" y="156.667"/>
			<point x="231.605" y="23.6667"/>
			<point x="355.032" y="23.6667" type="curve" smooth="yes"/>
			<point x="487.432" y="23.6667"/>
			<point x="538.315" y="176"/>
			<point x="539.667" y="305" type="curve"/>
			<point x="200.486" y="305" type="line" smooth="yes"/>
			<point x="186.392" y="305"/>
			<point x="177.667" y="302"/>
		</contour>
	</outline>
</glyph>
<glyph name="uni0197" format="2">
	<unicode hex="0197"/>
	<advance width="375"/>
	<outline>
		<contour>
			<point x="35.6667" y="341" type="line"/>
			<point x="35.6667" y="382.333" type="line"/>
			<point x="127.667" y="382.333" type="line"/>
			<point x="127.667" y="597.667" type="line" smooth="yes"/>
			<point x="127.667" y="652"/>
			<point x="123.667" y="655"/>
			<point x="41.3333" y="660" type="curve"/>
			<point x="41.3333" y="692" type="line"/>
			<point x="333.333" y="692" type="line"/>
			<point x="333.333" y="660" type="line"/>
			<point x="251.667" y="655"/>
			<point x="247" y="652"/>
			<point x="247" y="597.667" type="curve" smooth="yes"/>
			<point x="247" y="382.333" type="line"/>
			<point x="339" y="382.333" type="line"/>
			<point x="339" y="341" type="line"/>
			<point x="247" y="341" type="line"/>
			<point x="247" y="94.3333" type="line" smooth="yes"/>
			<point x="247" y="40"/>
			<point x="251.667" y="37"/>
			<point x="333.333" y="32" type="curve"/>
			<point x="333.333" y="0" type="line"/>
			<point x="41.3333" y="0" type="line"/>
			<point x="41.3333" y="32" type="line"/>
			<point x="123.667" y="37"/>
			<point x="127.667" y="40"/>
			<point x="127.667" y="94.3333" type="curve" smooth="yes"/>
			<point x="127.667" y="341" type="line"/>
		</contour>
	</outline>
</glyph>
<glyph name="uni0198" format="2">
	<unicode hex="0198"/>
	<advance width="719"/>
	<outline>
		<component base="I"/>
		<contour>
			<point x="240" y="361.667" type="line"/>
			<point x="459.018" y="601.263" type="line"/>
			<point x="511.672" y="660.272"/>
			<point x="557.27" y="692.192"/>
			<point x="624.957" y="692.311" type="curve" smooth="yes"/>
			<point x="693.245" y="692.432"/>
			<point x="739.327" y="660.249"/>
			<point x="739.327" y="619.316" type="curve" smooth="yes"/>
			<point x="739.327" y="590.734"/>
			<point x="716.844" y="574.226"/>
			<point x="695.177" y="574.226" type="curve" smooth="yes"/>
			<point x="679.318" y="574.226"/>
			<point x="666.021" y="583.129"/>
			<point x="661.073" y="595.856" type="curve" smooth="yes"/>
			<point x="645.187" y="635.446"/>
			<point x="628.298" y="649.923"/>
			<point x="605.263" y="649.923" type="curve" smooth="yes"/>
			<point x="573.739" y="649.923"/>
			<point x="541.294" y="620.933"/>
			<point x="475.484" y="550.604" type="curve" smooth="yes"/>
			<point x="340.333" y="405.667" type="line"/>
			<point x="389.914" y="328.962"/>
			<point x="586.683" y="46.964"/>
			<point x="684.333" y="23.3333" type="curve"/>
			<point x="684.333" y="-5" type="line"/>
			<point x="619.667" y="-5" type="line" smooth="yes"/>
			<point x="539.312" y="-5"/>
			<point x="486.476" y="22.4579"/>
			<point x="424" y="96" type="curve" smooth="yes"/>
			<point x="354.645" y="176.557"/>
			<point x="297.562" y="260.446"/>
			<point x="241.777" y="351.317" type="curve"/>
			<point x="240" y="351" type="line"/>
		</contour>
	</outline>
</glyph>
<glyph name="ohorn" format="2">
	<unicode hex="01A1"/>
	<advance width="589"/>
	<outline>
		<contour>
			<point x="44" y="245" type="curve" smooth="yes"/>
			<point x="44" y="406.333"/>
			<point x="122.333" y="502"/>
			<point x="289.667" y="502" type="curve" smooth="yes"/>
			<point x="367.667" y="502"/>
			<point x="426" y="480.667"/>
			<point x="466" y="442.667" type="curve"/>
			<point x="491.333" y="467"/>
			<point x="504" y="487"/>
			<point x="504" y="499" type="curve" smooth="yes"/>
			<point x="504" y="531.333"/>
			<point x="442.667" y="538.333"/>
			<point x="442.667" y="575.333" type="curve" smooth="yes"/>
			<point x="442.667" y="592.333"/>
			<point x="455.333" y="625.667"/>
			<point x="495" y="625.667" type="curve" smooth="yes"/>
			<point x="533.667" y="625.667"/>
			<point x="562" y="591.667"/>
			<point x="562" y="543" type="curve" smooth="yes"/>
			<point x="562" y="488.333"/>
			<point x="522.667" y="445.667"/>
			<point x="488.333" y="417" type="curve"/>
			<point x="520" y="374"/>
			<point x="535.667" y="316.333"/>
			<point x="535.667" y="245" type="curve" smooth="yes"/>
			<point x="535.667" y="83.6667"/>
			<point x="458" y="-12"/>
			<point x="289.667" y="-12" type="curve" smooth="yes"/>
			<point x="122.333" y="-12"/>
			<point x="44" y="83.6667"/>
		</contour>
		<contour>
			<point x="166.333" y="245" type="curve" smooth="yes"/>
			<point x="166.333" y="108.333"/>
			<point x="205.333" y="26.6667"/>
			<point x="289.667" y="26.6667" type="curve" smooth="yes"/>
			<point x="375" y="26.6667"/>
			<point x="413.333" y="108.333"/>
			<point x="413.333" y="245" type="curve" smooth="yes"/>
			<point x="413.333" y="381.667"/>
			<point x="375" y="463.333"/>
			<point x="289.667" y="463.333" type="curve" smooth="yes"/>
			<point x="205.333" y="463.333"/>
			<point x="166.333" y="381.667"/>
		</contour>
	</outline>
</glyph>
<glyph name="dotlessj" format="2">
	<unicode hex="0237"/>
	<advance width="316"/>
	<outline>
		<contour>
			<point x="-26" y="-212.333" type="line"/>
			<point x="94.3333" y="-181.667"/>
			<point x="103.333" y="-85.6667"/>
			<point x="103.333" y="34.3333" type="curve" smooth="yes"/>
			<point x="103.333" y="395" type="line" smooth="yes"/>
			<point x="103.333" y="431"/>
			<point x="96.6667" y="438.667"/>
			<point x="74" y="442" type="curve" smooth="yes"/>
			<point x="37" y="447" type="line"/>
			<point x="37" y="475.667" type="line"/>
			<point x="209.333" y="502" type="line"/>
			<point x="216.333" y="496" type="line"/>
			<point x="216.333" y="13" type="line" smooth="yes"/>
			<point x="216.333" y="-159.333"/>
			<point x="147.667" y="-238.667"/>
			<point x="-23.3333" y="-238.667" type="curve"/>
		</contour>
	</outline>
</glyph>
<glyph name="uni0241" format="2">
	<unicode hex="0241"/>
	<advance width="509"/>
	<outline>
		<contour>
			<point x="39" y="593.463" type="curve" smooth="yes"/>
			<point x="39" y="636"/>
			<point x="100.667" y="707"/>
			<point x="251.018" y="707" type="curve" smooth="yes"/>
			<point x="393.667" y="707"/>
			<point x="467.333" y="643.333"/>
			<point x="467.333" y="541.667" type="curve" smooth="yes"/>
			<point x="467.333" y="477.658"/>
			<point x="427.667" y="434.054"/>
			<point x="386.757" y="390.565" type="curve" smooth="yes"/>
			<point x="344.884" y="346.225"/>
			<point x="302.333" y="299.926"/>
			<point x="302.333" y="230.667" type="curve" smooth="yes"/>
			<point x="302.333" y="93.6667" type="line" smooth="yes"/>
			<point x="302.333" y="40.8916"/>
			<point x="317.481" y="37.323"/>
			<point x="407.667" y="32" type="curve"/>
			<point x="407.667" y="0" type="line"/>
			<point x="77.6667" y="0" type="line"/>
			<point x="77.6667" y="32" type="line"/>
			<point x="167.852" y="37.323"/>
			<point x="183" y="40.8916"/>
			<point x="183" y="93.6667" type="curve" smooth="yes"/>
			<point x="183" y="191.667" type="line" smooth="yes"/>
			<point x="183" y="289.466"/>
			<point x="228.354" y="345.931"/>
			<point x="270.85" y="397.642" type="curve" smooth="yes"/>
			<point x="306.047" y="441.003"/>
			<point x="340" y="483.661"/>
			<point x="340" y="547.333" type="curve" smooth="yes"/>
			<point x="340" y="623"/>
			<point x="308" y="668.333"/>
			<point x="245.55" y="668.333" type="curve" smooth="yes"/>
			<point x="188" y="668.333"/>
			<point x="158.667" y="633"/>
			<point x="146.667" y="566.333" type="curve" smooth="yes"/>
			<point x="143.19" y="547.298"/>
			<point x="127" y="537.333"/>
			<point x="103.777" y="537.333" type="curve" smooth="yes"/>
			<point x="84" y="537.333"/>
			<point x="39" y="556.333"/>
		</contour>
	</outline>
</glyph>
<glyph name="uni0256" format="2">
	<unicode hex="0256"/>
	<advance width="600"/>
	<outline>
		<contour>
			<point x="44" y="235.333" type="curve" smooth="yes"/>
			<point x="44" y="397.667"/>
			<point x="135.333" y="502"/>
			<point x="299.333" y="502" type="curve" smooth="yes"/>
			<point x="342.667" y="502"/>
			<point x="376.667" y="494.667"/>
			<point x="402.667" y="481.667" type="curve"/>
			<point x="402.667" y="635" type="line" smooth="yes"/>
			<point x="402.667" y="673.667"/>
			<point x="396" y="680"/>
			<point x="373.333" y="683" type="curve" smooth="yes"/>
			<point x="336.333" y="687.667" type="line"/>
			<point x="336.333" y="716.333" type="line"/>
			<point x="508.667" y="742" type="line"/>
			<point x="515.667" y="736" type="line"/>
			<point x="515.667" y="87" type="line"/>
			<point x="402" y="54" type="line"/>
			<point x="348" y="10.3333"/>
			<point x="298.667" y="-12"/>
			<point x="245.667" y="-12" type="curve" smooth="yes"/>
			<point x="120" y="-12"/>
			<point x="44" y="88"/>
		</contour>
		<contour>
			<point x="166.333" y="255.333" type="curve" smooth="yes"/>
			<point x="166.333" y="130.667"/>
			<point x="211.667" y="49.6667"/>
			<point x="302.667" y="49.6667" type="curve" smooth="yes"/>
			<point x="373.333" y="49.6667"/>
			<point x="402.667" y="98.6667"/>
			<point x="402.667" y="164" type="curve" smooth="yes"/>
			<point x="402.667" y="350" type="line" smooth="yes"/>
			<point x="402.667" y="414.333"/>
			<point x="376.333" y="463.333"/>
			<point x="305" y="463.333" type="curve" smooth="yes"/>
			<point x="216" y="463.333"/>
			<point x="166.333" y="385.667"/>
		</contour>
		<contour>
			<point x="515.667" y="87" type="line"/>
			<point x="515.667" y="3.33333" type="line" smooth="yes"/>
			<point x="515.667" y="-18.4856"/>
			<point x="512.57" y="-43.6266"/>
			<point x="508.951" y="-67.9953" type="curve" smooth="yes"/>
			<point x="505.638" y="-90.784"/>
			<point x="503" y="-113.084"/>
			<point x="503" y="-131.989" type="curve" smooth="yes"/>
			<point x="503" y="-193.667"/>
			<point x="525.667" y="-203.333"/>
			<point x="541.412" y="-203.333" type="curve" smooth="yes"/>
			<point x="565.934" y="-203.333"/>
			<point x="577.632" y="-181.473"/>
			<point x="588.201" y="-159.061" type="curve" smooth="yes"/>
			<point x="598.915" y="-136.519"/>
			<point x="612.148" y="-113.333"/>
			<point x="636.217" y="-113.333" type="curve" smooth="yes"/>
			<point x="659.667" y="-113.333"/>
			<point x="689.333" y="-134.667"/>
			<point x="689.333" y="-163.701" type="curve" smooth="yes"/>
			<point x="689.333" y="-198.333"/>
			<point x="648.333" y="-242"/>
			<point x="561.011" y="-242" type="curve" smooth="yes"/>
			<point x="440.166" y="-242"/>
			<point x="402" y="-140.727"/>
			<point x="402" y="-27.6667" type="curve" smooth="yes"/>
			<point x="402" y="54" type="line"/>
		</contour>
	</outline>
</glyph>
<glyph name="uni0257" format="2">
	<unicode hex="0257"/>
	<advance width="598"/>
	<outline>
		<contour>
			<point x="44" y="235.333" type="curve" smooth="yes"/>
			<point x="44" y="397.667"/>
			<point x="135.333" y="502"/>
			<point x="299.333" y="502" type="curve" smooth="yes"/>
			<point x="342.667" y="502"/>
			<point x="376" y="494.667"/>
			<point x="402" y="481.667" type="curve"/>
			<point x="402" y="489.333" type="line"/>
			<point x="515.667" y="489.333" type="line"/>
			<point x="515.667" y="87" type="line" smooth="yes"/>
			<point x="515.667" y="39"/>
			<point x="521" y="36.3333"/>
			<point x="587.333" y="32" type="curve"/>
			<point x="587.333" y="0" type="line"/>
			<point x="410.667" y="0" type="line"/>
			<point x="402" y="8" type="line"/>
			<point x="402" y="54" type="line"/>
			<point x="348" y="10.3333"/>
			<point x="298.667" y="-12"/>
			<point x="245.667" y="-12" type="curve" smooth="yes"/>
			<point x="120" y="-12"/>
			<point x="44" y="88"/>
		</contour>
		<contour>
			<point x="166.333" y="255.333" type="curve" smooth="yes"/>
			<point x="166.333" y="130.667"/>
			<point x="211.667" y="49.6667"/>
			<point x="302.667" y="49.6667" type="curve" smooth="yes"/>
			<point x="373.333" y="49.6667"/>
			<point x="402.667" y="98.6667"/>
			<point x="402.667" y="164" type="curve" smooth="yes"/>
			<point x="402.667" y="350" type="line" smooth="yes"/>
			<point x="402.667" y="414.333"/>
			<point x="376.333" y="463.333"/>
			<point x="305" y="463.333" type="curve" smooth="yes"/>
			<point x="216" y="463.333"/>
			<point x="166.333" y="385.667"/>
		</contour>
		<contour>
			<point x="515.667" y="449.035" type="line"/>
			<point x="402" y="449.004" type="line"/>
			<point x="402" y="527.337" type="line" smooth="yes"/>
			<point x="402" y="640.397"/>
			<point x="440.166" y="741.67"/>
			<point x="561.011" y="741.67" type="curve" smooth="yes"/>
			<point x="648.333" y="741.67"/>
			<point x="689.333" y="698.004"/>
			<point x="689.333" y="663.372" type="curve" smooth="yes"/>
			<point x="689.333" y="634.337"/>
			<point x="659.667" y="613.004"/>
			<point x="636.217" y="613.004" type="curve" smooth="yes"/>
			<point x="612.148" y="613.004"/>
			<point x="598.915" y="636.189"/>
			<point x="588.201" y="658.731" type="curve" smooth="yes"/>
			<point x="577.632" y="681.143"/>
			<point x="565.934" y="703.004"/>
			<point x="541.412" y="703.004" type="curve" smooth="yes"/>
			<point x="525.667" y="703.004"/>
			<point x="503" y="693.337"/>
			<point x="503" y="628.769" type="curve" smooth="yes"/>
			<point x="503" y="612.755"/>
			<point x="504.971" y="590.454"/>
			<point x="509.179" y="566.552" type="curve" smooth="yes"/>
			<point x="513.233" y="543.381"/>
			<point x="515.667" y="519.156"/>
			<point x="515.667" y="500.337" type="curve" smooth="yes"/>
		</contour>
	</outline>
</glyph>
<glyph name="uni0259" format="2">
	<unicode hex="0259"/>
	<advance width="516"/>
	<outline>
		<contour>
			<point x="471.667" y="253" type="curve" smooth="yes"/>
			<point x="471.667" y="100.667"/>
			<point x="400" y="-12"/>
			<point x="233" y="-12" type="curve" smooth="yes"/>
			<point x="49.6667" y="-12"/>
			<point x="26.6667" y="124.333"/>
			<point x="26.6667" y="190.667" type="curve" smooth="yes"/>
			<point x="26.6667" y="224"/>
			<point x="45.3333" y="230.667"/>
			<point x="71.6667" y="230.667" type="curve" smooth="yes"/>
			<point x="349.333" y="230.667" type="line"/>
			<point x="349.333" y="239.667" type="line" smooth="yes"/>
			<point x="349.333" y="341.333"/>
			<point x="320" y="442.333"/>
			<point x="207.333" y="442.333" type="curve" smooth="yes"/>
			<point x="134" y="442.333"/>
			<point x="94.3333" y="399.667"/>
			<point x="65.6667" y="342" type="curve"/>
			<point x="33.3333" y="359.333" type="line"/>
			<point x="63" y="441.333"/>
			<point x="122.667" y="502"/>
			<point x="238.333" y="502" type="curve" smooth="yes"/>
			<point x="406.667" y="502"/>
			<point x="471.667" y="398.333"/>
		</contour>
		<contour>
			<point x="349.333" y="188.667" type="curve"/>
			<point x="182" y="188.667" type="line" smooth="yes"/>
			<point x="155.667" y="188.667"/>
			<point x="149" y="178"/>
			<point x="149" y="149.333" type="curve" smooth="yes"/>
			<point x="149" y="115"/>
			<point x="159.667" y="26.6667"/>
			<point x="241" y="26.6667" type="curve" smooth="yes"/>
			<point x="333" y="26.6667"/>
			<point x="349.333" y="137"/>
		</contour>
	</outline>
</glyph>
<glyph name="uni025B" format="2">
	<unicode hex="025B"/>
	<advance width="485"/>
	<outline>
		<contour>
			<point x="44.6667" y="123.667" type="curve" smooth="yes"/>
			<point x="44.6667" y="191.667"/>
			<point x="99" y="245"/>
			<point x="182.333" y="263" type="curve"/>
			<point x="182.333" y="265.667" type="line"/>
			<point x="114.333" y="281.333"/>
			<point x="71" y="316.333"/>
			<point x="71" y="378" type="curve" smooth="yes"/>
			<point x="71" y="458"/>
			<point x="168.333" y="502"/>
			<point x="267" y="502" type="curve" smooth="yes"/>
			<point x="385.667" y="502"/>
			<point x="456" y="458.667"/>
			<point x="456" y="409.667" type="curve" smooth="yes"/>
			<point x="456" y="368.667"/>
			<point x="416.667" y="351"/>
			<point x="394.667" y="351" type="curve" smooth="yes"/>
			<point x="373.333" y="351"/>
			<point x="364.667" y="361.667"/>
			<point x="358.333" y="380" type="curve" smooth="yes"/>
			<point x="340" y="431.667"/>
			<point x="317" y="463.333"/>
			<point x="273.333" y="463.333" type="curve" smooth="yes"/>
			<point x="214" y="463.333"/>
			<point x="186.333" y="421"/>
			<point x="186.333" y="371" type="curve" smooth="yes"/>
			<point x="186.333" y="319.667"/>
			<point x="216.667" y="278.667"/>
			<point x="277.667" y="278.667" type="curve" smooth="yes"/>
			<point x="318.667" y="278.667" type="line"/>
			<point x="318.667" y="240" type="line"/>
			<point x="276.333" y="240" type="line" smooth="yes"/>
			<point x="208.333" y="240"/>
			<point x="166.333" y="191.333"/>
			<point x="166.333" y="135.667" type="curve" smooth="yes"/>
			<point x="166.333" y="71"/>
			<point x="219" y="44.6667"/>
			<point x="284.333" y="44.6667" type="curve" smooth="yes"/>
			<point x="352.333" y="44.6667"/>
			<point x="401" y="74.6667"/>
			<point x="435.333" y="136.333" type="curve"/>
			<point x="465.333" y="120.333" type="line"/>
			<point x="430.667" y="19.6667"/>
			<point x="339.667" y="-12"/>
			<point x="262.333" y="-12" type="curve" smooth="yes"/>
			<point x="146" y="-12"/>
			<point x="44.6667" y="34"/>
		</contour>
	</outline>
</glyph>
<glyph name="uni025E" format="2">
	<unicode hex="025E"/>
	<advance width="580"/>
	<outline>
		<contour>
			<point x="39.9136" y="247.465" type="curve" smooth="yes"/>
			<point x="39.9136" y="420.946"/>
			<point x="122.789" y="502"/>
			<point x="312.297" y="502" type="curve" smooth="yes"/>
			<point x="434.307" y="502"/>
			<point x="513.977" y="453.213"/>
			<point x="513.977" y="379.1" type="curve" smooth="yes"/>
			<point x="513.977" y="322.09"/>
			<point x="475.807" y="281.605"/>
			<point x="411.977" y="265.667" type="curve"/>
			<point x="411.977" y="263" type="line"/>
			<point x="488.913" y="246.559"/>
			<point x="540.271" y="193.363"/>
			<point x="540.271" y="129.145" type="curve" smooth="yes"/>
			<point x="540.271" y="43.3716"/>
			<point x="448.836" y="-12"/>
			<point x="303.498" y="-12" type="curve" smooth="yes"/>
			<point x="125.266" y="-12"/>
			<point x="39.9136" y="71.2874"/>
		</contour>
		<contour>
			<point x="266.31" y="240" type="line"/>
			<point x="266.31" y="278.667" type="line"/>
			<point x="307.31" y="278.667" type="line" smooth="yes"/>
			<point x="363.401" y="278.667"/>
			<point x="398.644" y="314.622"/>
			<point x="398.644" y="368.549" type="curve" smooth="yes"/>
			<point x="398.644" y="425.696"/>
			<point x="359.125" y="463.333"/>
			<point x="302.524" y="463.333" type="curve" smooth="yes"/>
			<point x="202.606" y="463.333"/>
			<point x="164.799" y="399.306"/>
			<point x="164.697" y="241.703" type="curve"/>
			<point x="164.625" y="127.922"/>
			<point x="224.176" y="44.6667"/>
			<point x="307.467" y="44.6667" type="curve" smooth="yes"/>
			<point x="377.883" y="44.6667"/>
			<point x="417.937" y="75.9921"/>
			<point x="417.937" y="133.846" type="curve" smooth="yes"/>
			<point x="417.937" y="195.736"/>
			<point x="372.12" y="240"/>
			<point x="308.644" y="240" type="curve" smooth="yes"/>
		</contour>
	</outline>
</glyph>
<glyph name="uni0260" format="2">
	<unicode hex="0260"/>
	<advance width="592"/>
	<outline>
		<component base="uni0261" xOffset="7.66667"/>
		<contour>
			<point x="515.667" y="449.035" type="line"/>
			<point x="402" y="449.004" type="line"/>
			<point x="402" y="527.337" type="line" smooth="yes"/>
			<point x="402" y="640.397"/>
			<point x="440.166" y="741.67"/>
			<point x="561.011" y="741.67" type="curve" smooth="yes"/>
			<point x="648.333" y="741.67"/>
			<point x="689.333" y="698.004"/>
			<point x="689.333" y="663.372" type="curve" smooth="yes"/>
			<point x="689.333" y="634.337"/>
			<point x="659.667" y="613.004"/>
			<point x="636.217" y="613.004" type="curve" smooth="yes"/>
			<point x="612.148" y="613.004"/>
			<point x="598.915" y="636.189"/>
			<point x="588.201" y="658.731" type="curve" smooth="yes"/>
			<point x="577.632" y="681.143"/>
			<point x="565.934" y="703.004"/>
			<point x="541.412" y="703.004" type="curve" smooth="yes"/>
			<point x="525.667" y="703.004"/>
			<point x="503" y="693.337"/>
			<point x="503" y="628.769" type="curve" smooth="yes"/>
			<point x="503" y="612.755"/>
			<point x="504.971" y="590.454"/>
			<point x="509.179" y="566.552" type="curve" smooth="yes"/>
			<point x="513.233" y="543.381"/>
			<point x="515.667" y="519.156"/>
			<point x="515.667" y="500.337" type="curve" smooth="yes"/>
		</contour>
	</outline>
</glyph>
<glyph name="uni0263" format="2">
	<unicode hex="0263"/>
	<advance width="501"/>
	<outline>
		<contour>
			<point x="-2" y="458" type="curve"/>
			<point x="-2" y="490" type="line"/>
			<point x="234.667" y="490" type="line"/>
			<point x="234.667" y="458" type="line"/>
			<point x="193.333" y="453" type="line" smooth="yes"/>
			<point x="180.604" y="451.656"/>
			<point x="174.986" y="447.034"/>
			<point x="174.986" y="438.307" type="curve" smooth="yes"/>
			<point x="174.986" y="434.339"/>
			<point x="175.898" y="430.002"/>
			<point x="178" y="424" type="curve" smooth="yes"/>
			<point x="284.333" y="129.333" type="line"/>
			<point x="287" y="129.333" type="line"/>
			<point x="390.471" y="417.882" type="line" smooth="yes"/>
			<point x="394.175" y="428.174"/>
			<point x="394.2" y="432.021"/>
			<point x="394.2" y="435.35" type="curve" smooth="yes"/>
			<point x="394.2" y="444.705"/>
			<point x="388.963" y="451.284"/>
			<point x="376.667" y="452.667" type="curve" smooth="yes"/>
			<point x="331" y="458" type="line"/>
			<point x="331" y="490" type="line"/>
			<point x="525.333" y="490" type="line"/>
			<point x="525.333" y="458" type="line"/>
			<point x="481" y="455.667"/>
			<point x="468.532" y="450.356"/>
			<point x="454.333" y="415" type="curve" smooth="yes"/>
			<point x="313" y="68" type="line"/>
			<point x="365" y="-47"/>
			<point x="377.667" y="-87.6667"/>
			<point x="377.667" y="-133.35" type="curve" smooth="yes"/>
			<point x="377.667" y="-212.333"/>
			<point x="316" y="-241"/>
			<point x="255.513" y="-241" type="curve" smooth="yes"/>
			<point x="186" y="-241"/>
			<point x="147.667" y="-203.333"/>
			<point x="147.667" y="-134.333" type="curve" smooth="yes"/>
			<point x="147.667" y="-96.3333"/>
			<point x="180.667" y="-22.3333"/>
			<point x="214.667" y="39.6667" type="curve"/>
			<point x="66.6929" y="416.541" type="line" smooth="yes"/>
			<point x="54.7158" y="447.063"/>
			<point x="46.3333" y="453"/>
		</contour>
		<contour>
			<point x="195" y="-144.183" type="curve" smooth="yes"/>
			<point x="195" y="-175.333"/>
			<point x="212.333" y="-202.333"/>
			<point x="244.094" y="-202.333" type="curve" smooth="yes"/>
			<point x="269.333" y="-202.333"/>
			<point x="291" y="-185.667"/>
			<point x="291" y="-152.686" type="curve" smooth="yes"/>
			<point x="291" y="-121.667"/>
			<point x="272.667" y="-73"/>
			<point x="245.333" y="-7" type="curve"/>
			<point x="243.333" y="-7" type="line"/>
			<point x="216.667" y="-58.3333"/>
			<point x="195" y="-109.333"/>
		</contour>
	</outline>
</glyph>
<glyph name="uni0266" format="2">
	<unicode hex="0266"/>
	<advance width="652"/>
	<outline>
		<contour>
			<point x="417.333" y="200" type="line"/>
			<point x="417.333" y="326" type="line" smooth="yes"/>
			<point x="417.333" y="404"/>
			<point x="383.333" y="440.333"/>
			<point x="322.333" y="440.333" type="curve" smooth="yes"/>
			<point x="248" y="440.333"/>
			<point x="204.333" y="387"/>
			<point x="204.333" y="319.667" type="curve"/>
			<point x="161" y="319.788" type="line"/>
			<point x="161" y="394.239" type="line"/>
			<point x="204.333" y="428.333" type="line" smooth="yes"/>
			<point x="265.554" y="476.348"/>
			<point x="312" y="502"/>
			<point x="377.581" y="502" type="curve" smooth="yes"/>
			<point x="477.667" y="502"/>
			<point x="530.333" y="443"/>
			<point x="530.333" y="344.333" type="curve" smooth="yes"/>
			<point x="530.333" y="200" type="line"/>
		</contour>
		<contour>
			<point x="19.6667" y="0" type="line"/>
			<point x="19.6667" y="32" type="line"/>
			<point x="86.6667" y="36.3333"/>
			<point x="91.3333" y="39"/>
			<point x="91.3333" y="87" type="curve" smooth="yes"/>
			<point x="91.3333" y="450" type="line"/>
			<point x="204.333" y="450" type="line"/>
			<point x="204.333" y="87" type="line" smooth="yes"/>
			<point x="204.333" y="39"/>
			<point x="209.667" y="36.3333"/>
			<point x="276" y="32" type="curve"/>
			<point x="276" y="0" type="line"/>
		</contour>
		<contour>
			<point x="91.3333" y="450" type="line"/>
			<point x="91.3333" y="460" type="line" smooth="yes"/>
			<point x="91.3333" y="663"/>
			<point x="192.333" y="748"/>
			<point x="306.333" y="748" type="curve" smooth="yes"/>
			<point x="427.946" y="748"/>
			<point x="482.202" y="701"/>
			<point x="482.202" y="663.298" type="curve" smooth="yes"/>
			<point x="482.202" y="628.334"/>
			<point x="443.157" y="605.176"/>
			<point x="417.4" y="605.176" type="curve" smooth="yes"/>
			<point x="404.157" y="605.176"/>
			<point x="392.976" y="611.076"/>
			<point x="380.065" y="634.542" type="curve" smooth="yes"/>
			<point x="361.587" y="668.285"/>
			<point x="338.519" y="703"/>
			<point x="297.857" y="703" type="curve" smooth="yes"/>
			<point x="230.962" y="703"/>
			<point x="204.333" y="608.667"/>
			<point x="204.333" y="528.667" type="curve" smooth="yes"/>
			<point x="204.333" y="450" type="line"/>
		</contour>
		<contour>
			<point x="530.333" y="87" type="line" smooth="yes"/>
			<point x="530.323" y="40.3333"/>
			<point x="537" y="36.3333"/>
			<point x="602" y="32" type="curve"/>
			<point x="602" y="0" type="line"/>
			<point x="349.667" y="0" type="line"/>
			<point x="349.667" y="32" type="line"/>
			<point x="407.667" y="36.3333"/>
			<point x="417.444" y="40.3333"/>
			<point x="417.333" y="87" type="curve" smooth="yes"/>
			<point x="417.07" y="200" type="line"/>
			<point x="530.342" y="200" type="line"/>
		</contour>
	</outline>
</glyph>
<glyph name="uni026A" format="2">
	<unicode hex="026A"/>
	<advance width="318"/>
	<outline>
		<contour>
			<point x="31" y="0" type="line"/>
			<point x="31" y="32" type="line"/>
			<point x="98" y="36.3333"/>
			<point x="102.667" y="39"/>
			<point x="102.667" y="87" type="curve" smooth="yes"/>
			<point x="102.667" y="403" type="line" smooth="yes"/>
			<point x="102.667" y="451"/>
			<point x="98" y="453.667"/>
			<point x="31" y="458" type="curve"/>
			<point x="31" y="490" type="line"/>
			<point x="287.333" y="490" type="line"/>
			<point x="287.333" y="458" type="line"/>
			<point x="220.333" y="453.667"/>
			<point x="215.667" y="451"/>
			<point x="215.667" y="403" type="curve" smooth="yes"/>
			<point x="215.667" y="87" type="line" smooth="yes"/>
			<point x="215.667" y="39"/>
			<point x="220.333" y="36.3333"/>
			<point x="287.333" y="32" type="curve"/>
			<point x="287.333" y="0" type="line"/>
		</contour>
	</outline>
</glyph>
<glyph name="uni026B" format="2">
	<unicode hex="026B"/>
	<advance width="453"/>
	<outline>
		<component base="l" xOffset="79"/>
		<contour>
			<point x="190.386" y="348.993" type="line"/>
			<point x="161.8" y="360.58"/>
			<point x="127.627" y="371.275"/>
			<point x="98.0058" y="371.275" type="curve" smooth="yes"/>
			<point x="62.7192" y="371.275"/>
			<point x="46.0526" y="355.275"/>
			<point x="24.0526" y="318.942" type="curve"/>
			<point x="0.719231" y="333.609" type="line"/>
			<point x="19.3859" y="374.587"/>
			<point x="50.3859" y="438.942"/>
			<point x="120.386" y="438.942" type="curve" smooth="yes"/>
			<point x="141.787" y="438.942"/>
			<point x="166.039" y="432.354"/>
			<point x="190.34" y="424.148" type="curve"/>
		</contour>
		<contour>
			<point x="263.269" y="404.587" type="line"/>
			<point x="291.855" y="392.999"/>
			<point x="326.029" y="382.304"/>
			<point x="355.649" y="382.304" type="curve" smooth="yes"/>
			<point x="390.936" y="382.304"/>
			<point x="407.603" y="398.304"/>
			<point x="429.603" y="434.637" type="curve"/>
			<point x="452.936" y="419.971" type="line"/>
			<point x="434.269" y="378.993"/>
			<point x="403.269" y="314.637"/>
			<point x="333.269" y="314.637" type="curve" smooth="yes"/>
			<point x="311.868" y="314.637"/>
			<point x="287.616" y="321.226"/>
			<point x="263.315" y="329.432" type="curve"/>
		</contour>
	</outline>
</glyph>
<glyph name="uni0276" format="2">
	<unicode hex="0276"/>
	<advance width="828"/>
	<outline>
		<contour>
			<point x="49" y="245" type="curve" smooth="yes"/>
			<point x="49" y="445"/>
			<point x="213" y="490"/>
			<point x="363" y="490" type="curve" smooth="yes"/>
			<point x="760" y="490" type="line"/>
			<point x="760" y="367" type="line"/>
			<point x="732" y="367" type="line"/>
			<point x="724" y="427"/>
			<point x="705" y="445"/>
			<point x="621" y="445" type="curve" smooth="yes"/>
			<point x="552.667" y="445" type="line" smooth="yes"/>
			<point x="529.667" y="445"/>
			<point x="525.667" y="440"/>
			<point x="525.667" y="422" type="curve" smooth="yes"/>
			<point x="525.667" y="279" type="line"/>
			<point x="608" y="279" type="line" smooth="yes"/>
			<point x="669" y="279"/>
			<point x="672" y="294"/>
			<point x="678" y="334" type="curve"/>
			<point x="706" y="334" type="line"/>
			<point x="706" y="179" type="line"/>
			<point x="678" y="179" type="line"/>
			<point x="672" y="221"/>
			<point x="669" y="234"/>
			<point x="608" y="234" type="curve" smooth="yes"/>
			<point x="525.667" y="234" type="line"/>
			<point x="525.667" y="105" type="line" smooth="yes"/>
			<point x="525.667" y="55"/>
			<point x="537.667" y="45"/>
			<point x="617.88" y="45" type="curve" smooth="yes"/>
			<point x="709" y="45"/>
			<point x="745" y="56"/>
			<point x="762" y="137" type="curve"/>
			<point x="790" y="137" type="line"/>
			<point x="779" y="0" type="line"/>
			<point x="363" y="0" type="line" smooth="yes"/>
			<point x="213" y="0"/>
			<point x="49" y="45"/>
		</contour>
		<contour>
			<point x="169.667" y="246.768" type="curve" smooth="yes"/>
			<point x="169.667" y="157"/>
			<point x="203" y="45"/>
			<point x="343" y="45" type="curve" smooth="yes"/>
			<point x="383" y="45"/>
			<point x="415" y="51"/>
			<point x="415" y="80" type="curve" smooth="yes"/>
			<point x="415" y="410" type="line" smooth="yes"/>
			<point x="415" y="439"/>
			<point x="385" y="445"/>
			<point x="345" y="445" type="curve" smooth="yes"/>
			<point x="205" y="445"/>
			<point x="169.667" y="339"/>
		</contour>
	</outline>
</glyph>
<glyph name="uni0279" format="2">
	<unicode hex="0279"/>
	<advance width="406"/>
	<outline>
		<contour>
			<point x="0.666667" y="44" type="curve" smooth="yes"/>
			<point x="0.666667" y="79.6667"/>
			<point x="23.3333" y="109"/>
			<point x="53.6667" y="109" type="curve" smooth="yes"/>
			<point x="63.3333" y="109"/>
			<point x="73.3333" y="105.667"/>
			<point x="82.3333" y="100.333" type="curve" smooth="yes"/>
			<point x="109" y="85.3333"/>
			<point x="125.333" y="78.6667"/>
			<point x="141.333" y="78.6667" type="curve" smooth="yes"/>
			<point x="164.667" y="78.6667"/>
			<point x="190.667" y="103.667"/>
			<point x="190.667" y="172.333" type="curve" smooth="yes"/>
			<point x="190.667" y="395" type="line" smooth="yes"/>
			<point x="190.667" y="432.333"/>
			<point x="184" y="438.667"/>
			<point x="161.333" y="442" type="curve" smooth="yes"/>
			<point x="124.333" y="447" type="line"/>
			<point x="124.333" y="475.667" type="line"/>
			<point x="296.667" y="502" type="line"/>
			<point x="303.667" y="496" type="line"/>
			<point x="303.667" y="95" type="line" smooth="yes"/>
			<point x="303.667" y="57.6667"/>
			<point x="310.333" y="51.3333"/>
			<point x="333" y="48" type="curve" smooth="yes"/>
			<point x="370" y="43" type="line"/>
			<point x="370" y="14.3333" type="line"/>
			<point x="203.667" y="-12" type="line"/>
			<point x="191.667" y="70.6667" type="line"/>
			<point x="128.333" y="11.6667"/>
			<point x="97.3333" y="-12"/>
			<point x="59.3333" y="-12" type="curve" smooth="yes"/>
			<point x="19.3333" y="-12"/>
			<point x="0.666667" y="15"/>
		</contour>
	</outline>
</glyph>
<glyph name="uni027F" format="2">
	<unicode hex="027F"/>
	<advance width="378"/>
	<outline>
		<contour>
			<point x="363" y="-230" type="line"/>
			<point x="187" y="-220.333" type="line"/>
			<point x="163.667" y="-212.538"/>
			<point x="162" y="-203.121"/>
			<point x="162" y="-181.667" type="curve"/>
			<point x="221.333" y="-131.879"/>
			<point x="225.333" y="-69.2445"/>
			<point x="225.333" y="-8.66667" type="curve" smooth="yes"/>
			<point x="225.333" y="88.9509"/>
			<point x="181.857" y="308.562"/>
			<point x="138.94" y="354.667" type="curve"/>
			<point x="118" y="422.899"/>
			<point x="94.0621" y="444.667"/>
			<point x="66.3226" y="428.209" type="curve"/>
			<point x="55.4794" y="417"/>
			<point x="51.4353" y="403.118"/>
			<point x="52.64" y="396.297" type="curve"/>
			<point x="52.8391" y="390.721"/>
			<point x="55.3768" y="392.131"/>
			<point x="52.4113" y="395.831" type="curve"/>
			<point x="40.8807" y="399.061"/>
			<point x="31.0758" y="417.333"/>
			<point x="34.8384" y="436.988" type="curve"/>
			<point x="43.3507" y="452.667"/>
			<point x="61" y="462.449"/>
			<point x="88.1564" y="428.333" type="curve"/>
			<point x="175.382" y="403.325"/>
			<point x="237.667" y="246.776"/>
			<point x="237.667" y="125.667" type="curve" smooth="yes"/>
			<point x="237.667" y="55.5109"/>
			<point x="235.667" y="-67.7584"/>
			<point x="206" y="-162.333" type="curve"/>
			<point x="206" y="-198.56"/>
			<point x="209.333" y="-204.269"/>
			<point x="256" y="-210.667" type="curve"/>
		</contour>
	</outline>
</glyph>
<glyph name="uni0282" format="2">
	<unicode hex="0282"/>
	<advance width="436"/>
	<outline>
		<contour>
			<point x="111.433" y="36.2181" type="line"/>
			<point x="111.433" y="5" type="line"/>
			<point x="104.341" y="5.1939"/>
			<point x="98.6667" y="3"/>
			<point x="98.6667" y="-6" type="curve" smooth="yes"/>
			<point x="98.6667" y="-131.45" type="line" smooth="yes"/>
			<point x="98.6667" y="-174.22"/>
			<point x="117.309" y="-188.667"/>
			<point x="139.155" y="-188.667" type="curve" smooth="yes"/>
			<point x="163.152" y="-188.667"/>
			<point x="173.272" y="-169.572"/>
			<point x="181.092" y="-152.647" type="curve" smooth="yes"/>
			<point x="190.173" y="-133.154"/>
			<point x="202.915" y="-118.333"/>
			<point x="222.568" y="-118.333" type="curve" smooth="yes"/>
			<point x="246.667" y="-118.333"/>
			<point x="270.422" y="-139.569"/>
			<point x="270.422" y="-168.766" type="curve" smooth="yes"/>
			<point x="270.422" y="-205.641"/>
			<point x="231.548" y="-242"/>
			<point x="155.054" y="-242" type="curve" smooth="yes"/>
			<point x="72.3833" y="-242"/>
			<point x="55.6667" y="-187.553"/>
			<point x="55.6667" y="-122.45" type="curve" smooth="yes"/>
			<point x="55.6667" y="-1" type="line"/>
			<point x="54.6667" y="36" type="line"/>
		</contour>
		<contour>
			<point x="44" y="173" type="line"/>
			<point x="76" y="173" type="line"/>
			<point x="98" y="89"/>
			<point x="145.667" y="26.6667"/>
			<point x="220.333" y="26.6667" type="curve" smooth="yes"/>
			<point x="271.667" y="26.6667"/>
			<point x="306.667" y="55.6667"/>
			<point x="306.667" y="103" type="curve" smooth="yes"/>
			<point x="306.667" y="163.667"/>
			<point x="248.333" y="189"/>
			<point x="202" y="204" type="curve" smooth="yes"/>
			<point x="116.333" y="231"/>
			<point x="51.6667" y="272.333"/>
			<point x="51.6667" y="357.667" type="curve" smooth="yes"/>
			<point x="51.6667" y="449"/>
			<point x="126.333" y="502"/>
			<point x="237.667" y="502" type="curve" smooth="yes"/>
			<point x="286.333" y="502"/>
			<point x="339.333" y="492"/>
			<point x="375" y="467.667" type="curve"/>
			<point x="375" y="345.333" type="line"/>
			<point x="343.333" y="345.333" type="line"/>
			<point x="332.333" y="411.333"/>
			<point x="295.333" y="463.333"/>
			<point x="230.667" y="463.333" type="curve" smooth="yes"/>
			<point x="184" y="463.333"/>
			<point x="150" y="435"/>
			<point x="150" y="393.667" type="curve" smooth="yes"/>
			<point x="150" y="339.333"/>
			<point x="208.333" y="317.333"/>
			<point x="254.667" y="301.667" type="curve" smooth="yes"/>
			<point x="354.333" y="269"/>
			<point x="408.333" y="228.333"/>
			<point x="408.333" y="145" type="curve" smooth="yes"/>
			<point x="408.333" y="48.3333"/>
			<point x="335" y="-12"/>
			<point x="215.667" y="-12" type="curve" smooth="yes"/>
			<point x="157" y="-12"/>
			<point x="91.3333" y="3"/>
			<point x="54.6667" y="36" type="curve"/>
		</contour>
	</outline>
</glyph>
<glyph name="uni0285" format="2">
	<unicode hex="0285"/>
	<advance width="373"/>
	<outline>
		<contour>
			<point x="175" y="100" type="line"/>
			<point x="175" y="281" type="line" smooth="yes"/>
			<point x="175" y="383.348"/>
			<point x="155.08" y="421.333"/>
			<point x="118.828" y="421.333" type="curve" smooth="yes"/>
			<point x="104.222" y="421.333"/>
			<point x="89.5953" y="415.179"/>
			<point x="75.9914" y="405.128" type="curve" smooth="yes"/>
			<point x="63.4041" y="395.852"/>
			<point x="44.8118" y="387"/>
			<point x="29.0598" y="387" type="curve" smooth="yes"/>
			<point x="2.72071" y="387"/>
			<point x="-17.6667" y="413"/>
			<point x="-17.6667" y="443.863" type="curve" smooth="yes"/>
			<point x="-17.6667" y="476"/>
			<point x="4" y="502"/>
			<point x="52.0964" y="502" type="curve" smooth="yes"/>
			<point x="182.239" y="502"/>
			<point x="288" y="401.184"/>
			<point x="288" y="260" type="curve" smooth="yes"/>
			<point x="288" y="100" type="line"/>
		</contour>
		<contour>
			<point x="175" y="99.8823" type="line"/>
			<point x="288" y="99.8823" type="line"/>
			<point x="288" y="0" type="line" smooth="yes"/>
			<point x="288" y="-21.4822"/>
			<point x="286.482" y="-46.6439"/>
			<point x="283.974" y="-66.6964" type="curve" smooth="yes"/>
			<point x="281.506" y="-86.4167"/>
			<point x="281" y="-101.226"/>
			<point x="281" y="-112.065" type="curve" smooth="yes"/>
			<point x="281" y="-189.322"/>
			<point x="306.667" y="-200.239"/>
			<point x="323.129" y="-200.239" type="curve" smooth="yes"/>
			<point x="340.667" y="-200.239"/>
			<point x="362.173" y="-186.785"/>
			<point x="387.667" y="-129" type="curve" smooth="yes"/>
			<point x="392.18" y="-118.771"/>
			<point x="403" y="-112"/>
			<point x="418.51" y="-112" type="curve" smooth="yes"/>
			<point x="446.74" y="-112"/>
			<point x="475" y="-133.91"/>
			<point x="475" y="-163.861" type="curve" smooth="yes"/>
			<point x="475" y="-203"/>
			<point x="426.706" y="-242"/>
			<point x="346.013" y="-242" type="curve" smooth="yes"/>
			<point x="216.741" y="-242"/>
			<point x="175" y="-126.096"/>
			<point x="175" y="-25" type="curve" smooth="yes"/>
		</contour>
	</outline>
</glyph>
<glyph name="uni0286" format="2">
	<unicode hex="0286"/>
	<advance width="362"/>
	<outline>
		<contour>
			<point x="-115" y="-130.087" type="curve" smooth="yes"/>
			<point x="-115" y="-63.2542"/>
			<point x="-56.2123" y="-16.3333"/>
			<point x="29.6884" y="-16.3333" type="curve" smooth="yes"/>
			<point x="70.1664" y="-16.3333"/>
			<point x="114.984" y="-27.1231"/>
			<point x="148.753" y="-44.552" type="curve"/>
			<point x="136.654" y="-57.5706" type="line"/>
			<point x="139.649" y="-38.8918"/>
			<point x="141.333" y="-5.21158"/>
			<point x="141.333" y="36" type="curve" smooth="yes"/>
			<point x="141.333" y="250" type="line"/>
			<point x="254.333" y="250" type="line"/>
			<point x="254.333" y="7" type="line" smooth="yes"/>
			<point x="254.333" y="-40.9137"/>
			<point x="250.866" y="-71.4634"/>
			<point x="242.148" y="-100.061" type="curve"/>
			<point x="272.53" y="-128.205"/>
			<point x="307.272" y="-174.548"/>
			<point x="331.556" y="-219.381" type="curve"/>
			<point x="298.333" y="-239" type="line"/>
			<point x="278.223" y="-205.097"/>
			<point x="238.189" y="-156.122"/>
			<point x="212.723" y="-134.146" type="curve"/>
			<point x="228.72" y="-135.912" type="line"/>
			<point x="190.271" y="-202.146"/>
			<point x="117.641" y="-242"/>
			<point x="27.9183" y="-242" type="curve" smooth="yes"/>
			<point x="-54.5076" y="-242"/>
			<point x="-115" y="-197.602"/>
		</contour>
		<contour>
			<point x="-56.3333" y="-129.934" type="curve" smooth="yes"/>
			<point x="-56.3333" y="-169.481"/>
			<point x="-21.9078" y="-195"/>
			<point x="29.8483" y="-195" type="curve" smooth="yes"/>
			<point x="88.3014" y="-195"/>
			<point x="121.51" y="-162.477"/>
			<point x="132.963" y="-92.5598" type="curve"/>
			<point x="104.205" y="-74.0304"/>
			<point x="72.5431" y="-64.6667"/>
			<point x="36.9812" y="-64.6667" type="curve" smooth="yes"/>
			<point x="-20.5265" y="-64.6667"/>
			<point x="-56.3333" y="-89.9429"/>
		</contour>
		<contour>
			<point x="141.333" y="250.126" type="line"/>
			<point x="141.333" y="527.667" type="line" smooth="yes"/>
			<point x="141.333" y="667.771"/>
			<point x="202.267" y="742"/>
			<point x="307.304" y="742" type="curve" smooth="yes"/>
			<point x="391" y="742"/>
			<point x="432.333" y="695.333"/>
			<point x="432.333" y="659.586" type="curve" smooth="yes"/>
			<point x="432.333" y="628.333"/>
			<point x="400.667" y="609.667"/>
			<point x="375.491" y="609.667" type="curve" smooth="yes"/>
			<point x="358.667" y="609.667"/>
			<point x="349.119" y="617.607"/>
			<point x="343.667" y="631" type="curve" smooth="yes"/>
			<point x="320.663" y="687.998"/>
			<point x="299" y="703.333"/>
			<point x="281.294" y="703.333" type="curve" smooth="yes"/>
			<point x="267" y="703.333"/>
			<point x="243.667" y="693.667"/>
			<point x="243.667" y="629.429" type="curve" smooth="yes"/>
			<point x="243.667" y="583.753"/>
			<point x="248.017" y="535.1"/>
			<point x="254.333" y="490" type="curve"/>
			<point x="254.333" y="250.109" type="line"/>
		</contour>
	</outline>
</glyph>
<glyph name="uni0287" format="2">
	<unicode hex="0287"/>
	<advance width="353"/>
	<outline>
		<contour>
			<point x="0.333333" y="454.667" type="line"/>
			<point x="38.3333" y="478.333"/>
			<point x="91" y="502"/>
			<point x="138.667" y="502" type="curve" smooth="yes"/>
			<point x="180.667" y="502"/>
			<point x="254" y="481.333"/>
			<point x="254" y="383" type="curve" smooth="yes"/>
			<point x="254" y="43.3333" type="line"/>
			<point x="321.333" y="43.3333" type="line"/>
			<point x="321.333" y="0" type="line"/>
			<point x="249.667" y="0" type="line"/>
			<point x="179.667" y="-126" type="line"/>
			<point x="141" y="-126" type="line"/>
			<point x="141" y="0" type="line"/>
			<point x="20.3333" y="0" type="line"/>
			<point x="20.3333" y="43.3333" type="line"/>
			<point x="141" y="43.3333" type="line"/>
			<point x="141" y="345" type="line" smooth="yes"/>
			<point x="141" y="417"/>
			<point x="111" y="442.333"/>
			<point x="75.6667" y="442.333" type="curve" smooth="yes"/>
			<point x="51.6667" y="442.333"/>
			<point x="30" y="439"/>
			<point x="9.33333" y="430.333" type="curve"/>
		</contour>
	</outline>
</glyph>
<glyph name="uni028F" format="2">
	<unicode hex="028F"/>
	<advance width="524"/>
	<outline>
		<contour>
			<point x="-2" y="461" type="curve"/>
			<point x="-2" y="490" type="line"/>
			<point x="247.667" y="490" type="line"/>
			<point x="247.667" y="461" type="line"/>
			<point x="206.667" y="456" type="line" smooth="yes"/>
			<point x="194.157" y="454.474"/>
			<point x="186.667" y="447.358"/>
			<point x="186.667" y="437" type="curve" smooth="yes"/>
			<point x="186.667" y="432.375"/>
			<point x="187.946" y="427.246"/>
			<point x="190.667" y="422" type="curve" smooth="yes"/>
			<point x="289" y="232.333" type="line"/>
			<point x="291" y="232.333" type="line"/>
			<point x="399.333" y="425" type="line" smooth="yes"/>
			<point x="401.42" y="428.707"/>
			<point x="402.333" y="432.729"/>
			<point x="402.333" y="437.66" type="curve" smooth="yes"/>
			<point x="402.333" y="448.188"/>
			<point x="396.168" y="454.931"/>
			<point x="386.333" y="456" type="curve" smooth="yes"/>
			<point x="340.333" y="461" type="line"/>
			<point x="340.333" y="490" type="line"/>
			<point x="527" y="490" type="line"/>
			<point x="527" y="461" type="line"/>
			<point x="485.621" y="455.089"/>
			<point x="474.495" y="447.98"/>
			<point x="455" y="415" type="curve" smooth="yes"/>
			<point x="322" y="190" type="line" smooth="yes"/>
			<point x="316.811" y="181.222"/>
			<point x="314" y="167.166"/>
			<point x="314" y="150" type="curve" smooth="yes"/>
			<point x="314" y="87" type="line" smooth="yes"/>
			<point x="314" y="37.2308"/>
			<point x="318.87" y="34.1268"/>
			<point x="405" y="29" type="curve"/>
			<point x="405" y="0" type="line"/>
			<point x="110" y="0" type="line"/>
			<point x="110" y="29" type="line"/>
			<point x="196.13" y="34.1268"/>
			<point x="201" y="37.2308"/>
			<point x="201" y="87" type="curve" smooth="yes"/>
			<point x="201" y="150" type="line" smooth="yes"/>
			<point x="201" y="159.116"/>
			<point x="194.913" y="179.913"/>
			<point x="189" y="191" type="curve" smooth="yes"/>
			<point x="69" y="416" type="line" smooth="yes"/>
			<point x="50.6048" y="450.491"/>
			<point x="45.406" y="453.786"/>
		</contour>
	</outline>
</glyph>
<glyph name="uni0292" format="2">
	<unicode hex="0292"/>
	<advance width="518"/>
	<outline>
		<contour>
			<point x="47.3333" y="-126.691" type="curve" smooth="yes"/>
			<point x="47.3333" y="-75.3333"/>
			<point x="87.6667" y="-64.6667"/>
			<point x="107.8" y="-64.6667" type="curve" smooth="yes"/>
			<point x="137.667" y="-64.6667"/>
			<point x="154.333" y="-88.3333"/>
			<point x="154.333" y="-118.311" type="curve" smooth="yes"/>
			<point x="154.333" y="-157.333"/>
			<point x="181.667" y="-202.667"/>
			<point x="244.566" y="-202.667" type="curve" smooth="yes"/>
			<point x="336" y="-202.667"/>
			<point x="358" y="-106.333"/>
			<point x="358" y="-41.1742" type="curve" smooth="yes"/>
			<point x="358" y="36.3333"/>
			<point x="327" y="125.333"/>
			<point x="245.084" y="125.333" type="curve" smooth="yes"/>
			<point x="230" y="125.333"/>
			<point x="197.667" y="122.333"/>
			<point x="177.667" y="111.333" type="curve"/>
			<point x="154.667" y="144" type="line"/>
			<point x="160.333" y="161.333" type="line"/>
			<point x="360.667" y="402.667" type="line"/>
			<point x="215" y="402.667" type="line" smooth="yes"/>
			<point x="114" y="402.667"/>
			<point x="99.3333" y="386"/>
			<point x="88.6667" y="297.333" type="curve"/>
			<point x="55" y="297.333" type="line"/>
			<point x="55" y="490" type="line"/>
			<point x="447.667" y="490" type="line"/>
			<point x="456.667" y="473.667" type="line"/>
			<point x="451.333" y="455" type="line"/>
			<point x="447.667" y="438.333"/>
			<point x="432" y="415.667"/>
			<point x="408.333" y="387" type="curve" smooth="yes"/>
			<point x="226.667" y="171.333" type="line"/>
			<point x="228.667" y="169.333" type="line"/>
			<point x="234.667" y="172.333"/>
			<point x="271.333" y="175.333"/>
			<point x="282.333" y="175.333" type="curve" smooth="yes"/>
			<point x="400.333" y="175.333"/>
			<point x="479.667" y="101.667"/>
			<point x="479.667" y="-30.5735" type="curve" smooth="yes"/>
			<point x="479.667" y="-167.667"/>
			<point x="384.333" y="-241.333"/>
			<point x="256.809" y="-241.333" type="curve" smooth="yes"/>
			<point x="180.088" y="-241.333"/>
			<point x="47.3333" y="-219.964"/>
		</contour>
	</outline>
</glyph>
<glyph name="uni0293" format="2">
	<unicode hex="0293"/>
	<advance width="514"/>
	<outline>
		<contour>
			<point x="323.97" y="-113.59" type="line"/>
			<point x="352.411" y="-104.906"/>
			<point x="357.333" y="-63.5552"/>
			<point x="357.333" y="-40.4451" type="curve" smooth="yes"/>
			<point x="357.333" y="36.3333"/>
			<point x="326.333" y="125.333"/>
			<point x="244.417" y="125.333" type="curve" smooth="yes"/>
			<point x="229.333" y="125.333"/>
			<point x="197" y="122.333"/>
			<point x="177" y="111.333" type="curve"/>
			<point x="154" y="144" type="line"/>
			<point x="159.667" y="161.333" type="line"/>
			<point x="360" y="402.667" type="line"/>
			<point x="214.333" y="402.667" type="line" smooth="yes"/>
			<point x="113.333" y="402.667"/>
			<point x="98.6667" y="386"/>
			<point x="88" y="297.333" type="curve"/>
			<point x="54.3333" y="297.333" type="line"/>
			<point x="54.3333" y="490" type="line"/>
			<point x="447.488" y="490" type="line"/>
			<point x="456.535" y="473.667" type="line"/>
			<point x="451.176" y="455" type="line"/>
			<point x="447.488" y="438.333"/>
			<point x="431.8" y="415.667"/>
			<point x="408.019" y="387" type="curve" smooth="yes"/>
			<point x="226" y="171.333" type="line"/>
			<point x="228" y="169.333" type="line"/>
			<point x="234" y="172.333"/>
			<point x="270.667" y="175.333"/>
			<point x="281.667" y="175.333" type="curve" smooth="yes"/>
			<point x="399.968" y="175.333"/>
			<point x="479.667" y="101.667"/>
			<point x="479.667" y="-33.2762" type="curve" smooth="yes"/>
			<point x="479.667" y="-109.436"/>
			<point x="435.01" y="-157.591"/>
			<point x="384.355" y="-177.662" type="curve"/>
		</contour>
		<contour>
			<point x="118.672" y="-116.451" type="curve" smooth="yes"/>
			<point x="118.672" y="-176.667"/>
			<point x="178.159" y="-202.667"/>
			<point x="247" y="-202.667" type="curve" smooth="yes"/>
			<point x="319" y="-202.667"/>
			<point x="353" y="-145.667"/>
			<point x="364" y="-88" type="curve"/>
			<point x="326" y="-58"/>
			<point x="283" y="-40.1295"/>
			<point x="238" y="-40.1295" type="curve" smooth="yes"/>
			<point x="180.159" y="-40.1295"/>
			<point x="118.672" y="-54.1295"/>
		</contour>
		<contour>
			<point x="521.627" y="-218.922" type="curve"/>
			<point x="489" y="-239" type="line"/>
			<point x="474" y="-214"/>
			<point x="457" y="-186"/>
			<point x="436" y="-160" type="curve"/>
			<point x="398" y="-213"/>
			<point x="332" y="-242"/>
			<point x="250.229" y="-242" type="curve" smooth="yes"/>
			<point x="150.334" y="-242"/>
			<point x="60" y="-205.611"/>
			<point x="60" y="-115.677" type="curve" smooth="yes"/>
			<point x="60" y="-21.5326"/>
			<point x="153" y="4.66446"/>
			<point x="232" y="4.66446" type="curve" smooth="yes"/>
			<point x="363.75" y="4.66446"/>
			<point x="469.162" y="-106.948"/>
		</contour>
	</outline>
</glyph>
<glyph name="uni029D" format="2">
	<unicode hex="029D"/>
	<advance width="360"/>
	<outline>
		<contour>
			<point x="-79.6667" y="-130.087" type="curve" smooth="yes"/>
			<point x="-79.6667" y="-63.2542"/>
			<point x="-20.879" y="-16.3333"/>
			<point x="65.0218" y="-16.3333" type="curve" smooth="yes"/>
			<point x="105.5" y="-16.3333"/>
			<point x="150.318" y="-27.1231"/>
			<point x="184.086" y="-44.552" type="curve"/>
			<point x="171.988" y="-57.5706" type="line"/>
			<point x="174.982" y="-38.8918"/>
			<point x="176.667" y="-5.21158"/>
			<point x="176.667" y="36" type="curve" smooth="yes"/>
			<point x="176.667" y="250" type="line"/>
			<point x="289.667" y="250" type="line"/>
			<point x="289.667" y="7" type="line" smooth="yes"/>
			<point x="289.667" y="-40.9137"/>
			<point x="286.199" y="-71.4634"/>
			<point x="277.481" y="-100.061" type="curve"/>
			<point x="307.864" y="-128.205"/>
			<point x="342.605" y="-174.548"/>
			<point x="366.889" y="-219.381" type="curve"/>
			<point x="333.667" y="-239" type="line"/>
			<point x="313.557" y="-205.097"/>
			<point x="273.522" y="-156.122"/>
			<point x="248.056" y="-134.146" type="curve"/>
			<point x="264.053" y="-135.912" type="line"/>
			<point x="225.605" y="-202.146"/>
			<point x="152.975" y="-242"/>
			<point x="63.2516" y="-242" type="curve" smooth="yes"/>
			<point x="-19.1743" y="-242"/>
			<point x="-79.6667" y="-197.602"/>
		</contour>
		<contour>
			<point x="-21" y="-129.934" type="curve" smooth="yes"/>
			<point x="-21" y="-169.481"/>
			<point x="13.4255" y="-195"/>
			<point x="65.1816" y="-195" type="curve" smooth="yes"/>
			<point x="123.635" y="-195"/>
			<point x="156.843" y="-162.477"/>
			<point x="168.296" y="-92.5598" type="curve"/>
			<point x="139.538" y="-74.0304"/>
			<point x="107.876" y="-64.6667"/>
			<point x="72.3146" y="-64.6667" type="curve" smooth="yes"/>
			<point x="14.8068" y="-64.6667"/>
			<point x="-21" y="-89.9429"/>
		</contour>
		<contour>
			<point x="176.667" y="250" type="line"/>
			<point x="176.667" y="395" type="line" smooth="yes"/>
			<point x="176.667" y="431"/>
			<point x="170" y="438.667"/>
			<point x="147.333" y="442" type="curve" smooth="yes"/>
			<point x="110.333" y="447" type="line"/>
			<point x="110.333" y="475.667" type="line"/>
			<point x="282.667" y="502" type="line"/>
			<point x="289.667" y="496" type="line"/>
			<point x="289.667" y="250" type="line"/>
		</contour>
		<contour>
			<point x="160.333" y="647" type="curve" smooth="yes"/>
			<point x="160.333" y="686.667"/>
			<point x="188.667" y="716.667"/>
			<point x="231.333" y="716.667" type="curve" smooth="yes"/>
			<point x="274.333" y="716.667"/>
			<point x="302.667" y="686.667"/>
			<point x="302.667" y="647" type="curve" smooth="yes"/>
			<point x="302.667" y="607"/>
			<point x="273.667" y="577"/>
			<point x="231.333" y="577" type="curve" smooth="yes"/>
			<point x="188.667" y="577"/>
			<point x="160.333" y="607"/>
		</contour>
	</outline>
</glyph>
<glyph name="uni029E" format="2">
	<unicode hex="029E"/>
	<advance width="551"/>
	<outline>
		<contour>
			<point x="-5.66667" y="464" type="curve"/>
			<point x="-5.66667" y="493.333" type="line"/>
			<point x="74.3333" y="491.333" type="line" smooth="yes"/>
			<point x="120" y="490"/>
			<point x="159.333" y="477.667"/>
			<point x="195.667" y="437.667" type="curve" smooth="yes"/>
			<point x="245.667" y="382"/>
			<point x="306.333" y="301.333"/>
			<point x="345" y="236" type="curve"/>
			<point x="347" y="236" type="line"/>
			<point x="347" y="403" type="line" smooth="yes"/>
			<point x="347" y="451"/>
			<point x="341.667" y="453.667"/>
			<point x="275.333" y="458" type="curve"/>
			<point x="275.333" y="490" type="line"/>
			<point x="531.667" y="490" type="line"/>
			<point x="531.667" y="458" type="line"/>
			<point x="464.667" y="453.667"/>
			<point x="460" y="451"/>
			<point x="460" y="403" type="curve" smooth="yes"/>
			<point x="460" y="-138.333" type="line" smooth="yes"/>
			<point x="460" y="-177"/>
			<point x="466.667" y="-183.333"/>
			<point x="489.333" y="-186.333" type="curve" smooth="yes"/>
			<point x="526.333" y="-191" type="line"/>
			<point x="526.333" y="-219.667" type="line"/>
			<point x="354" y="-245.333" type="line"/>
			<point x="347" y="-239.333" type="line"/>
			<point x="347" y="220.667" type="line"/>
			<point x="345" y="220.667" type="line"/>
			<point x="327.657" y="195.153"/>
			<point x="241.892" y="84.4858"/>
			<point x="220.333" y="58" type="curve" smooth="yes"/>
			<point x="199.333" y="31.3333"/>
			<point x="186.667" y="18.3333"/>
			<point x="157.667" y="10" type="curve"/>
			<point x="137.443" y="2.66667"/>
			<point x="87.675" y="0"/>
			<point x="69.3333" y="0" type="curve"/>
			<point x="21" y="18.6667" type="line"/>
			<point x="59.6667" y="25.1261"/>
			<point x="76.3333" y="39.5533"/>
			<point x="99" y="58" type="curve"/>
			<point x="149.667" y="80.6667"/>
			<point x="191.333" y="114.667"/>
			<point x="241" y="168.333" type="curve" smooth="yes"/>
			<point x="249.761" y="177.761"/>
			<point x="252.455" y="185.121"/>
			<point x="250.333" y="191" type="curve"/>
			<point x="207.333" y="255"/>
			<point x="136.667" y="344.333"/>
			<point x="73" y="410" type="curve" smooth="yes"/>
			<point x="42.3333" y="442"/>
			<point x="21.3333" y="456"/>
		</contour>
	</outline>
</glyph>
<glyph name="uni029F" format="2">
	<unicode hex="029F"/>
	<advance width="483"/>
	<outline>
		<contour>
			<point x="32" y="0" type="line"/>
			<point x="32" y="32" type="line"/>
			<point x="104" y="37.5556"/>
			<point x="107" y="39.665"/>
			<point x="107" y="90.5817" type="curve" smooth="yes"/>
			<point x="107" y="400.095" type="line" smooth="yes"/>
			<point x="107" y="451.011"/>
			<point x="104" y="453.008"/>
			<point x="32" y="458" type="curve"/>
			<point x="32" y="490" type="line"/>
			<point x="295" y="490" type="line"/>
			<point x="295" y="458" type="line"/>
			<point x="228.586" y="453.34"/>
			<point x="220" y="451.343"/>
			<point x="220" y="401.093" type="curve" smooth="yes"/>
			<point x="220" y="93.5768" type="line" smooth="yes"/>
			<point x="220" y="42.6601"/>
			<point x="235.598" y="38.6667"/>
			<point x="285" y="38.6667" type="curve" smooth="yes"/>
			<point x="296" y="38.6667" type="line" smooth="yes"/>
			<point x="396.109" y="38.6667"/>
			<point x="412" y="62.6275"/>
			<point x="425" y="138.503" type="curve"/>
			<point x="458.333" y="138.503" type="line"/>
			<point x="449.333" y="0" type="line"/>
		</contour>
	</outline>
</glyph>
<glyph name="uni02A0" format="2">
	<unicode hex="02A0"/>
	<advance width="591"/>
	<outline>
		<component base="q"/>
		<contour>
			<point x="402.706" y="400.078" type="line"/>
			<point x="402.706" y="524.961" type="line" smooth="yes"/>
			<point x="402.706" y="626.057"/>
			<point x="444.447" y="741.961"/>
			<point x="573.719" y="741.961" type="curve" smooth="yes"/>
			<point x="654.413" y="741.961"/>
			<point x="702.706" y="702.961"/>
			<point x="702.706" y="663.822" type="curve" smooth="yes"/>
			<point x="702.706" y="633.871"/>
			<point x="674.446" y="611.961"/>
			<point x="646.217" y="611.961" type="curve" smooth="yes"/>
			<point x="630.706" y="611.961"/>
			<point x="619.886" y="618.732"/>
			<point x="615.373" y="628.961" type="curve" smooth="yes"/>
			<point x="589.879" y="686.746"/>
			<point x="568.373" y="700.199"/>
			<point x="550.835" y="700.199" type="curve" smooth="yes"/>
			<point x="534.373" y="700.199"/>
			<point x="508.706" y="689.283"/>
			<point x="508.706" y="612.026" type="curve" smooth="yes"/>
			<point x="508.706" y="601.187"/>
			<point x="509.212" y="586.377"/>
			<point x="511.68" y="566.657" type="curve" smooth="yes"/>
			<point x="514.188" y="546.605"/>
			<point x="515.706" y="521.443"/>
			<point x="515.706" y="499.961" type="curve" smooth="yes"/>
			<point x="515.706" y="400.078" type="line"/>
		</contour>
	</outline>
	<guideline x="0" y="742" angle="0"/>
</glyph>
<glyph name="uni02AC" format="2">
	<unicode hex="02AC"/>
	<advance width="583"/>
	<outline>
		<contour>
			<point x="48.9355" y="672.602" type="curve"/>
			<point x="48.9355" y="691.81" type="line"/>
			<point x="189.102" y="691.81" type="line"/>
			<point x="189.102" y="672.602" type="line"/>
			<point x="168.96" y="670.802" type="line"/>
			<point x="160.234" y="669.712"/>
			<point x="156.515" y="666.794"/>
			<point x="156.515" y="660.243" type="curve" smooth="yes"/>
			<point x="156.515" y="658.219"/>
			<point x="156.699" y="655.614"/>
			<point x="157.862" y="652.394" type="curve"/>
			<point x="173.506" y="600.404"/>
			<point x="196.713" y="517.125"/>
			<point x="214.175" y="461.72" type="curve"/>
			<point x="215.614" y="461.72" type="line"/>
			<point x="282.409" y="687.008" type="line"/>
			<point x="335.228" y="687.008" type="line"/>
			<point x="355.612" y="623.373"/>
			<point x="386.555" y="525.407"/>
			<point x="407.777" y="461.72" type="curve"/>
			<point x="409.421" y="461.72" type="line"/>
			<point x="424.496" y="516.12"/>
			<point x="453.64" y="621.25"/>
			<point x="460.185" y="649.593" type="curve" smooth="yes"/>
			<point x="460.822" y="652.483"/>
			<point x="461.448" y="655.312"/>
			<point x="461.448" y="658.241" type="curve" smooth="yes"/>
			<point x="461.448" y="664.355"/>
			<point x="458.689" y="668.543"/>
			<point x="450.937" y="669.401" type="curve" smooth="yes"/>
			<point x="418.67" y="672.602" type="line"/>
			<point x="418.67" y="691.81" type="line"/>
			<point x="542.189" y="691.81" type="line"/>
			<point x="542.189" y="672.602" type="line"/>
			<point x="511.155" y="670.602"/>
			<point x="504.736" y="667.758"/>
			<point x="495.124" y="639.389" type="curve" smooth="yes"/>
			<point x="482.277" y="600.377"/>
			<point x="438.883" y="471.078"/>
			<point x="416.82" y="397.695" type="curve"/>
			<point x="362.973" y="397.695" type="line"/>
			<point x="343.114" y="458.729"/>
			<point x="312.56" y="550.498"/>
			<point x="291.863" y="611.579" type="curve"/>
			<point x="289.808" y="611.579" type="line"/>
			<point x="222.602" y="397.695" type="line"/>
			<point x="168.755" y="397.695" type="line"/>
			<point x="146.628" y="472.787"/>
			<point x="110.574" y="581.008"/>
			<point x="89.0123" y="646.792" type="curve" smooth="yes"/>
			<point x="81.8038" y="668.863"/>
			<point x="74.0092" y="671.002"/>
		</contour>
		<contour>
			<point x="48.9355" y="274.999" type="curve"/>
			<point x="48.9355" y="294.207" type="line"/>
			<point x="189.102" y="294.207" type="line"/>
			<point x="189.102" y="274.999" type="line"/>
			<point x="168.96" y="273.199" type="line"/>
			<point x="160.234" y="272.109"/>
			<point x="156.515" y="269.191"/>
			<point x="156.515" y="262.64" type="curve" smooth="yes"/>
			<point x="156.515" y="260.616"/>
			<point x="156.699" y="258.012"/>
			<point x="157.862" y="254.792" type="curve"/>
			<point x="173.506" y="202.801"/>
			<point x="196.713" y="119.522"/>
			<point x="214.175" y="64.1174" type="curve"/>
			<point x="215.614" y="64.1174" type="line"/>
			<point x="282.409" y="289.405" type="line"/>
			<point x="335.228" y="289.405" type="line"/>
			<point x="355.612" y="225.771"/>
			<point x="386.555" y="127.804"/>
			<point x="407.777" y="64.1174" type="curve"/>
			<point x="409.421" y="64.1174" type="line"/>
			<point x="424.496" y="118.517"/>
			<point x="453.64" y="223.647"/>
			<point x="460.185" y="251.99" type="curve" smooth="yes"/>
			<point x="460.822" y="254.88"/>
			<point x="461.448" y="257.709"/>
			<point x="461.448" y="260.638" type="curve" smooth="yes"/>
			<point x="461.448" y="266.752"/>
			<point x="458.689" y="270.941"/>
			<point x="450.937" y="271.798" type="curve" smooth="yes"/>
			<point x="418.67" y="274.999" type="line"/>
			<point x="418.67" y="294.207" type="line"/>
			<point x="542.189" y="294.207" type="line"/>
			<point x="542.189" y="274.999" type="line"/>
			<point x="511.155" y="272.999"/>
			<point x="504.736" y="270.155"/>
			<point x="495.124" y="241.786" type="curve" smooth="yes"/>
			<point x="482.277" y="202.774"/>
			<point x="438.883" y="73.4752"/>
			<point x="416.82" y="0.0925333" type="curve"/>
			<point x="362.973" y="0.0925333" type="line"/>
			<point x="343.114" y="61.1262"/>
			<point x="312.56" y="152.895"/>
			<point x="291.863" y="213.976" type="curve"/>
			<point x="289.808" y="213.976" type="line"/>
			<point x="222.602" y="0.0925333" type="line"/>
			<point x="168.755" y="0.0925333" type="line"/>
			<point x="146.628" y="75.184"/>
			<point x="110.574" y="183.405"/>
			<point x="89.0123" y="249.189" type="curve" smooth="yes"/>
			<point x="81.8038" y="271.26"/>
			<point x="74.0092" y="273.399"/>
		</contour>
	</outline>
</glyph>
<glyph name="uni02AD" format="2">
	<unicode hex="02AD"/>
	<advance width="514"/>
	<outline>
		<contour>
			<point x="50" y="398" type="line"/>
			<point x="50" y="646" type="line"/>
			<point x="464" y="646" type="line"/>
			<point x="464" y="398" type="line"/>
			<point x="380" y="398" type="line"/>
			<point x="380" y="564" type="line"/>
			<point x="134" y="564" type="line"/>
			<point x="134" y="398" type="line"/>
		</contour>
		<contour>
			<point x="49.9981" y="-0.2794" type="line"/>
			<point x="49.9981" y="247.721" type="line"/>
			<point x="463.998" y="247.721" type="line"/>
			<point x="463.998" y="-0.2794" type="line"/>
			<point x="379.998" y="-0.2794" type="line"/>
			<point x="379.998" y="165.721" type="line"/>
			<point x="133.998" y="165.721" type="line"/>
			<point x="133.998" y="-0.2794" type="line"/>
		</contour>
	</outline>
</glyph>
<glyph name="uni02B1" format="2">
	<unicode hex="02B1"/>
	<advance width="364"/>
	<outline>
		<contour>
			<point x="15" y="327.017" type="line"/>
			<point x="15" y="345.95" type="line"/>
			<point x="54.4" y="348.55"/>
			<point x="57.3333" y="351.35"/>
			<point x="57.3333" y="379.083" type="curve" smooth="yes"/>
			<point x="57.3333" y="600.4" type="line" smooth="yes"/>
			<point x="57.3333" y="722.35"/>
			<point x="118.217" y="776.033"/>
			<point x="186.367" y="776.033" type="curve" smooth="yes"/>
			<point x="259.483" y="776.033"/>
			<point x="291.633" y="747.283"/>
			<point x="291.633" y="724.766" type="curve" smooth="yes"/>
			<point x="291.633" y="703.683"/>
			<point x="267.933" y="689.917"/>
			<point x="252.878" y="689.917" type="curve" smooth="yes"/>
			<point x="244.8" y="689.917"/>
			<point x="237.85" y="693.75"/>
			<point x="229.017" y="710.283" type="curve"/>
			<point x="219.017" y="727.817"/>
			<point x="205.417" y="749.017"/>
			<point x="180.9" y="749.017" type="curve" smooth="yes"/>
			<point x="140.867" y="749.017"/>
			<point x="124.883" y="692.15"/>
			<point x="124.883" y="644.15" type="curve" smooth="yes"/>
			<point x="124.883" y="581" type="line"/>
			<point x="159.45" y="609.317"/>
			<point x="189.367" y="628.133"/>
			<point x="230.85" y="628.133" type="curve" smooth="yes"/>
			<point x="289.05" y="628.133"/>
			<point x="320.667" y="593.267"/>
			<point x="320.667" y="533.783" type="curve" smooth="yes"/>
			<point x="320.667" y="379.083" type="line"/>
			<point x="320.683" y="351.35"/>
			<point x="324.933" y="348.55"/>
			<point x="363.667" y="345.95" type="curve"/>
			<point x="363.667" y="327.017" type="line"/>
			<point x="212.5" y="327.017" type="line"/>
			<point x="212.5" y="345.95" type="line"/>
			<point x="247.3" y="348.55"/>
			<point x="253.117" y="351.35"/>
			<point x="253.117" y="379.083" type="curve" smooth="yes"/>
			<point x="253.117" y="522.783" type="line" smooth="yes"/>
			<point x="253.117" y="569.45"/>
			<point x="232.833" y="591.4"/>
			<point x="197.93" y="591.4" type="curve" smooth="yes"/>
			<point x="153.017" y="591.4"/>
			<point x="124.883" y="554.945"/>
			<point x="124.883" y="515.783" type="curve" smooth="yes"/>
			<point x="124.883" y="379.083" type="line" smooth="yes"/>
			<point x="124.883" y="351.35"/>
			<point x="129.15" y="348.55"/>
			<point x="167.9" y="345.95" type="curve"/>
			<point x="167.9" y="327.017" type="line"/>
		</contour>
	</outline>
</glyph>
<glyph name="uni02B7" format="2">
	<unicode hex="02B7"/>
	<advance width="461"/>
	<outline>
		<contour>
			<point x="-2.66667" y="602" type="curve"/>
			<point x="-2.66667" y="621" type="line"/>
			<point x="133.333" y="621" type="line"/>
			<point x="133.333" y="602" type="line"/>
			<point x="113.667" y="600" type="line" smooth="yes"/>
			<point x="105.497" y="599.18"/>
			<point x="101.649" y="596.128"/>
			<point x="101.649" y="590.041" type="curve" smooth="yes"/>
			<point x="101.649" y="588.028"/>
			<point x="102.367" y="585.053"/>
			<point x="103.333" y="581.667" type="curve" smooth="yes"/>
			<point x="158" y="390.667" type="line"/>
			<point x="159.333" y="390.667" type="line"/>
			<point x="224.667" y="616.333" type="line"/>
			<point x="275.667" y="616.333" type="line"/>
			<point x="346" y="390.667" type="line"/>
			<point x="348.333" y="390.667" type="line"/>
			<point x="397.667" y="579" type="line" smooth="yes"/>
			<point x="398.443" y="581.974"/>
			<point x="398.868" y="584.724"/>
			<point x="398.861" y="587.175" type="curve" smooth="yes"/>
			<point x="398.844" y="593.642"/>
			<point x="395.828" y="598.032"/>
			<point x="388.333" y="599" type="curve"/>
			<point x="357" y="602" type="line"/>
			<point x="357" y="621" type="line"/>
			<point x="477" y="621" type="line"/>
			<point x="477" y="602" type="line"/>
			<point x="446.667" y="600"/>
			<point x="440.172" y="597.176"/>
			<point x="431" y="568.667" type="curve" smooth="yes"/>
			<point x="355.333" y="327" type="line"/>
			<point x="302.667" y="327" type="line"/>
			<point x="233.333" y="541" type="line"/>
			<point x="232" y="541" type="line"/>
			<point x="166.333" y="327" type="line"/>
			<point x="113.667" y="327" type="line"/>
			<point x="36" y="576" type="line" smooth="yes"/>
			<point x="29.1657" y="598.056"/>
			<point x="22" y="600.667"/>
		</contour>
	</outline>
</glyph>
<glyph name="uni02BE" format="2">
	<unicode hex="02BE"/>
	<advance width="400"/>
	<outline>
		<contour>
			<point x="124" y="483.667" type="curve"/>
			<point x="124" y="533.333" type="line"/>
			<point x="183.333" y="533.333"/>
			<point x="225" y="566.667"/>
			<point x="225" y="622" type="curve" smooth="yes"/>
			<point x="225" y="677.333"/>
			<point x="183.333" y="710.667"/>
			<point x="124" y="710.667" type="curve"/>
			<point x="124" y="760.333" type="line"/>
			<point x="227.333" y="760.333"/>
			<point x="280.333" y="695.333"/>
			<point x="280.333" y="622" type="curve" smooth="yes"/>
			<point x="280.333" y="548.667"/>
			<point x="227.333" y="483.667"/>
		</contour>
	</outline>
</glyph>
<glyph name="uni02BF" format="2">
	<unicode hex="02BF"/>
	<advance width="400"/>
	<outline>
		<contour>
			<point x="278.167" y="483.667" type="curve"/>
			<point x="278.167" y="533.333" type="line"/>
			<point x="218.833" y="533.333"/>
			<point x="177.167" y="566.667"/>
			<point x="177.167" y="622" type="curve" smooth="yes"/>
			<point x="177.167" y="677.333"/>
			<point x="218.833" y="710.667"/>
			<point x="278.167" y="710.667" type="curve"/>
			<point x="278.167" y="760.333" type="line"/>
			<point x="174.833" y="760.333"/>
			<point x="121.833" y="695.333"/>
			<point x="121.833" y="622" type="curve" smooth="yes"/>
			<point x="121.833" y="548.667"/>
			<point x="174.833" y="483.667"/>
		</contour>
	</outline>
</glyph>
<glyph name="uni02D3" format="2">
	<unicode hex="02D3"/>
	<advance width="400"/>
	<outline>
		<contour>
			<point x="207.722" y="113.667" type="curve"/>
			<point x="207.722" y="163.333" type="line"/>
			<point x="198.167" y="163.333"/>
			<point x="191.611" y="196.667"/>
			<point x="191.611" y="252" type="curve" smooth="yes"/>
			<point x="191.611" y="307.333"/>
			<point x="198.167" y="340.667"/>
			<point x="207.722" y="340.667" type="curve"/>
			<point x="207.722" y="390.333" type="line"/>
			<point x="197.722" y="390.333"/>
			<point x="192.278" y="325.333"/>
			<point x="192.278" y="252" type="curve" smooth="yes"/>
			<point x="192.278" y="178.667"/>
			<point x="197.722" y="113.667"/>
		</contour>
	</outline>
</glyph>
<glyph name="uni02D7" format="2">
	<unicode hex="02D7"/>
	<advance width="400"/>
	<outline>
		<contour>
			<point x="51.6667" y="203.333" type="line"/>
			<point x="51.6667" y="295.667" type="line"/>
			<point x="77" y="295.667" type="line"/>
			<point x="80" y="280.667"/>
			<point x="83" y="275.667"/>
			<point x="103" y="275.667" type="curve" smooth="yes"/>
			<point x="297" y="275.667" type="line" smooth="yes"/>
			<point x="317" y="275.667"/>
			<point x="320" y="280.667"/>
			<point x="323" y="295.667" type="curve"/>
			<point x="348.333" y="295.667" type="line"/>
			<point x="348.333" y="203.333" type="line"/>
			<point x="323" y="203.333" type="line"/>
			<point x="320" y="218.333"/>
			<point x="317" y="223.333"/>
			<point x="297" y="223.333" type="curve" smooth="yes"/>
			<point x="103" y="223.333" type="line" smooth="yes"/>
			<point x="83" y="223.333"/>
			<point x="80" y="218.333"/>
			<point x="77" y="203.333" type="curve"/>
		</contour>
	</outline>
</glyph>
<glyph name="breve" format="2">
	<unicode hex="02D8"/>
	<advance width="410"/>
	<outline>
		<contour>
			<point x="60.6667" y="708" type="curve"/>
			<point x="89.3333" y="708" type="line"/>
			<point x="91.3333" y="686"/>
			<point x="109" y="635.667"/>
			<point x="205" y="635.667" type="curve" smooth="yes"/>
			<point x="301" y="635.667"/>
			<point x="318.667" y="686"/>
			<point x="320.667" y="708" type="curve"/>
			<point x="349.667" y="708" type="line"/>
			<point x="349.667" y="642.667"/>
			<point x="336" y="564"/>
			<point x="205.333" y="564" type="curve" smooth="yes"/>
			<point x="74.3333" y="564"/>
			<point x="60.6667" y="640.667"/>
		</contour>
	</outline>
</glyph>
<glyph name="tilde" format="2">
	<unicode hex="02DC"/>
	<advance width="410"/>
	<outline>
		<contour>
			<point x="205.019" y="665.949" type="line"/>
			<point x="233.605" y="654.362"/>
			<point x="267.778" y="643.667"/>
			<point x="297.399" y="643.667" type="curve" smooth="yes"/>
			<point x="332.685" y="643.667"/>
			<point x="349.352" y="659.667"/>
			<point x="371.352" y="696" type="curve"/>
			<point x="394.685" y="681.333" type="line"/>
			<point x="376.019" y="640.356"/>
			<point x="345.019" y="576"/>
			<point x="275.019" y="576" type="curve" smooth="yes"/>
			<point x="253.618" y="576"/>
			<point x="229.365" y="582.588"/>
			<point x="205.064" y="590.794" type="curve"/>
		</contour>
		<contour>
			<point x="205" y="590.384" type="line"/>
			<point x="176.414" y="601.971"/>
			<point x="142.241" y="612.667"/>
			<point x="112.62" y="612.667" type="curve" smooth="yes"/>
			<point x="77.3333" y="612.667"/>
			<point x="60.6667" y="596.667"/>
			<point x="38.6667" y="560.333" type="curve"/>
			<point x="15.3333" y="575" type="line"/>
			<point x="34" y="615.978"/>
			<point x="65" y="680.333"/>
			<point x="135" y="680.333" type="curve" smooth="yes"/>
			<point x="156.401" y="680.333"/>
			<point x="180.654" y="673.745"/>
			<point x="204.955" y="665.539" type="curve"/>
		</contour>
	</outline>
</glyph>
<glyph name="uni02DF" format="2">
	<unicode hex="02DF"/>
	<advance width="400"/>
	<outline>
		<contour>
			<point x="118.814" y="580.589" type="line"/>
			<point x="81.8089" y="617.594" type="line"/>
			<point x="162.89" y="698.675" type="line"/>
			<point x="78.2734" y="783.291" type="line"/>
			<point x="118.814" y="823.831" type="line"/>
			<point x="203.43" y="739.215" type="line"/>
			<point x="284.511" y="820.296" type="line"/>
			<point x="321.516" y="783.291" type="line"/>
			<point x="240.435" y="702.21" type="line"/>
			<point x="325.051" y="617.594" type="line"/>
			<point x="284.511" y="577.054" type="line"/>
			<point x="199.895" y="661.67" type="line"/>
		</contour>
	</outline>
</glyph>
<glyph name="uni02E0" format="2">
	<unicode hex="02E0"/>
	<advance width="300"/>
	<outline>
		<contour>
			<point x="-1" y="602" type="curve"/>
			<point x="-1" y="621" type="line"/>
			<point x="140.667" y="621" type="line"/>
			<point x="140.667" y="602" type="line"/>
			<point x="116" y="599" type="line" smooth="yes"/>
			<point x="108.294" y="598.156"/>
			<point x="104.828" y="595.202"/>
			<point x="104.837" y="589.751" type="curve" smooth="yes"/>
			<point x="104.84" y="587.433"/>
			<point x="105.513" y="584.55"/>
			<point x="106.667" y="581.333" type="curve" smooth="yes"/>
			<point x="170.333" y="404.667" type="line"/>
			<point x="172" y="404.667" type="line"/>
			<point x="235" y="581" type="line" smooth="yes"/>
			<point x="235.893" y="583.579"/>
			<point x="236.382" y="586.048"/>
			<point x="236.376" y="588.29" type="curve" smooth="yes"/>
			<point x="236.362" y="593.814"/>
			<point x="233.374" y="598.199"/>
			<point x="226" y="599" type="curve" smooth="yes"/>
			<point x="198.667" y="602" type="line"/>
			<point x="198.667" y="621" type="line"/>
			<point x="315.333" y="621" type="line"/>
			<point x="315.333" y="602" type="line"/>
			<point x="288.333" y="600.667"/>
			<point x="281.766" y="596.952"/>
			<point x="273" y="576" type="curve"/>
			<point x="254.373" y="534.642"/>
			<point x="209.481" y="423.701"/>
			<point x="188" y="368" type="curve"/>
			<point x="219" y="299"/>
			<point x="227" y="274.333"/>
			<point x="227" y="250.838" type="curve" smooth="yes"/>
			<point x="227" y="200"/>
			<point x="189.667" y="182"/>
			<point x="152.79" y="182" type="curve" smooth="yes"/>
			<point x="111.333" y="182"/>
			<point x="88.6667" y="204.667"/>
			<point x="88.6667" y="237.997" type="curve" smooth="yes"/>
			<point x="88.6667" y="269.333"/>
			<point x="109" y="313.333"/>
			<point x="129" y="350.667" type="curve"/>
			<point x="46.6344" y="559.015" type="line" smooth="yes"/>
			<point x="31.9907" y="595.47"/>
			<point x="26.0985" y="599.496"/>
		</contour>
		<contour>
			<point x="117" y="239.849" type="curve" smooth="yes"/>
			<point x="117" y="222"/>
			<point x="127" y="205.333"/>
			<point x="145.862" y="205.333" type="curve" smooth="yes"/>
			<point x="161" y="205.333"/>
			<point x="174.667" y="215.667"/>
			<point x="174.667" y="235.204" type="curve" smooth="yes"/>
			<point x="174.667" y="253.667"/>
			<point x="163.667" y="283.333"/>
			<point x="147" y="323" type="curve"/>
			<point x="146" y="323" type="line"/>
			<point x="131" y="292.333"/>
			<point x="117" y="261"/>
		</contour>
	</outline>
</glyph>
<glyph name="uni02E6" format="2">
	<unicode hex="02E6"/>
	<advance width="410"/>
	<outline>
		<contour>
			<point x="33" y="508" type="line"/>
			<point x="33" y="575.667" type="line"/>
			<point x="271.333" y="575.667" type="line"/>
			<point x="271.333" y="742" type="line"/>
			<point x="342" y="742" type="line"/>
			<point x="342" y="0" type="line"/>
			<point x="271.333" y="0" type="line"/>
			<point x="271.333" y="508" type="line"/>
		</contour>
	</outline>
</glyph>
<glyph name="uni0304" format="2">
	<unicode hex="0304"/>
	<outline>
		<contour>
			<point x="-280.167" y="662" type="line"/>
			<point x="-132" y="662" type="line"/>
			<point x="-132" y="593.667" type="line"/>
			<point x="-280.167" y="593.667" type="line"/>
		</contour>
		<contour>
			<point x="-280.167" y="593.667" type="line"/>
			<point x="-428" y="593.667" type="line"/>
			<point x="-428" y="662" type="line"/>
			<point x="-280.167" y="662" type="line"/>
		</contour>
	</outline>
	<anchor name="_top" x="-279.667" y="580"/>
	<anchor name="top" x="-280.333" y="714"/>
</glyph>
<glyph name="hookabovecomb" format="2">
	<unicode hex="0309"/>
	<outline>
		<contour>
			<point x="-318" y="752.667" type="curve" smooth="yes"/>
			<point x="-318" y="779.667"/>
			<point x="-287.333" y="819.333"/>
			<point x="-194.333" y="819.333" type="curve" smooth="yes"/>
			<point x="-126.333" y="819.333"/>
			<point x="-79" y="797.667"/>
			<point x="-79" y="754.667" type="curve" smooth="yes"/>
			<point x="-79" y="718.667"/>
			<point x="-112.667" y="700"/>
			<point x="-143" y="685.333" type="curve" smooth="yes"/>
			<point x="-173.333" y="671.333"/>
			<point x="-200.333" y="656"/>
			<point x="-200.333" y="630.667" type="curve" smooth="yes"/>
			<point x="-200.333" y="607.333"/>
			<point x="-175.667" y="600.333"/>
			<point x="-159" y="600.333" type="curve"/>
			<point x="-164.333" y="581" type="line"/>
			<point x="-173.333" y="577.667"/>
			<point x="-180.333" y="576"/>
			<point x="-189.333" y="576" type="curve" smooth="yes"/>
			<point x="-228" y="576"/>
			<point x="-253" y="607"/>
			<point x="-253" y="636.333" type="curve" smooth="yes"/>
			<point x="-253" y="665"/>
			<point x="-231" y="680.667"/>
			<point x="-206" y="695.333" type="curve" smooth="yes"/>
			<point x="-185.333" y="707.333"/>
			<point x="-162.667" y="722.667"/>
			<point x="-162.667" y="753.333" type="curve" smooth="yes"/>
			<point x="-162.667" y="775.667"/>
			<point x="-175.333" y="791.667"/>
			<point x="-203.382" y="791.667" type="curve" smooth="yes"/>
			<point x="-228" y="791.667"/>
			<point x="-253.333" y="780.333"/>
			<point x="-253.333" y="744" type="curve" smooth="yes"/>
			<point x="-253.333" y="725.934"/>
			<point x="-268" y="721.333"/>
			<point x="-280.667" y="721.333" type="curve" smooth="yes"/>
			<point x="-299" y="721.333"/>
			<point x="-318" y="731.667"/>
		</contour>
	</outline>
	<anchor name="_top" x="-215.667" y="580"/>
</glyph>
<glyph name="uni030B" format="2">
	<unicode hex="030B"/>
	<outline>
		<contour>
			<point x="-404.333" y="535.333" type="line"/>
			<point x="-352.667" y="684" type="line" smooth="yes"/>
			<point x="-342.667" y="712"/>
			<point x="-332.333" y="733"/>
			<point x="-306" y="733" type="curve" smooth="yes"/>
			<point x="-281.667" y="733"/>
			<point x="-254" y="714"/>
			<point x="-254" y="691" type="curve" smooth="yes"/>
			<point x="-254" y="675.667"/>
			<point x="-265.667" y="654.667"/>
			<point x="-286.667" y="628.667" type="curve" smooth="yes"/>
			<point x="-377.667" y="520.333" type="line"/>
		</contour>
		<contour>
			<point x="-241.333" y="535.333" type="line"/>
			<point x="-189.667" y="684" type="line" smooth="yes"/>
			<point x="-179.667" y="712"/>
			<point x="-169.333" y="733"/>
			<point x="-143" y="733" type="curve" smooth="yes"/>
			<point x="-118.667" y="733"/>
			<point x="-91" y="714"/>
			<point x="-91" y="691" type="curve" smooth="yes"/>
			<point x="-91" y="675.667"/>
			<point x="-102.667" y="654.667"/>
			<point x="-123.667" y="628.667" type="curve" smooth="yes"/>
			<point x="-214.667" y="520.333" type="line"/>
		</contour>
	</outline>
	<anchor name="_top" x="-295.667" y="520"/>
</glyph>
<glyph name="uni0311" format="2">
	<unicode hex="0311"/>
	<outline>
		<contour>
			<point x="-370.518" y="561.725" type="line"/>
			<point x="-370.518" y="623.725"/>
			<point x="-342.518" y="692.392"/>
			<point x="-215.518" y="692.392" type="curve" smooth="yes"/>
			<point x="-88.5176" y="692.392"/>
			<point x="-60.5176" y="623.725"/>
			<point x="-60.5176" y="561.725" type="curve"/>
			<point x="-92.8509" y="561.725" type="line"/>
			<point x="-94.8509" y="582.392"/>
			<point x="-119.851" y="624.058"/>
			<point x="-215.518" y="624.058" type="curve" smooth="yes"/>
			<point x="-311.184" y="624.058"/>
			<point x="-336.184" y="582.392"/>
			<point x="-338.184" y="561.725" type="curve"/>
		</contour>
	</outline>
</glyph>
<glyph name="uni0313" format="2">
	<unicode hex="0313"/>
	<outline>
		<contour>
			<point x="-247.02" y="550.163" type="line"/>
			<point x="-216.687" y="582.163"/>
			<point x="-199.323" y="605.588"/>
			<point x="-199.656" y="630.525" type="curve" smooth="yes"/>
			<point x="-200.045" y="651.984"/>
			<point x="-206.365" y="664.368"/>
			<point x="-216.171" y="678.736" type="curve" smooth="yes"/>
			<point x="-224.455" y="690.845"/>
			<point x="-231.323" y="703.543"/>
			<point x="-231.323" y="719.941" type="curve" smooth="yes"/>
			<point x="-231.323" y="746.888"/>
			<point x="-211.656" y="769.888"/>
			<point x="-178.817" y="769.888" type="curve" smooth="yes"/>
			<point x="-139.035" y="769.888"/>
			<point x="-114.923" y="736.888"/>
			<point x="-114.984" y="691.13" type="curve" smooth="yes"/>
			<point x="-115.052" y="628.164"/>
			<point x="-161.028" y="581.402"/>
			<point x="-227.02" y="531.163" type="curve"/>
		</contour>
	</outline>
	<anchor name="_tonos" x="-109" y="767.667"/>
	<guideline x="0" y="811" angle="0"/>
</glyph>
<glyph name="uni0314" format="2">
	<unicode hex="0314"/>
	<outline>
		<contour>
			<point x="-126.942" y="551" type="line"/>
			<point x="-157.276" y="583"/>
			<point x="-174.639" y="606.425"/>
			<point x="-174.306" y="631.362" type="curve" smooth="yes"/>
			<point x="-173.918" y="652.821"/>
			<point x="-167.597" y="665.205"/>
			<point x="-157.791" y="679.573" type="curve" smooth="yes"/>
			<point x="-149.507" y="691.683"/>
			<point x="-142.639" y="704.38"/>
			<point x="-142.639" y="720.778" type="curve" smooth="yes"/>
			<point x="-142.639" y="747.725"/>
			<point x="-162.306" y="770.725"/>
			<point x="-195.145" y="770.725" type="curve" smooth="yes"/>
			<point x="-234.928" y="770.725"/>
			<point x="-259.039" y="737.725"/>
			<point x="-258.978" y="691.968" type="curve" smooth="yes"/>
			<point x="-258.91" y="629.001"/>
			<point x="-212.935" y="582.239"/>
			<point x="-146.942" y="532" type="curve"/>
		</contour>
	</outline>
	<anchor name="_tonos" x="-109" y="767.667"/>
	<guideline x="0" y="811" angle="0"/>
</glyph>
<glyph name="uni032E" format="2">
	<unicode hex="032E"/>
	<outline>
		<contour>
			<point x="-349.333" y="-70.6667" type="curve"/>
			<point x="-320.667" y="-70.6667" type="line"/>
			<point x="-318.667" y="-92.6667"/>
			<point x="-301" y="-143"/>
			<point x="-205" y="-143" type="curve" smooth="yes"/>
			<point x="-109" y="-143"/>
			<point x="-91.3333" y="-92.6667"/>
			<point x="-89.3333" y="-70.6667" type="curve"/>
			<point x="-60.3333" y="-70.6667" type="line"/>
			<point x="-60.3333" y="-136"/>
			<point x="-74" y="-214.667"/>
			<point x="-204.667" y="-214.667" type="curve" smooth="yes"/>
			<point x="-335.667" y="-214.667"/>
			<point x="-349.333" y="-138"/>
		</contour>
	</outline>
</glyph>
<glyph name="uni0339" format="2">
	<unicode hex="0339"/>
	<outline>
		<contour>
			<point x="-276.064" y="-330.618" type="curve"/>
			<point x="-276.064" y="-280.951" type="line"/>
			<point x="-216.73" y="-280.951"/>
			<point x="-175.064" y="-247.618"/>
			<point x="-175.064" y="-192.285" type="curve" smooth="yes"/>
			<point x="-175.064" y="-136.951"/>
			<point x="-216.73" y="-103.618"/>
			<point x="-276.064" y="-103.618" type="curve"/>
			<point x="-276.064" y="-53.9513" type="line"/>
			<point x="-172.73" y="-53.9513"/>
			<point x="-119.73" y="-118.951"/>
			<point x="-119.73" y="-192.285" type="curve" smooth="yes"/>
			<point x="-119.73" y="-265.618"/>
			<point x="-172.73" y="-330.618"/>
		</contour>
	</outline>
</glyph>
<glyph name="uni0344" format="2">
	<unicode hex="0344"/>
	<advance width="400"/>
	<outline>
		<component base="dieresis" xOffset="-5"/>
		<contour>
			<point x="175.556" y="647.922" type="line"/>
			<point x="200.107" y="792.597" type="line" smooth="yes"/>
			<point x="208.858" y="844.113"/>
			<point x="222.501" y="859.943"/>
			<point x="250.252" y="859.66" type="curve" smooth="yes"/>
			<point x="275.158" y="859.4"/>
			<point x="296.217" y="846.359"/>
			<point x="295.23" y="822.817" type="curve" smooth="yes"/>
			<point x="294.691" y="810.041"/>
			<point x="287.295" y="793.751"/>
			<point x="275.693" y="773.106" type="curve" smooth="yes"/>
			<point x="203.442" y="641.852" type="line"/>
		</contour>
	</outline>
</glyph>
<glyph name="Xi" format="2">
	<unicode hex="039E"/>
	<advance width="740"/>
	<outline>
		<contour>
			<point x="55" y="0" type="line"/>
			<point x="55" y="173.333" type="line"/>
			<point x="87.3333" y="173.333" type="line"/>
			<point x="91.3333" y="115.333"/>
			<point x="97.3333" y="102.333"/>
			<point x="133.333" y="102.333" type="curve" smooth="yes"/>
			<point x="604.333" y="102.333" type="line" smooth="yes"/>
			<point x="642.333" y="102.333"/>
			<point x="649.333" y="113.333"/>
			<point x="655.333" y="166.333" type="curve"/>
			<point x="655.333" y="173.333" type="line"/>
			<point x="687.667" y="173.333" type="line"/>
			<point x="687.667" y="0" type="line"/>
		</contour>
		<contour>
			<point x="88" y="519.667" type="line"/>
			<point x="88" y="692" type="line"/>
			<point x="654.667" y="692" type="line"/>
			<point x="654.667" y="521.667" type="line"/>
			<point x="622.333" y="521.667" type="line"/>
			<point x="615.333" y="573.667"/>
			<point x="613.333" y="589.667"/>
			<point x="584.333" y="589.667" type="curve" smooth="yes"/>
			<point x="156.333" y="589.667" type="line" smooth="yes"/>
			<point x="128.333" y="589.667"/>
			<point x="125.333" y="573.667"/>
			<point x="120.333" y="519.667" type="curve"/>
		</contour>
		<contour>
			<point x="187" y="252.667" type="line"/>
			<point x="187" y="454" type="line"/>
			<point x="219.333" y="454" type="line"/>
			<point x="219.333" y="423"/>
			<point x="224.333" y="392"/>
			<point x="255.333" y="392" type="curve" smooth="yes"/>
			<point x="481.333" y="392" type="line" smooth="yes"/>
			<point x="522.333" y="392"/>
			<point x="526.333" y="422"/>
			<point x="526.333" y="454" type="curve"/>
			<point x="555.667" y="454" type="line"/>
			<point x="555.667" y="252.667" type="line"/>
			<point x="526.333" y="252.667" type="line"/>
			<point x="526.333" y="284.667"/>
			<point x="525.333" y="312.667"/>
			<point x="483.333" y="312.667" type="curve" smooth="yes"/>
			<point x="255.333" y="312.667" type="line" smooth="yes"/>
			<point x="218.333" y="312.667"/>
			<point x="218.333" y="285.667"/>
			<point x="218.333" y="252.667" type="curve"/>
		</contour>
	</outline>
</glyph>
<glyph name="Sigma" format="2">
	<unicode hex="03A3"/>
	<advance width="692"/>
	<outline>
		<contour>
			<point x="47" y="0" type="line"/>
			<point x="47" y="30" type="line"/>
			<point x="346.333" y="353.667" type="line"/>
			<point x="72.6667" y="662" type="line"/>
			<point x="72.6667" y="692" type="line"/>
			<point x="583.667" y="692" type="line"/>
			<point x="617.333" y="553" type="line"/>
			<point x="586.667" y="553" type="line"/>
			<point x="555.333" y="627.667"/>
			<point x="532.333" y="639.333"/>
			<point x="465.333" y="639.333" type="curve" smooth="yes"/>
			<point x="249" y="639.333" type="line"/>
			<point x="458.667" y="403" type="line"/>
			<point x="187" y="103.333" type="line"/>
			<point x="521" y="103.333" type="line" smooth="yes"/>
			<point x="570.333" y="103.333"/>
			<point x="583.333" y="109"/>
			<point x="618" y="167" type="curve"/>
			<point x="649.333" y="167" type="line"/>
			<point x="606.333" y="0" type="line"/>
		</contour>
	</outline>
</glyph>
<glyph name="uni03A9" format="2">
	<unicode hex="03A9"/>
	<advance width="805"/>
	<outline>
		<contour>
			<point x="37" y="159.333" type="line"/>
			<point x="69.3333" y="159.333" type="line"/>
			<point x="86.6667" y="103.333"/>
			<point x="99.3333" y="94.6667"/>
			<point x="147.667" y="94.6667" type="curve" smooth="yes"/>
			<point x="257" y="94.6667" type="line"/>
			<point x="198.667" y="140.667"/>
			<point x="72.3333" y="269"/>
			<point x="72.3333" y="433.413" type="curve" smooth="yes"/>
			<point x="72.3333" y="635"/>
			<point x="266.333" y="704"/>
			<point x="413" y="704" type="curve" smooth="yes"/>
			<point x="559.667" y="704"/>
			<point x="753.667" y="635"/>
			<point x="753.667" y="432.466" type="curve" smooth="yes"/>
			<point x="753.667" y="269"/>
			<point x="627.333" y="140.667"/>
			<point x="569" y="94.6667" type="curve"/>
			<point x="677.667" y="94.6667" type="line" smooth="yes"/>
			<point x="726" y="94.6667"/>
			<point x="738.667" y="103.333"/>
			<point x="756" y="159.333" type="curve"/>
			<point x="789" y="159.333" type="line"/>
			<point x="763" y="0" type="line"/>
			<point x="472.333" y="0" type="line"/>
			<point x="471.333" y="0"/>
			<point x="463" y="23.6667"/>
			<point x="463" y="25.3333" type="curve"/>
			<point x="597" y="179"/>
			<point x="618" y="318.333"/>
			<point x="618" y="430.333" type="curve" smooth="yes"/>
			<point x="618" y="566"/>
			<point x="538.667" y="660.333"/>
			<point x="412" y="660.333" type="curve" smooth="yes"/>
			<point x="286.667" y="660.333"/>
			<point x="208" y="566"/>
			<point x="208" y="430.333" type="curve" smooth="yes"/>
			<point x="208" y="318.333"/>
			<point x="229" y="179"/>
			<point x="363" y="25.3333" type="curve"/>
			<point x="363" y="23.6667"/>
			<point x="354.667" y="0"/>
			<point x="353.667" y="0" type="curve"/>
			<point x="63" y="0" type="line"/>
		</contour>
	</outline>
	<anchor name="tonos" x="58.6667" y="702"/>
</glyph>
<glyph name="alpha" format="2">
	<unicode hex="03B1"/>
	<advance width="633"/>
	<outline>
		<contour>
			<point x="38" y="227" type="curve" smooth="yes"/>
			<point x="38" y="349"/>
			<point x="80" y="502"/>
			<point x="268" y="502" type="curve" smooth="yes"/>
			<point x="383.667" y="502"/>
			<point x="430.333" y="471.667"/>
			<point x="461.667" y="347" type="curve"/>
			<point x="510.333" y="490" type="line"/>
			<point x="600.333" y="490" type="line"/>
			<point x="486.667" y="269" type="line"/>
			<point x="502" y="161"/>
			<point x="521.333" y="44.6667"/>
			<point x="563.667" y="44.6667" type="curve" smooth="yes"/>
			<point x="577" y="44.6667"/>
			<point x="590.333" y="48.6667"/>
			<point x="595.333" y="51.6667" type="curve"/>
			<point x="609.667" y="26" type="line"/>
			<point x="599.333" y="14"/>
			<point x="567.667" y="-12"/>
			<point x="521.333" y="-12" type="curve" smooth="yes"/>
			<point x="451" y="-12"/>
			<point x="418" y="46.3333"/>
			<point x="404.667" y="110" type="curve"/>
			<point x="374.667" y="48.3333"/>
			<point x="325.333" y="-12"/>
			<point x="246.333" y="-12" type="curve" smooth="yes"/>
			<point x="92.3333" y="-12"/>
			<point x="38" y="115"/>
		</contour>
		<contour>
			<point x="157" y="229.333" type="curve" smooth="yes"/>
			<point x="157" y="151.667"/>
			<point x="180" y="45.6667"/>
			<point x="252" y="45.6667" type="curve" smooth="yes"/>
			<point x="316.667" y="45.6667"/>
			<point x="352" y="118"/>
			<point x="385.667" y="200.667" type="curve"/>
			<point x="375.667" y="307"/>
			<point x="349.333" y="463.333"/>
			<point x="276.333" y="463.333" type="curve" smooth="yes"/>
			<point x="178" y="463.333"/>
			<point x="157" y="334.667"/>
		</contour>
	</outline>
	<anchor name="bottom.jota" x="203" y="-60"/>
	<guideline x="0" y="-242" angle="0"/>
</glyph>
<glyph name="gamma" format="2">
	<unicode hex="03B3"/>
	<advance width="558"/>
	<outline>
		<contour>
			<point x="41" y="458.667" type="line"/>
			<point x="57" y="477.333"/>
			<point x="94.6667" y="501.333"/>
			<point x="141" y="501.333" type="curve" smooth="yes"/>
			<point x="216" y="501.333"/>
			<point x="255.667" y="451"/>
			<point x="280" y="377" type="curve" smooth="yes"/>
			<point x="304.333" y="302"/>
			<point x="316.667" y="212.667"/>
			<point x="326.667" y="135.667" type="curve"/>
			<point x="357.333" y="265"/>
			<point x="413" y="502.667"/>
			<point x="516" y="502.667" type="curve" smooth="yes"/>
			<point x="563.667" y="502.667"/>
			<point x="578.333" y="482.333"/>
			<point x="578.333" y="461.667" type="curve" smooth="yes"/>
			<point x="578.333" y="380.333"/>
			<point x="504" y="415.333"/>
			<point x="451.333" y="336.667" type="curve" smooth="yes"/>
			<point x="417" y="285.667"/>
			<point x="367" y="122.333"/>
			<point x="347.667" y="39.3333" type="curve"/>
			<point x="347.667" y="39.3333"/>
			<point x="368.667" y="-158.333"/>
			<point x="368.667" y="-204.333" type="curve" smooth="yes"/>
			<point x="368.667" y="-220.333"/>
			<point x="309.333" y="-247"/>
			<point x="276.333" y="-247" type="curve" smooth="yes"/>
			<point x="256" y="-247"/>
			<point x="240.667" y="-243.667"/>
			<point x="240.667" y="-236.667" type="curve" smooth="yes"/>
			<point x="240.667" y="-191.667"/>
			<point x="256.333" y="-66.3333"/>
			<point x="273" y="11.6667" type="curve"/>
			<point x="258.667" y="89.3333"/>
			<point x="229.333" y="191.333"/>
			<point x="199.333" y="272.667" type="curve" smooth="yes"/>
			<point x="164" y="368"/>
			<point x="127.333" y="440.333"/>
			<point x="87.3333" y="440.333" type="curve" smooth="yes"/>
			<point x="76.3333" y="440.333"/>
			<point x="63.3333" y="437.667"/>
			<point x="55.3333" y="433.333" type="curve"/>
		</contour>
	</outline>
</glyph>
<glyph name="iota" format="2">
	<unicode hex="03B9"/>
	<advance width="327"/>
	<outline>
		<contour>
			<point x="64.3333" y="124" type="curve" smooth="yes"/>
			<point x="64.3333" y="490" type="line"/>
			<point x="177" y="502" type="line"/>
			<point x="177" y="186" type="line" smooth="yes"/>
			<point x="177" y="83"/>
			<point x="182.667" y="45"/>
			<point x="230.667" y="45" type="curve" smooth="yes"/>
			<point x="246.333" y="45"/>
			<point x="256.333" y="47"/>
			<point x="264.333" y="52" type="curve"/>
			<point x="279" y="27" type="line"/>
			<point x="269" y="15"/>
			<point x="226.333" y="-12"/>
			<point x="172.333" y="-12" type="curve" smooth="yes"/>
			<point x="87" y="-12"/>
			<point x="64.3333" y="36"/>
		</contour>
	</outline>
</glyph>
<glyph name="rho" format="2">
	<unicode hex="03C1"/>
	<advance width="566"/>
	<outline>
		<contour>
			<point x="52.6667" y="191" type="line"/>
			<point x="52.6667" y="349.667"/>
			<point x="88.4948" y="502"/>
			<point x="274.833" y="502" type="curve" smooth="yes"/>
			<point x="435.539" y="502"/>
			<point x="522.667" y="388"/>
			<point x="522.667" y="254" type="curve" smooth="yes"/>
			<point x="522.667" y="86"/>
			<point x="442.716" y="-12"/>
			<point x="307.045" y="-12" type="curve" smooth="yes"/>
			<point x="253.327" y="-12"/>
			<point x="186.703" y="3.33333"/>
			<point x="154.113" y="43.3333" type="curve"/>
			<point x="173.272" y="-243" type="line"/>
			<point x="52.7354" y="-218" type="line"/>
		</contour>
		<contour>
			<point x="169" y="252.652" type="curve" smooth="yes"/>
			<point x="169" y="172.333"/>
			<point x="207.353" y="27.6667"/>
			<point x="298.279" y="27.6667" type="curve" smooth="yes"/>
			<point x="384.043" y="27.6667"/>
			<point x="406.333" y="156.333"/>
			<point x="406.333" y="232.002" type="curve" smooth="yes"/>
			<point x="406.333" y="311"/>
			<point x="382.075" y="460.333"/>
			<point x="283.295" y="460.333" type="curve" smooth="yes"/>
			<point x="178.834" y="460.333"/>
			<point x="169" y="293.333"/>
		</contour>
	</outline>
</glyph>
<glyph name="sigma1" format="2">
	<unicode hex="03C2"/>
	<advance width="517"/>
	<outline>
		<contour>
			<point x="41.3333" y="232" type="curve" smooth="yes"/>
			<point x="41.3333" y="304.667"/>
			<point x="96.349" y="502"/>
			<point x="384.744" y="502" type="curve" smooth="yes"/>
			<point x="466" y="502"/>
			<point x="478" y="469.333"/>
			<point x="478" y="446.674" type="curve" smooth="yes"/>
			<point x="478" y="412.442"/>
			<point x="453.232" y="391.281"/>
			<point x="409.849" y="391.207" type="curve" smooth="yes"/>
			<point x="388.617" y="391.162"/>
			<point x="368.395" y="399.781"/>
			<point x="354.864" y="410.452" type="curve" smooth="yes"/>
			<point x="340.412" y="421.853"/>
			<point x="315.908" y="430"/>
			<point x="291.885" y="430" type="curve" smooth="yes"/>
			<point x="159.632" y="430"/>
			<point x="147.667" y="299"/>
			<point x="147.667" y="243" type="curve" smooth="yes"/>
			<point x="147.667" y="160.333"/>
			<point x="201.864" y="101.67"/>
			<point x="329.438" y="77" type="curve" smooth="yes"/>
			<point x="416.253" y="60.4369"/>
			<point x="456.667" y="41.2698"/>
			<point x="456.667" y="-15.0125" type="curve" smooth="yes"/>
			<point x="456.667" y="-88.3946"/>
			<point x="393.173" y="-142.877"/>
			<point x="337.417" y="-184.333" type="curve"/>
			<point x="314.855" y="-161.333" type="line"/>
			<point x="343.016" y="-137.101"/>
			<point x="370" y="-109.725"/>
			<point x="370" y="-71.1862" type="curve" smooth="yes"/>
			<point x="370" y="-41.7734"/>
			<point x="346.215" y="-24.8252"/>
			<point x="248.117" y="-7" type="curve" smooth="yes"/>
			<point x="81.9794" y="23.0384"/>
			<point x="41.3333" y="111.667"/>
		</contour>
	</outline>
</glyph>
<glyph name="sigma" format="2">
	<unicode hex="03C3"/>
	<advance width="691"/>
	<outline>
		<contour>
			<point x="54" y="239" type="curve" smooth="yes"/>
			<point x="54" y="439"/>
			<point x="194.667" y="490"/>
			<point x="284" y="490" type="curve" smooth="yes"/>
			<point x="518" y="490" type="line" smooth="yes"/>
			<point x="566.333" y="490"/>
			<point x="618.667" y="495"/>
			<point x="646.333" y="502" type="curve"/>
			<point x="620.667" y="417.333" type="line"/>
			<point x="468.667" y="417.333" type="line"/>
			<point x="514" y="379.333"/>
			<point x="543.667" y="324.667"/>
			<point x="543.667" y="244.667" type="curve"/>
			<point x="542.667" y="78.6667"/>
			<point x="457.333" y="-12"/>
			<point x="306.667" y="-12" type="curve" smooth="yes"/>
			<point x="175" y="-12"/>
			<point x="54" y="52"/>
		</contour>
		<contour>
			<point x="176.333" y="239" type="curve"/>
			<point x="177" y="82.6667"/>
			<point x="221" y="26.6667"/>
			<point x="302" y="26.6667" type="curve" smooth="yes"/>
			<point x="393" y="26.6667"/>
			<point x="421.333" y="133.667"/>
			<point x="421.333" y="247.667" type="curve" smooth="yes"/>
			<point x="421.333" y="387.333"/>
			<point x="375.667" y="447.333"/>
			<point x="291" y="447.333" type="curve" smooth="yes"/>
			<point x="208" y="447.333"/>
			<point x="176.333" y="358"/>
		</contour>
	</outline>
</glyph>
<glyph name="phi" format="2">
	<unicode hex="03C6"/>
	<advance width="744"/>
	<outline>
		<contour>
			<point x="42" y="241" type="curve" smooth="yes"/>
			<point x="42" y="342"/>
			<point x="76" y="435"/>
			<point x="193" y="492" type="curve"/>
			<point x="211.333" y="468.333" type="line"/>
			<point x="170.333" y="419"/>
			<point x="156.333" y="325.667"/>
			<point x="156.333" y="246" type="curve" smooth="yes"/>
			<point x="156.333" y="135"/>
			<point x="195" y="36"/>
			<point x="310.667" y="27.6667" type="curve"/>
			<point x="310.667" y="88.7324"/>
			<point x="311.333" y="215.238"/>
			<point x="312" y="290.333" type="curve" smooth="yes"/>
			<point x="312.667" y="433.667"/>
			<point x="375.333" y="499"/>
			<point x="493.667" y="499" type="curve" smooth="yes"/>
			<point x="593" y="499"/>
			<point x="699.667" y="440"/>
			<point x="699.667" y="251" type="curve" smooth="yes"/>
			<point x="699.667" y="248" type="line" smooth="yes"/>
			<point x="699.667" y="113"/>
			<point x="595.333" y="-3.66667"/>
			<point x="424" y="-12" type="curve"/>
			<point x="424" y="-214" type="line"/>
			<point x="310.667" y="-242" type="line"/>
			<point x="310.667" y="-12" type="line"/>
			<point x="154.333" y="-10.3333"/>
			<point x="42" y="92"/>
		</contour>
		<contour>
			<point x="424" y="27.6667" type="line"/>
			<point x="551.333" y="34.6667"/>
			<point x="585" y="127"/>
			<point x="585" y="251" type="curve" smooth="yes"/>
			<point x="585" y="314"/>
			<point x="574" y="462"/>
			<point x="495.667" y="462" type="curve" smooth="yes"/>
			<point x="436.667" y="462"/>
			<point x="424" y="371"/>
			<point x="424" y="308" type="curve" smooth="yes"/>
		</contour>
	</outline>
</glyph>
<glyph name="psi" format="2">
	<unicode hex="03C8"/>
	<advance width="832"/>
	<outline>
		<contour>
			<point x="488.247" y="568.667" type="line"/>
			<point x="366.061" y="536" type="line"/>
			<point x="400.018" y="-234" type="line"/>
			<point x="406.011" y="-241"/>
			<point x="408.342" y="-242"/>
			<point x="423.989" y="-242" type="curve" smooth="yes"/>
			<point x="440.968" y="-242"/>
			<point x="443.298" y="-241"/>
			<point x="447.96" y="-235" type="curve"/>
		</contour>
		<contour>
			<point x="442.711" y="-12.2507" type="line"/>
			<point x="474.586" y="-12.1712" type="line" smooth="yes"/>
			<point x="649.406" y="-12.1032"/>
			<point x="713.776" y="139.643"/>
			<point x="713.661" y="285.026" type="curve" smooth="yes"/>
			<point x="713.594" y="366.243"/>
			<point x="729.679" y="445.931"/>
			<point x="800.333" y="477" type="curve"/>
			<point x="791.333" y="504" type="line"/>
			<point x="670.708" y="503.908"/>
			<point x="618.282" y="447.073"/>
			<point x="618.221" y="306.068" type="curve" smooth="yes"/>
			<point x="618.161" y="193.474"/>
			<point x="608.495" y="29.708"/>
			<point x="441.847" y="29.9204" type="curve"/>
		</contour>
		<contour>
			<point x="409.663" y="-11.9186" type="curve"/>
			<point x="409.032" y="31.167" type="line"/>
			<point x="297.048" y="31.3965"/>
			<point x="224.718" y="110.199"/>
			<point x="224.341" y="311.998" type="curve" smooth="yes"/>
			<point x="224.049" y="468.687"/>
			<point x="179.007" y="500.667"/>
			<point x="115.438" y="500.667" type="curve" smooth="yes"/>
			<point x="59.6667" y="500.667"/>
			<point x="24.3333" y="475.667"/>
			<point x="14" y="463.667" type="curve"/>
			<point x="28.3333" y="438.333" type="line"/>
			<point x="36.6667" y="443.333"/>
			<point x="43.6667" y="444.667"/>
			<point x="54.2532" y="444.667" type="curve" smooth="yes"/>
			<point x="96.3333" y="444.667"/>
			<point x="109.667" y="403"/>
			<point x="109.667" y="285" type="curve" smooth="yes"/>
			<point x="109.667" y="66.9453"/>
			<point x="234.016" y="-11.9709"/>
		</contour>
	</outline>
</glyph>
<glyph name="theta1" format="2">
	<unicode hex="03D1"/>
	<advance width="622"/>
	<outline>
		<contour>
			<point x="33.6667" y="364.333" type="line"/>
			<point x="44" y="376.333"/>
			<point x="73.3333" y="402.333"/>
			<point x="121.36" y="402.333" type="curve" smooth="yes"/>
			<point x="192.333" y="402.333"/>
			<point x="247.667" y="346.664"/>
			<point x="247.667" y="250.23" type="curve" smooth="yes"/>
			<point x="247.667" y="140.783"/>
			<point x="247.667" y="29.6667"/>
			<point x="337.722" y="29.6667" type="curve" smooth="yes"/>
			<point x="440.406" y="29.6667"/>
			<point x="464.667" y="85.7253"/>
			<point x="464.667" y="354.667" type="curve" smooth="yes"/>
			<point x="464.667" y="547.813"/>
			<point x="430.107" y="701"/>
			<point x="323.106" y="701" type="curve" smooth="yes"/>
			<point x="275.912" y="701"/>
			<point x="221.333" y="671.168"/>
			<point x="221.333" y="584.35" type="curve" smooth="yes"/>
			<point x="221.333" y="504.909"/>
			<point x="267.606" y="461.667"/>
			<point x="336.556" y="461.667" type="curve" smooth="yes"/>
			<point x="360.006" y="461.667"/>
			<point x="388.581" y="466.694"/>
			<point x="419.815" y="477.094" type="curve"/>
			<point x="425.118" y="452.205" type="line"/>
			<point x="379.937" y="421.667"/>
			<point x="338.082" y="410"/>
			<point x="292.59" y="410" type="curve" smooth="yes"/>
			<point x="162.667" y="410"/>
			<point x="122.667" y="502.548"/>
			<point x="122.667" y="572.726" type="curve" smooth="yes"/>
			<point x="122.667" y="639.298"/>
			<point x="158.667" y="742.333"/>
			<point x="323.783" y="742.333" type="curve" smooth="yes"/>
			<point x="498.947" y="742.333"/>
			<point x="585.667" y="583.994"/>
			<point x="585.667" y="357.253" type="curve" smooth="yes"/>
			<point x="585.667" y="170.16"/>
			<point x="526.737" y="-11.6667"/>
			<point x="337.063" y="-11.6667" type="curve" smooth="yes"/>
			<point x="210" y="-11.6667"/>
			<point x="137" y="24.9014"/>
			<point x="137" y="204.483" type="curve" smooth="yes"/>
			<point x="137" y="299.286"/>
			<point x="116.667" y="348.333"/>
			<point x="72.8519" y="348.333" type="curve" smooth="yes"/>
			<point x="64" y="348.333"/>
			<point x="54.6667" y="346.331"/>
			<point x="46.3333" y="341.327" type="curve"/>
		</contour>
	</outline>
</glyph>
<glyph name="phi1" format="2">
	<unicode hex="03D5"/>
	<advance width="740"/>
	<outline>
		<contour>
			<point x="38.3333" y="254.867" type="curve" smooth="yes"/>
			<point x="38.3333" y="348.693"/>
			<point x="91.6667" y="463.348"/>
			<point x="230.333" y="488.725" type="curve"/>
			<point x="246.333" y="465.686" type="line"/>
			<point x="181.667" y="430.439"/>
			<point x="156" y="352.011"/>
			<point x="156" y="256.284" type="curve" smooth="yes"/>
			<point x="156" y="134.349"/>
			<point x="206.333" y="38.9728"/>
			<point x="334" y="30" type="curve"/>
			<point x="312.667" y="663" type="line"/>
			<point x="434.333" y="695.667" type="line"/>
			<point x="426.667" y="501" type="line"/>
			<point x="537.333" y="501"/>
			<point x="702.667" y="441.412"/>
			<point x="702.667" y="253.006" type="curve" smooth="yes"/>
			<point x="702.667" y="107.425"/>
			<point x="580" y="-12"/>
			<point x="411.667" y="-12" type="curve"/>
			<point x="398.333" y="-235" type="line"/>
			<point x="394.667" y="-241"/>
			<point x="392.333" y="-242"/>
			<point x="373" y="-242" type="curve" smooth="yes"/>
			<point x="353.667" y="-242"/>
			<point x="351.333" y="-241.333"/>
			<point x="347.667" y="-235" type="curve"/>
			<point x="335.333" y="-12" type="line"/>
			<point x="181.333" y="-12"/>
			<point x="38.3333" y="101.443"/>
		</contour>
		<contour>
			<point x="412.333" y="30" type="line"/>
			<point x="539.667" y="36.9788"/>
			<point x="585" y="128.367"/>
			<point x="585" y="248.07" type="curve" smooth="yes"/>
			<point x="585" y="379.26"/>
			<point x="530.333" y="462.333"/>
			<point x="426.333" y="462.333" type="curve"/>
		</contour>
	</outline>
</glyph>
<glyph name="uni0402" format="2">
	<unicode hex="0402"/>
	<advance width="815"/>
	<outline>
		<contour>
			<point x="19.6667" y="518.667" type="line"/>
			<point x="19.6667" y="692" type="line"/>
			<point x="602.333" y="692" type="line"/>
			<point x="602.333" y="518.667" type="line"/>
			<point x="569.667" y="518.667" type="line"/>
			<point x="550.333" y="624.667"/>
			<point x="531" y="653.333"/>
			<point x="422.735" y="653.333" type="curve" smooth="yes"/>
			<point x="350.667" y="653.333" type="line"/>
			<point x="350.667" y="359.333" type="line"/>
			<point x="401.311" y="395.667"/>
			<point x="480.333" y="439"/>
			<point x="555" y="439" type="curve" smooth="yes"/>
			<point x="684" y="439"/>
			<point x="766" y="343.333"/>
			<point x="766" y="197.667" type="curve" smooth="yes"/>
			<point x="766" y="48"/>
			<point x="670" y="-13"/>
			<point x="561.703" y="-13" type="curve" smooth="yes"/>
			<point x="477.667" y="-13"/>
			<point x="426" y="32.6667"/>
			<point x="426" y="104.439" type="curve" smooth="yes"/>
			<point x="426" y="151"/>
			<point x="447.667" y="169.333"/>
			<point x="480.216" y="169.333" type="curve" smooth="yes"/>
			<point x="506.333" y="169.333"/>
			<point x="533.667" y="156.667"/>
			<point x="533.667" y="121.342" type="curve" smooth="yes"/>
			<point x="533.667" y="110.282"/>
			<point x="530.826" y="100.842"/>
			<point x="527.324" y="91.3788" type="curve" smooth="yes"/>
			<point x="523.907" y="82.0134"/>
			<point x="521" y="72.3768"/>
			<point x="521" y="61.1997" type="curve" smooth="yes"/>
			<point x="521" y="37"/>
			<point x="535" y="25.6667"/>
			<point x="552.189" y="25.6667" type="curve" smooth="yes"/>
			<point x="628.667" y="25.6667"/>
			<point x="636.667" y="106"/>
			<point x="636.667" y="208" type="curve" smooth="yes"/>
			<point x="636.667" y="288"/>
			<point x="605.333" y="370.333"/>
			<point x="519.17" y="370.333" type="curve" smooth="yes"/>
			<point x="469.899" y="370.333"/>
			<point x="350.667" y="350.461"/>
			<point x="350.667" y="281.667" type="curve" smooth="yes"/>
			<point x="350.667" y="0" type="line"/>
			<point x="126" y="0" type="line"/>
			<point x="126" y="32" type="line"/>
			<point x="216.186" y="37.323"/>
			<point x="231.333" y="39.5583"/>
			<point x="231.333" y="93.6667" type="curve" smooth="yes"/>
			<point x="231.333" y="653.333" type="line"/>
			<point x="198.667" y="653.333" type="line" smooth="yes"/>
			<point x="91" y="653.333"/>
			<point x="71.6667" y="624.667"/>
			<point x="52.3333" y="518.667" type="curve"/>
		</contour>
	</outline>
</glyph>
<glyph name="uni040A" format="2">
	<unicode hex="040A"/>
	<advance width="1093"/>
	<outline>
		<contour>
			<point x="34.3333" y="0" type="line"/>
			<point x="34.3333" y="32" type="line"/>
			<point x="116.667" y="37"/>
			<point x="120.667" y="40"/>
			<point x="120.667" y="94.3333" type="curve" smooth="yes"/>
			<point x="120.667" y="597.667" type="line" smooth="yes"/>
			<point x="120.667" y="652"/>
			<point x="116.667" y="655"/>
			<point x="34.3333" y="660" type="curve"/>
			<point x="34.3333" y="692" type="line"/>
			<point x="326.333" y="692" type="line"/>
			<point x="326.333" y="660" type="line"/>
			<point x="244.667" y="655"/>
			<point x="240" y="652"/>
			<point x="240" y="597.667" type="curve" smooth="yes"/>
			<point x="240" y="382.333" type="line"/>
			<point x="561" y="382.333" type="line"/>
			<point x="561" y="597.667" type="line" smooth="yes"/>
			<point x="561" y="652"/>
			<point x="557" y="655"/>
			<point x="474.667" y="660" type="curve"/>
			<point x="474.667" y="692" type="line"/>
			<point x="783" y="692" type="line"/>
			<point x="783" y="660.667" type="line"/>
			<point x="685" y="655"/>
			<point x="680.333" y="652"/>
			<point x="680.333" y="597.667" type="curve" smooth="yes"/>
			<point x="680.333" y="383" type="line"/>
			<point x="706.333" y="390.333"/>
			<point x="740" y="392.333"/>
			<point x="780.333" y="392.333" type="curve" smooth="yes"/>
			<point x="905.333" y="392.333"/>
			<point x="1052" y="346.667"/>
			<point x="1052" y="198" type="curve" smooth="yes"/>
			<point x="1052" y="52"/>
			<point x="953" y="0"/>
			<point x="791.333" y="0" type="curve" smooth="yes"/>
			<point x="474.667" y="0" type="line"/>
			<point x="474.667" y="32" type="line"/>
			<point x="557" y="37"/>
			<point x="561" y="40"/>
			<point x="561" y="94.3333" type="curve" smooth="yes"/>
			<point x="561" y="341" type="line"/>
			<point x="240" y="341" type="line"/>
			<point x="240" y="94.3333" type="line" smooth="yes"/>
			<point x="240" y="40"/>
			<point x="244.667" y="37"/>
			<point x="326.333" y="32" type="curve"/>
			<point x="326.333" y="0" type="line"/>
		</contour>
		<contour>
			<point x="680.333" y="111.667" type="line" smooth="yes"/>
			<point x="680.333" y="54"/>
			<point x="698.333" y="38.6667"/>
			<point x="768.333" y="38.6667" type="curve" smooth="yes"/>
			<point x="849" y="38.6667"/>
			<point x="922.333" y="68.6667"/>
			<point x="922.333" y="193.333" type="curve" smooth="yes"/>
			<point x="922.333" y="302.333"/>
			<point x="848.333" y="353.667"/>
			<point x="755.333" y="353.667" type="curve" smooth="yes"/>
			<point x="730" y="353.667"/>
			<point x="693.333" y="347.333"/>
			<point x="680.333" y="341.667" type="curve"/>
		</contour>
	</outline>
</glyph>
<glyph name="uni040F" format="2">
	<unicode hex="040F"/>
	<advance width="791"/>
	<outline>
		<contour>
			<point x="34.3333" y="0" type="line"/>
			<point x="34.3333" y="32" type="line"/>
			<point x="116.667" y="37"/>
			<point x="120.667" y="40"/>
			<point x="120.667" y="94.3333" type="curve" smooth="yes"/>
			<point x="120.667" y="597.667" type="line" smooth="yes"/>
			<point x="120.667" y="652"/>
			<point x="116.667" y="655"/>
			<point x="34.3333" y="660" type="curve"/>
			<point x="34.3333" y="692" type="line"/>
			<point x="326.333" y="692" type="line"/>
			<point x="326.333" y="660" type="line"/>
			<point x="244" y="655"/>
			<point x="240" y="652"/>
			<point x="240" y="597.667" type="curve" smooth="yes"/>
			<point x="240" y="93.3333" type="line" smooth="yes"/>
			<point x="240" y="43.6667"/>
			<point x="249.333" y="39.6667"/>
			<point x="319.667" y="38.6667" type="curve"/>
			<point x="471.667" y="38.6667" type="line"/>
			<point x="542" y="39.6667"/>
			<point x="551.333" y="43.6667"/>
			<point x="551.333" y="93.3333" type="curve" smooth="yes"/>
			<point x="551.333" y="597.667" type="line" smooth="yes"/>
			<point x="551.333" y="652"/>
			<point x="547.333" y="655"/>
			<point x="465" y="660" type="curve"/>
			<point x="465" y="692" type="line"/>
			<point x="757" y="692" type="line"/>
			<point x="757" y="660" type="line"/>
			<point x="674.667" y="655"/>
			<point x="670.667" y="652"/>
			<point x="670.667" y="597.667" type="curve" smooth="yes"/>
			<point x="670.667" y="93.3333" type="line" smooth="yes"/>
			<point x="670.667" y="43.6667"/>
			<point x="680" y="39.6667"/>
			<point x="750.333" y="38.6667" type="curve"/>
			<point x="750.333" y="0" type="line"/>
			<point x="623" y="0" type="line" smooth="yes"/>
			<point x="442.333" y="0"/>
			<point x="431.667" y="-30"/>
			<point x="411.333" y="-190" type="curve"/>
			<point x="380" y="-190" type="line"/>
			<point x="359.667" y="-30"/>
			<point x="349" y="0"/>
			<point x="168.333" y="0" type="curve" smooth="yes"/>
		</contour>
	</outline>
</glyph>
<glyph name="uni041A" format="2">
	<unicode hex="041A"/>
	<advance width="751"/>
	<outline>
		<contour>
			<point x="210.067" y="341.667" type="line"/>
			<point x="285" y="341.667" type="line" smooth="yes"/>
			<point x="400.333" y="341.667"/>
			<point x="448.667" y="280"/>
			<point x="477.667" y="123" type="curve" smooth="yes"/>
			<point x="500.333" y="4.66667"/>
			<point x="560.333" y="-15"/>
			<point x="663" y="-15" type="curve" smooth="yes"/>
			<point x="724.333" y="-15" type="line"/>
			<point x="724.333" y="23.6667" type="line"/>
			<point x="661.667" y="23.6667"/>
			<point x="618.667" y="58"/>
			<point x="597.667" y="172.333" type="curve"/>
			<point x="573.667" y="294"/>
			<point x="476" y="356"/>
			<point x="383.667" y="370.333" type="curve"/>
			<point x="383.667" y="372.667" type="line"/>
			<point x="435.667" y="391.667"/>
			<point x="460.667" y="439.667"/>
			<point x="488" y="545.667" type="curve" smooth="yes"/>
			<point x="506.333" y="617.667"/>
			<point x="540.333" y="668.333"/>
			<point x="572" y="668.333" type="curve" smooth="yes"/>
			<point x="586.333" y="668.333"/>
			<point x="593" y="657"/>
			<point x="593" y="637.333" type="curve" smooth="yes"/>
			<point x="593" y="628.667"/>
			<point x="591.667" y="621"/>
			<point x="590.333" y="615.333" type="curve"/>
			<point x="589" y="606.667"/>
			<point x="587" y="592.667"/>
			<point x="587" y="581" type="curve" smooth="yes"/>
			<point x="587" y="544.667"/>
			<point x="606.333" y="534.333"/>
			<point x="631.667" y="534.333" type="curve" smooth="yes"/>
			<point x="678.667" y="534.333"/>
			<point x="692.333" y="567.667"/>
			<point x="692.333" y="589" type="curve" smooth="yes"/>
			<point x="692.333" y="648.667"/>
			<point x="663" y="707"/>
			<point x="569.667" y="707" type="curve" smooth="yes"/>
			<point x="503" y="707"/>
			<point x="458" y="632.667"/>
			<point x="432.333" y="536.333" type="curve" smooth="yes"/>
			<point x="409.667" y="451.667"/>
			<point x="381.667" y="383"/>
			<point x="268.667" y="383" type="curve" smooth="yes"/>
			<point x="209.867" y="383" type="line"/>
		</contour>
		<contour>
			<point x="326.333" y="0" type="line"/>
			<point x="326.333" y="32" type="line"/>
			<point x="244.667" y="37"/>
			<point x="240" y="40"/>
			<point x="240" y="94.3333" type="curve" smooth="yes"/>
			<point x="240" y="597.667" type="line" smooth="yes"/>
			<point x="240" y="652"/>
			<point x="244.667" y="655"/>
			<point x="326.333" y="660" type="curve"/>
			<point x="326.333" y="692" type="line"/>
			<point x="34.3333" y="692" type="line"/>
			<point x="34.3333" y="660" type="line"/>
			<point x="116.667" y="655"/>
			<point x="120.667" y="652"/>
			<point x="120.667" y="597.667" type="curve" smooth="yes"/>
			<point x="120.667" y="94.3333" type="line" smooth="yes"/>
			<point x="120.667" y="40"/>
			<point x="116.667" y="37"/>
			<point x="34.3333" y="32" type="curve"/>
			<point x="34.3333" y="0" type="line"/>
		</contour>
	</outline>
</glyph>
<glyph name="uni041B" format="2">
	<unicode hex="041B"/>
	<advance width="767"/>
	<outline>
		<contour>
			<point x="15" y="108.333" type="curve" smooth="yes"/>
			<point x="15" y="160"/>
			<point x="39.6667" y="178.667"/>
			<point x="69.6667" y="178.667" type="curve" smooth="yes"/>
			<point x="97.6667" y="178.667"/>
			<point x="126.667" y="162"/>
			<point x="126.667" y="132.333" type="curve" smooth="yes"/>
			<point x="126.667" y="121.333"/>
			<point x="123" y="107.667"/>
			<point x="116.333" y="92" type="curve" smooth="yes"/>
			<point x="111.667" y="81"/>
			<point x="107" y="67.6667"/>
			<point x="107" y="56.6667" type="curve" smooth="yes"/>
			<point x="107" y="35.6667"/>
			<point x="123" y="25.6667"/>
			<point x="140.667" y="25.6667" type="curve" smooth="yes"/>
			<point x="226.667" y="25.6667"/>
			<point x="282.667" y="245"/>
			<point x="282.667" y="592.333" type="curve" smooth="yes"/>
			<point x="282.667" y="652"/>
			<point x="278.667" y="655"/>
			<point x="197" y="660" type="curve"/>
			<point x="197" y="692" type="line"/>
			<point x="738.667" y="692" type="line"/>
			<point x="738.667" y="660" type="line"/>
			<point x="656.333" y="655"/>
			<point x="652.333" y="652"/>
			<point x="652.333" y="597.667" type="curve" smooth="yes"/>
			<point x="652.333" y="94.3333" type="line" smooth="yes"/>
			<point x="652.333" y="40"/>
			<point x="656.333" y="37"/>
			<point x="738.667" y="32" type="curve"/>
			<point x="738.667" y="0" type="line"/>
			<point x="446.667" y="0" type="line"/>
			<point x="446.667" y="32" type="line"/>
			<point x="529" y="37"/>
			<point x="533" y="40"/>
			<point x="533" y="94.3333" type="curve" smooth="yes"/>
			<point x="533" y="598.667" type="line" smooth="yes"/>
			<point x="533" y="648.333"/>
			<point x="523.667" y="653.333"/>
			<point x="453.333" y="653.333" type="curve" smooth="yes"/>
			<point x="413.667" y="653.333" type="line" smooth="yes"/>
			<point x="343.333" y="653.333"/>
			<point x="334" y="648.333"/>
			<point x="334" y="598.667" type="curve" smooth="yes"/>
			<point x="334" y="221.333"/>
			<point x="261.667" y="-13"/>
			<point x="149.667" y="-13" type="curve" smooth="yes"/>
			<point x="66" y="-13"/>
			<point x="15" y="34"/>
		</contour>
	</outline>
</glyph>
<glyph name="uni042F" format="2">
	<unicode hex="042F"/>
	<advance width="723"/>
	<outline>
		<contour>
			<point x="30.3333" y="-15" type="line"/>
			<point x="30.3333" y="23.6667" type="line"/>
			<point x="86.6667" y="23.6667"/>
			<point x="116" y="57.6667"/>
			<point x="142" y="173.333" type="curve" smooth="yes"/>
			<point x="162.333" y="263.333"/>
			<point x="211.667" y="298.667"/>
			<point x="263" y="318" type="curve"/>
			<point x="263" y="320.667" type="line"/>
			<point x="183" y="348.667"/>
			<point x="106.333" y="391"/>
			<point x="106.333" y="502" type="curve" smooth="yes"/>
			<point x="106.333" y="642.667"/>
			<point x="229.333" y="692"/>
			<point x="373" y="692" type="curve" smooth="yes"/>
			<point x="689" y="692" type="line"/>
			<point x="689" y="660" type="line"/>
			<point x="606.667" y="655"/>
			<point x="602.667" y="652"/>
			<point x="602.667" y="597.667" type="curve" smooth="yes"/>
			<point x="602.667" y="94.3333" type="line" smooth="yes"/>
			<point x="602.667" y="40"/>
			<point x="606.667" y="37"/>
			<point x="689" y="32" type="curve"/>
			<point x="689" y="0" type="line"/>
			<point x="386.333" y="0" type="line"/>
			<point x="386.333" y="32" type="line"/>
			<point x="478.667" y="37"/>
			<point x="483.333" y="40"/>
			<point x="483.333" y="94.3333" type="curve" smooth="yes"/>
			<point x="483.333" y="302.333" type="line"/>
			<point x="411.667" y="302.333" type="line" smooth="yes"/>
			<point x="305.333" y="302.333"/>
			<point x="288.667" y="252.333"/>
			<point x="261" y="123" type="curve" smooth="yes"/>
			<point x="236.333" y="5.66667"/>
			<point x="172" y="-15"/>
			<point x="78.3333" y="-15" type="curve" smooth="yes"/>
		</contour>
		<contour>
			<point x="234.333" y="497.667" type="curve" smooth="yes"/>
			<point x="234.333" y="396.333"/>
			<point x="299.667" y="341"/>
			<point x="385.667" y="341" type="curve" smooth="yes"/>
			<point x="415.333" y="341" type="line" smooth="yes"/>
			<point x="467.667" y="341"/>
			<point x="483.333" y="344"/>
			<point x="483.333" y="381.333" type="curve" smooth="yes"/>
			<point x="483.333" y="616.333" type="line" smooth="yes"/>
			<point x="483.333" y="644.333"/>
			<point x="473.333" y="653.333"/>
			<point x="413" y="653.333" type="curve" smooth="yes"/>
			<point x="384.667" y="653.333" type="line" smooth="yes"/>
			<point x="294.333" y="653.333"/>
			<point x="234.333" y="598.667"/>
		</contour>
	</outline>
</glyph>
<glyph name="uni0437" format="2">
	<unicode hex="0437"/>
	<advance width="515"/>
	<outline>
		<contour>
			<point x="42.6667" y="128.333" type="curve" smooth="yes"/>
			<point x="42.6667" y="163.333"/>
			<point x="61.3333" y="190.333"/>
			<point x="95.6667" y="190.333" type="curve" smooth="yes"/>
			<point x="124.667" y="190.333"/>
			<point x="153.667" y="175.667"/>
			<point x="153.667" y="146.667" type="curve" smooth="yes"/>
			<point x="153.667" y="123.333"/>
			<point x="139.333" y="102.667"/>
			<point x="139.333" y="76.3333" type="curve" smooth="yes"/>
			<point x="139.333" y="54"/>
			<point x="182" y="26.6667"/>
			<point x="237" y="26.6667" type="curve" smooth="yes"/>
			<point x="301.667" y="26.6667"/>
			<point x="349" y="61.6667"/>
			<point x="349" y="129.667" type="curve" smooth="yes"/>
			<point x="349" y="188.333"/>
			<point x="308.667" y="240.667"/>
			<point x="236.333" y="240.667" type="curve" smooth="yes"/>
			<point x="173.333" y="240.667" type="line"/>
			<point x="173.333" y="279.333" type="line"/>
			<point x="232.333" y="279.333" type="line" smooth="yes"/>
			<point x="300.333" y="279.333"/>
			<point x="329" y="319.667"/>
			<point x="329" y="371" type="curve" smooth="yes"/>
			<point x="329" y="423.667"/>
			<point x="296" y="463.333"/>
			<point x="229.333" y="463.333" type="curve" smooth="yes"/>
			<point x="152.667" y="463.333"/>
			<point x="122.333" y="415.667"/>
			<point x="101.333" y="343.333" type="curve"/>
			<point x="67.3333" y="343.333" type="line"/>
			<point x="67.3333" y="455.667" type="line"/>
			<point x="130" y="495.333"/>
			<point x="176.667" y="502"/>
			<point x="245.667" y="502" type="curve" smooth="yes"/>
			<point x="353" y="502"/>
			<point x="444.333" y="460.333"/>
			<point x="444.333" y="377.667" type="curve" smooth="yes"/>
			<point x="444.333" y="316"/>
			<point x="400.333" y="281.667"/>
			<point x="330" y="266.333" type="curve"/>
			<point x="330" y="263.667" type="line"/>
			<point x="414.667" y="246.667"/>
			<point x="470.667" y="192.667"/>
			<point x="470.667" y="123.667" type="curve" smooth="yes"/>
			<point x="470.667" y="29"/>
			<point x="367" y="-12"/>
			<point x="243" y="-12" type="curve" smooth="yes"/>
			<point x="116.333" y="-12"/>
			<point x="42.6667" y="51"/>
		</contour>
	</outline>
</glyph>
<glyph name="uni043D" format="2">
	<unicode hex="043D"/>
	<advance width="635"/>
	<outline>
		<contour>
			<point x="31" y="0" type="line"/>
			<point x="31" y="32" type="line"/>
			<point x="98" y="36.3333"/>
			<point x="102.667" y="41"/>
			<point x="102.667" y="89" type="curve" smooth="yes"/>
			<point x="102.667" y="401" type="line" smooth="yes"/>
			<point x="102.667" y="449"/>
			<point x="98" y="453.667"/>
			<point x="31" y="458" type="curve"/>
			<point x="31" y="490" type="line"/>
			<point x="283.333" y="490" type="line"/>
			<point x="283.333" y="458" type="line"/>
			<point x="224" y="453.667"/>
			<point x="215.667" y="449.333"/>
			<point x="215.667" y="403.333" type="curve" smooth="yes"/>
			<point x="215.667" y="272.333" type="line"/>
			<point x="419.667" y="272.333" type="line"/>
			<point x="419.667" y="403.333" type="line" smooth="yes"/>
			<point x="419.667" y="449.333"/>
			<point x="411.333" y="453.667"/>
			<point x="352" y="458" type="curve"/>
			<point x="352" y="490" type="line"/>
			<point x="604.333" y="490" type="line"/>
			<point x="604.333" y="458" type="line"/>
			<point x="537.333" y="453.667"/>
			<point x="532.667" y="449"/>
			<point x="532.667" y="401" type="curve" smooth="yes"/>
			<point x="532.667" y="89" type="line" smooth="yes"/>
			<point x="532.667" y="41"/>
			<point x="537.333" y="36.3333"/>
			<point x="604.333" y="32" type="curve"/>
			<point x="604.333" y="0" type="line"/>
			<point x="352" y="0" type="line"/>
			<point x="352" y="32" type="line"/>
			<point x="411.333" y="36.3333"/>
			<point x="419.667" y="40.6667"/>
			<point x="419.667" y="86.6667" type="curve" smooth="yes"/>
			<point x="419.667" y="233.667" type="line"/>
			<point x="215.667" y="233.667" type="line"/>
			<point x="215.667" y="86.6667" type="line" smooth="yes"/>
			<point x="215.667" y="40.6667"/>
			<point x="224" y="36.3333"/>
			<point x="283.333" y="32" type="curve"/>
			<point x="283.333" y="0" type="line"/>
		</contour>
	</outline>
</glyph>
<glyph name="uni0442" format="2">
	<unicode hex="0442"/>
	<advance width="511"/>
	<outline>
		<contour>
			<point x="21.6667" y="323.333" type="line"/>
			<point x="21.6667" y="490" type="line"/>
			<point x="488.667" y="490" type="line"/>
			<point x="488.667" y="323.333" type="line"/>
			<point x="455.333" y="323.333" type="line"/>
			<point x="430.667" y="417.333"/>
			<point x="410" y="451.333"/>
			<point x="361.667" y="451.333" type="curve" smooth="yes"/>
			<point x="357.333" y="451.333" type="line" smooth="yes"/>
			<point x="324.667" y="451.333"/>
			<point x="311.667" y="450"/>
			<point x="311.667" y="401.667" type="curve" smooth="yes"/>
			<point x="311.667" y="87" type="line" smooth="yes"/>
			<point x="311.667" y="39"/>
			<point x="319.667" y="36.3333"/>
			<point x="400" y="32" type="curve"/>
			<point x="400" y="0" type="line"/>
			<point x="110.333" y="0" type="line"/>
			<point x="110.333" y="32" type="line"/>
			<point x="190.667" y="36.3333"/>
			<point x="198.667" y="39"/>
			<point x="198.667" y="87" type="curve" smooth="yes"/>
			<point x="198.667" y="401.667" type="line" smooth="yes"/>
			<point x="198.667" y="450"/>
			<point x="185.667" y="451.333"/>
			<point x="153" y="451.333" type="curve" smooth="yes"/>
			<point x="148.667" y="451.333" type="line" smooth="yes"/>
			<point x="100.333" y="451.333"/>
			<point x="79.6667" y="417.333"/>
			<point x="55" y="323.333" type="curve"/>
		</contour>
	</outline>
</glyph>
<glyph name="uni0448" format="2">
	<unicode hex="0448"/>
	<advance width="919"/>
	<outline>
		<contour>
			<point x="817" y="87" type="line"/>
			<point x="817" y="39"/>
			<point x="821.667" y="36.3333"/>
			<point x="888.667" y="32" type="curve"/>
			<point x="888.667" y="0" type="line"/>
			<point x="753.333" y="0" type="line"/>
			<point x="753.333" y="87" type="line"/>
		</contour>
		<contour>
			<point x="31" y="0" type="line"/>
			<point x="31" y="32" type="line"/>
			<point x="98" y="36.3333"/>
			<point x="102.667" y="39"/>
			<point x="102.667" y="87" type="curve" smooth="yes"/>
			<point x="102.667" y="403" type="line" smooth="yes"/>
			<point x="102.667" y="451"/>
			<point x="98" y="453.667"/>
			<point x="31" y="458" type="curve"/>
			<point x="31" y="490" type="line"/>
			<point x="283.333" y="490" type="line"/>
			<point x="283.333" y="458" type="line"/>
			<point x="224" y="453.667"/>
			<point x="215.667" y="451.333"/>
			<point x="215.667" y="405.333" type="curve" smooth="yes"/>
			<point x="215.667" y="88.3333" type="line" smooth="yes"/>
			<point x="215.667" y="41.3333"/>
			<point x="222" y="38.6667"/>
			<point x="283.333" y="38.6667" type="curve" smooth="yes"/>
			<point x="335.667" y="38.6667" type="line" smooth="yes"/>
			<point x="397" y="38.6667"/>
			<point x="403.333" y="41.3333"/>
			<point x="403.333" y="88.3333" type="curve" smooth="yes"/>
			<point x="403.333" y="405.333" type="line" smooth="yes"/>
			<point x="403.333" y="451.333"/>
			<point x="395" y="453.667"/>
			<point x="335.667" y="458" type="curve"/>
			<point x="335.667" y="490" type="line"/>
			<point x="584" y="490" type="line"/>
			<point x="584" y="458" type="line"/>
			<point x="524.667" y="453.667"/>
			<point x="516.333" y="451.333"/>
			<point x="516.333" y="405.333" type="curve" smooth="yes"/>
			<point x="516.333" y="88.3333" type="line" smooth="yes"/>
			<point x="516.333" y="41.3333"/>
			<point x="522.667" y="38.6667"/>
			<point x="584" y="38.6667" type="curve" smooth="yes"/>
			<point x="636.333" y="38.6667" type="line" smooth="yes"/>
			<point x="697.667" y="38.6667"/>
			<point x="704" y="41.3333"/>
			<point x="704" y="88.3333" type="curve" smooth="yes"/>
			<point x="704" y="405.333" type="line" smooth="yes"/>
			<point x="704" y="451.333"/>
			<point x="695.667" y="453.667"/>
			<point x="636.333" y="458" type="curve"/>
			<point x="636.333" y="490" type="line"/>
			<point x="888.667" y="490" type="line"/>
			<point x="888.667" y="458" type="line"/>
			<point x="821.667" y="453.667"/>
			<point x="817" y="451"/>
			<point x="817" y="403" type="curve" smooth="yes"/>
			<point x="817" y="0" type="line"/>
		</contour>
	</outline>
</glyph>
<glyph name="uni044B" format="2">
	<unicode hex="044B"/>
	<advance width="831"/>
	<outline>
		<component base="uni044C"/>
		<contour>
			<point x="544" y="0" type="line"/>
			<point x="544" y="32" type="line"/>
			<point x="611" y="36.3333"/>
			<point x="615.667" y="39"/>
			<point x="615.667" y="87" type="curve" smooth="yes"/>
			<point x="615.667" y="403" type="line" smooth="yes"/>
			<point x="615.667" y="451"/>
			<point x="611" y="453.667"/>
			<point x="544" y="458" type="curve"/>
			<point x="544" y="490" type="line"/>
			<point x="800.333" y="490" type="line"/>
			<point x="800.333" y="458" type="line"/>
			<point x="733.333" y="453.667"/>
			<point x="728.667" y="451"/>
			<point x="728.667" y="403" type="curve" smooth="yes"/>
			<point x="728.667" y="87" type="line" smooth="yes"/>
			<point x="728.667" y="39"/>
			<point x="733.333" y="36.3333"/>
			<point x="800.333" y="32" type="curve"/>
			<point x="800.333" y="0" type="line"/>
		</contour>
	</outline>
</glyph>
<glyph name="uni044D" format="2">
	<unicode hex="044D"/>
	<advance width="494"/>
	<outline>
		<contour>
			<point x="37.3333" y="124.333" type="curve" smooth="yes"/>
			<point x="37.3333" y="159.667"/>
			<point x="55" y="186.667"/>
			<point x="91" y="186.667" type="curve" smooth="yes"/>
			<point x="117" y="186.667"/>
			<point x="148.667" y="171.333"/>
			<point x="148.667" y="143.667" type="curve" smooth="yes"/>
			<point x="148.667" y="123.667"/>
			<point x="134.667" y="100.333"/>
			<point x="134.667" y="78.6667" type="curve" smooth="yes"/>
			<point x="134.667" y="44.6667"/>
			<point x="183.667" y="32.6667"/>
			<point x="205.667" y="32.6667" type="curve" smooth="yes"/>
			<point x="299.333" y="32.6667"/>
			<point x="326" y="143"/>
			<point x="328.333" y="237.667" type="curve"/>
			<point x="145.333" y="237.667" type="line"/>
			<point x="145.333" y="276.333" type="line"/>
			<point x="328" y="276.333" type="line"/>
			<point x="325.667" y="401.667"/>
			<point x="293" y="463.333"/>
			<point x="216.333" y="463.333" type="curve" smooth="yes"/>
			<point x="147.667" y="463.333"/>
			<point x="110.667" y="400.667"/>
			<point x="94.6667" y="340.667" type="curve"/>
			<point x="60.6667" y="340.667" type="line"/>
			<point x="60.6667" y="455" type="line"/>
			<point x="109.333" y="492"/>
			<point x="166" y="502"/>
			<point x="216.333" y="502" type="curve" smooth="yes"/>
			<point x="387" y="502"/>
			<point x="450" y="389.333"/>
			<point x="450" y="247.667" type="curve" smooth="yes"/>
			<point x="450" y="99.3333"/>
			<point x="396.667" y="-12"/>
			<point x="220" y="-12" type="curve" smooth="yes"/>
			<point x="115.333" y="-12"/>
			<point x="37.3333" y="53.6667"/>
		</contour>
	</outline>
</glyph>
<glyph name="uni0459" format="2">
	<unicode hex="0459"/>
	<advance width="863"/>
	<outline>
		<contour>
			<point x="522.667" y="400.119" type="line"/>
			<point x="522.667" y="408.602" type="line" smooth="yes"/>
			<point x="522.667" y="449.659"/>
			<point x="527" y="453.667"/>
			<point x="604.333" y="458" type="curve"/>
			<point x="604.333" y="490" type="line"/>
			<point x="149" y="490" type="line"/>
			<point x="149" y="458" type="line"/>
			<point x="216" y="453.667"/>
			<point x="220.667" y="450.992"/>
			<point x="220.667" y="402.602" type="curve" smooth="yes"/>
			<point x="220.667" y="303.602"/>
			<point x="220.333" y="26.6667"/>
			<point x="125.327" y="26.6667" type="curve" smooth="yes"/>
			<point x="114.667" y="26.6667"/>
			<point x="98.6667" y="30.6667"/>
			<point x="98.6667" y="52.5691" type="curve" smooth="yes"/>
			<point x="98.6667" y="62.129"/>
			<point x="101.79" y="73.7135"/>
			<point x="110.221" y="84.3923" type="curve" smooth="yes"/>
			<point x="117.955" y="94.171"/>
			<point x="121.333" y="105.492"/>
			<point x="121.333" y="114.013" type="curve" smooth="yes"/>
			<point x="121.333" y="138.667"/>
			<point x="94" y="158.333"/>
			<point x="67.232" y="158.333" type="curve" smooth="yes"/>
			<point x="42.6667" y="158.333"/>
			<point x="15.6667" y="141.667"/>
			<point x="15.6667" y="93.3333" type="curve" smooth="yes"/>
			<point x="15.6667" y="58"/>
			<point x="37.3333" y="-12"/>
			<point x="134.333" y="-12" type="curve" smooth="yes"/>
			<point x="250.667" y="-12"/>
			<point x="265.667" y="209.333"/>
			<point x="265.667" y="401.245" type="curve" smooth="yes"/>
			<point x="265.667" y="446.264"/>
			<point x="271.912" y="451.333"/>
			<point x="333.333" y="451.333" type="curve" smooth="yes"/>
			<point x="342" y="451.333" type="line" smooth="yes"/>
			<point x="394.736" y="451.333"/>
			<point x="409.667" y="446.312"/>
			<point x="409.667" y="416.755" type="curve" smooth="yes"/>
			<point x="409.667" y="400.188" type="line"/>
		</contour>
		<contour>
			<point x="338" y="0" type="line"/>
			<point x="625.667" y="0" type="line" smooth="yes"/>
			<point x="741" y="0"/>
			<point x="826.333" y="32"/>
			<point x="826.333" y="132" type="curve" smooth="yes"/>
			<point x="826.333" y="253.667"/>
			<point x="701.667" y="281"/>
			<point x="610.333" y="281" type="curve" smooth="yes"/>
			<point x="573" y="281"/>
			<point x="533.667" y="276"/>
			<point x="500.667" y="267.333" type="curve"/>
			<point x="505.333" y="229.667" type="line"/>
			<point x="531" y="238"/>
			<point x="567.667" y="242.333"/>
			<point x="593.333" y="242.333" type="curve" smooth="yes"/>
			<point x="669" y="242.333"/>
			<point x="704" y="202.333"/>
			<point x="704" y="135.667" type="curve" smooth="yes"/>
			<point x="704" y="68.3333"/>
			<point x="667.667" y="38.6667"/>
			<point x="595" y="38.6667" type="curve" smooth="yes"/>
			<point x="544" y="38.6667"/>
			<point x="522.667" y="43"/>
			<point x="522.667" y="90" type="curve" smooth="yes"/>
			<point x="522.667" y="400" type="line"/>
			<point x="409.667" y="400" type="line"/>
			<point x="409.667" y="87.6667" type="line" smooth="yes"/>
			<point x="409.667" y="39.6667"/>
			<point x="405" y="36.6667"/>
			<point x="338" y="32" type="curve"/>
		</contour>
	</outline>
</glyph>
